{
    "asset" : {
        "generator" : "Khronos glTF Blender I/O v1.8.19",
        "version" : "2.0"
    },
    "scene" : 0,
    "scenes" : [
        {
            "name" : "Scene",
            "nodes" : [
                0,
                1,
                2,
                3,
                4,
                5,
                6,
                7,
                8,
                9
            ]
        }
    ],
    "nodes" : [
        {
            "mesh" : 0,
            "name" : "Cylinder",
            "translation" : [
                4,
                0,
                0
            ]
        },
        {
            "mesh" : 1,
            "name" : "Cylinder.001"
        },
        {
            "mesh" : 2,
            "name" : "Cylinder.002",
            "translation" : [
                -2,
                0,
                0
            ]
        },
        {
            "mesh" : 3,
            "name" : "Cylinder.003",
            "translation" : [
                2,
                0,
                0
            ]
        },
        {
            "mesh" : 4,
            "name" : "Cylinder.004",
            "translation" : [
                3,
                0,
                -1.75
            ]
        },
        {
            "mesh" : 5,
            "name" : "Cylinder.005",
            "translation" : [
                -0.9999998211860657,
                0,
                -1.75
            ]
        },
        {
            "mesh" : 6,
            "name" : "Cylinder.006",
            "translation" : [
                1,
                0,
                -1.75
            ]
        },
        {
            "mesh" : 7,
            "name" : "Cylinder.007",
            "translation" : [
                1,
                0,
                1.75
            ]
        },
        {
            "mesh" : 8,
            "name" : "Cylinder.008",
            "translation" : [
                3,
                0,
                1.75
            ]
        },
        {
            "mesh" : 9,
            "name" : "Cylinder.009",
            "translation" : [
                -1,
                0,
                1.75
            ]
        }
    ],
    "meshes" : [
        {
            "name" : "Cylinder",
            "primitives" : [
                {
                    "attributes" : {
                        "POSITION" : 0,
                        "NORMAL" : 1,
                        "TEXCOORD_0" : 2
                    },
                    "indices" : 3
                }
            ]
        },
        {
            "name" : "Cylinder.001",
            "primitives" : [
                {
                    "attributes" : {
                        "POSITION" : 4,
                        "NORMAL" : 5,
                        "TEXCOORD_0" : 6
                    },
                    "indices" : 3
                }
            ]
        },
        {
            "name" : "Cylinder.002",
            "primitives" : [
                {
                    "attributes" : {
                        "POSITION" : 7,
                        "NORMAL" : 8,
                        "TEXCOORD_0" : 9
                    },
                    "indices" : 3
                }
            ]
        },
        {
            "name" : "Cylinder.003",
            "primitives" : [
                {
                    "attributes" : {
                        "POSITION" : 10,
                        "NORMAL" : 11,
                        "TEXCOORD_0" : 12
                    },
                    "indices" : 3
                }
            ]
        },
        {
            "name" : "Cylinder.004",
            "primitives" : [
                {
                    "attributes" : {
                        "POSITION" : 13,
                        "NORMAL" : 14,
                        "TEXCOORD_0" : 15
                    },
                    "indices" : 3
                }
            ]
        },
        {
            "name" : "Cylinder.005",
            "primitives" : [
                {
                    "attributes" : {
                        "POSITION" : 16,
                        "NORMAL" : 17,
                        "TEXCOORD_0" : 18
                    },
                    "indices" : 3
                }
            ]
        },
        {
            "name" : "Cylinder.006",
            "primitives" : [
                {
                    "attributes" : {
                        "POSITION" : 19,
                        "NORMAL" : 20,
                        "TEXCOORD_0" : 21
                    },
                    "indices" : 3
                }
            ]
        },
        {
            "name" : "Cylinder.007",
            "primitives" : [
                {
                    "attributes" : {
                        "POSITION" : 22,
                        "NORMAL" : 23,
                        "TEXCOORD_0" : 24
                    },
                    "indices" : 3
                }
            ]
        },
        {
            "name" : "Cylinder.008",
            "primitives" : [
                {
                    "attributes" : {
                        "POSITION" : 25,
                        "NORMAL" : 26,
                        "TEXCOORD_0" : 27
                    },
                    "indices" : 3
                }
            ]
        },
        {
            "name" : "Cylinder.009",
            "primitives" : [
                {
                    "attributes" : {
                        "POSITION" : 28,
                        "NORMAL" : 29,
                        "TEXCOORD_0" : 30
                    },
                    "indices" : 3
                }
            ]
        }
    ],
    "accessors" : [
        {
            "bufferView" : 0,
            "componentType" : 5126,
            "count" : 36,
            "max" : [
                0.866025447845459,
                0.13575449585914612,
                1
            ],
            "min" : [
                -0.866025447845459,
                -0.13575449585914612,
                -1
            ],
            "type" : "VEC3"
        },
        {
            "bufferView" : 1,
            "componentType" : 5126,
            "count" : 36,
            "type" : "VEC3"
        },
        {
            "bufferView" : 2,
            "componentType" : 5126,
            "count" : 36,
            "type" : "VEC2"
        },
        {
            "bufferView" : 3,
            "componentType" : 5123,
            "count" : 60,
            "type" : "SCALAR"
        },
        {
            "bufferView" : 4,
            "componentType" : 5126,
            "count" : 36,
            "max" : [
                0.866025447845459,
                0.13575449585914612,
                1
            ],
            "min" : [
                -0.866025447845459,
                -0.13575449585914612,
                -1
            ],
            "type" : "VEC3"
        },
        {
            "bufferView" : 5,
            "componentType" : 5126,
            "count" : 36,
            "type" : "VEC3"
        },
        {
            "bufferView" : 6,
            "componentType" : 5126,
            "count" : 36,
            "type" : "VEC2"
        },
        {
            "bufferView" : 7,
            "componentType" : 5126,
            "count" : 36,
            "max" : [
                0.866025447845459,
                0.13575449585914612,
                1
            ],
            "min" : [
                -0.866025447845459,
                -0.13575449585914612,
                -1
            ],
            "type" : "VEC3"
        },
        {
            "bufferView" : 8,
            "componentType" : 5126,
            "count" : 36,
            "type" : "VEC3"
        },
        {
            "bufferView" : 9,
            "componentType" : 5126,
            "count" : 36,
            "type" : "VEC2"
        },
        {
            "bufferView" : 10,
            "componentType" : 5126,
            "count" : 36,
            "max" : [
                0.866025447845459,
                0.13575449585914612,
                1
            ],
            "min" : [
                -0.866025447845459,
                -0.13575449585914612,
                -1
            ],
            "type" : "VEC3"
        },
        {
            "bufferView" : 11,
            "componentType" : 5126,
            "count" : 36,
            "type" : "VEC3"
        },
        {
            "bufferView" : 12,
            "componentType" : 5126,
            "count" : 36,
            "type" : "VEC2"
        },
        {
            "bufferView" : 13,
            "componentType" : 5126,
            "count" : 36,
            "max" : [
                0.866025447845459,
                0.13575449585914612,
                1
            ],
            "min" : [
                -0.866025447845459,
                -0.13575449585914612,
                -1
            ],
            "type" : "VEC3"
        },
        {
            "bufferView" : 14,
            "componentType" : 5126,
            "count" : 36,
            "type" : "VEC3"
        },
        {
            "bufferView" : 15,
            "componentType" : 5126,
            "count" : 36,
            "type" : "VEC2"
        },
        {
            "bufferView" : 16,
            "componentType" : 5126,
            "count" : 36,
            "max" : [
                0.866025447845459,
                0.13575449585914612,
                1
            ],
            "min" : [
                -0.866025447845459,
                -0.13575449585914612,
                -1
            ],
            "type" : "VEC3"
        },
        {
            "bufferView" : 17,
            "componentType" : 5126,
            "count" : 36,
            "type" : "VEC3"
        },
        {
            "bufferView" : 18,
            "componentType" : 5126,
            "count" : 36,
            "type" : "VEC2"
        },
        {
            "bufferView" : 19,
            "componentType" : 5126,
            "count" : 36,
            "max" : [
                0.866025447845459,
                0.13575449585914612,
                1
            ],
            "min" : [
                -0.866025447845459,
                -0.13575449585914612,
                -1
            ],
            "type" : "VEC3"
        },
        {
            "bufferView" : 20,
            "componentType" : 5126,
            "count" : 36,
            "type" : "VEC3"
        },
        {
            "bufferView" : 21,
            "componentType" : 5126,
            "count" : 36,
            "type" : "VEC2"
        },
        {
            "bufferView" : 22,
            "componentType" : 5126,
            "count" : 36,
            "max" : [
                0.866025447845459,
                0.13575449585914612,
                1
            ],
            "min" : [
                -0.866025447845459,
                -0.13575449585914612,
                -1
            ],
            "type" : "VEC3"
        },
        {
            "bufferView" : 23,
            "componentType" : 5126,
            "count" : 36,
            "type" : "VEC3"
        },
        {
            "bufferView" : 24,
            "componentType" : 5126,
            "count" : 36,
            "type" : "VEC2"
        },
        {
            "bufferView" : 25,
            "componentType" : 5126,
            "count" : 36,
            "max" : [
                0.866025447845459,
                0.13575449585914612,
                1
            ],
            "min" : [
                -0.866025447845459,
                -0.13575449585914612,
                -1
            ],
            "type" : "VEC3"
        },
        {
            "bufferView" : 26,
            "componentType" : 5126,
            "count" : 36,
            "type" : "VEC3"
        },
        {
            "bufferView" : 27,
            "componentType" : 5126,
            "count" : 36,
            "type" : "VEC2"
        },
        {
            "bufferView" : 28,
            "componentType" : 5126,
            "count" : 36,
            "max" : [
                0.866025447845459,
                0.13575449585914612,
                1
            ],
            "min" : [
                -0.866025447845459,
                -0.13575449585914612,
                -1
            ],
            "type" : "VEC3"
        },
        {
            "bufferView" : 29,
            "componentType" : 5126,
            "count" : 36,
            "type" : "VEC3"
        },
        {
            "bufferView" : 30,
            "componentType" : 5126,
            "count" : 36,
            "type" : "VEC2"
        }
    ],
    "bufferViews" : [
        {
            "buffer" : 0,
            "byteLength" : 432,
            "byteOffset" : 0
        },
        {
            "buffer" : 0,
            "byteLength" : 432,
            "byteOffset" : 432
        },
        {
            "buffer" : 0,
            "byteLength" : 288,
            "byteOffset" : 864
        },
        {
            "buffer" : 0,
            "byteLength" : 120,
            "byteOffset" : 1152
        },
        {
            "buffer" : 0,
            "byteLength" : 432,
            "byteOffset" : 1272
        },
        {
            "buffer" : 0,
            "byteLength" : 432,
            "byteOffset" : 1704
        },
        {
            "buffer" : 0,
            "byteLength" : 288,
            "byteOffset" : 2136
        },
        {
            "buffer" : 0,
            "byteLength" : 432,
            "byteOffset" : 2424
        },
        {
            "buffer" : 0,
            "byteLength" : 432,
            "byteOffset" : 2856
        },
        {
            "buffer" : 0,
            "byteLength" : 288,
            "byteOffset" : 3288
        },
        {
            "buffer" : 0,
            "byteLength" : 432,
            "byteOffset" : 3576
        },
        {
            "buffer" : 0,
            "byteLength" : 432,
            "byteOffset" : 4008
        },
        {
            "buffer" : 0,
            "byteLength" : 288,
            "byteOffset" : 4440
        },
        {
            "buffer" : 0,
            "byteLength" : 432,
            "byteOffset" : 4728
        },
        {
            "buffer" : 0,
            "byteLength" : 432,
            "byteOffset" : 5160
        },
        {
            "buffer" : 0,
            "byteLength" : 288,
            "byteOffset" : 5592
        },
        {
            "buffer" : 0,
            "byteLength" : 432,
            "byteOffset" : 5880
        },
        {
            "buffer" : 0,
            "byteLength" : 432,
            "byteOffset" : 6312
        },
        {
            "buffer" : 0,
            "byteLength" : 288,
            "byteOffset" : 6744
        },
        {
            "buffer" : 0,
            "byteLength" : 432,
            "byteOffset" : 7032
        },
        {
            "buffer" : 0,
            "byteLength" : 432,
            "byteOffset" : 7464
        },
        {
            "buffer" : 0,
            "byteLength" : 288,
            "byteOffset" : 7896
        },
        {
            "buffer" : 0,
            "byteLength" : 432,
            "byteOffset" : 8184
        },
        {
            "buffer" : 0,
            "byteLength" : 432,
            "byteOffset" : 8616
        },
        {
            "buffer" : 0,
            "byteLength" : 288,
            "byteOffset" : 9048
        },
        {
            "buffer" : 0,
            "byteLength" : 432,
            "byteOffset" : 9336
        },
        {
            "buffer" : 0,
            "byteLength" : 432,
            "byteOffset" : 9768
        },
        {
            "buffer" : 0,
            "byteLength" : 288,
            "byteOffset" : 10200
        },
        {
            "buffer" : 0,
            "byteLength" : 432,
            "byteOffset" : 10488
        },
        {
            "buffer" : 0,
            "byteLength" : 432,
            "byteOffset" : 10920
        },
        {
            "buffer" : 0,
            "byteLength" : 288,
            "byteOffset" : 11352
        }
    ],
    "buffers" : [
        {
            "byteLength" : 11640,
            "uri" : "data:application/octet-stream;base64,"
        }
    ]
}
