<?xml version="1.0" standalone="no"?>
<!DOCTYPE svg PUBLIC "-//W3C//DTD SVG 20010904//EN"
 "http://www.w3.org/TR/2001/REC-SVG-20010904/DTD/svg10.dtd">
<svg version="1.0" xmlns="http://www.w3.org/2000/svg"
 width="700.000000pt" height="700.000000pt" viewBox="0 0 700.000000 700.000000"
 preserveAspectRatio="xMidYMid meet">
<metadata>
Created by potrace 1.14, written by Peter Selinger 2001-2017
</metadata>
<g transform="translate(0.000000,700.000000) scale(0.100000,-0.100000)"
fill="#000000" stroke="none">
<path d="M3256 6611 c-6 -10 -5 -40 9 -181 2 -25 9 -106 15 -180 5 -74 13
-168 16 -207 3 -40 2 -73 -2 -73 -15 0 -178 175 -275 295 -145 179 -228 265
-256 265 -28 0 -28 -2 -3 -98 10 -43 40 -183 65 -312 26 -129 50 -239 55 -243
22 -23 18 29 -15 200 -20 104 -40 206 -45 228 -5 21 -7 41 -4 44 6 6 94 -87
197 -209 131 -156 226 -250 251 -250 26 0 71 23 70 36 -1 5 -5 59 -9 119 -4
61 -8 124 -10 140 -2 17 -7 68 -10 115 -22 280 -31 340 -49 311z"/>
<path d="M3904 6562 c-33 -21 -359 -611 -345 -625 10 -10 32 21 92 131 27 50
38 62 54 58 11 -2 61 -10 112 -16 l91 -13 18 -114 17 -114 41 6 c23 4 45 11
51 16 6 6 3 63 -9 157 -16 129 -24 182 -51 329 -8 47 -34 159 -41 177 -7 18
-13 19 -30 8z"/>
<path d="M2508 6474 c-16 -8 -28 -21 -28 -28 0 -7 14 -79 30 -159 32 -155 35
-187 21 -187 -5 0 -64 -31 -132 -69 l-124 -68 -29 56 c-16 31 -49 101 -74 156
-24 55 -49 103 -56 107 -12 8 -72 5 -81 -4 -14 -14 255 -560 306 -620 22 -27
28 -29 47 -19 12 6 22 19 22 29 0 9 -28 72 -62 139 -38 76 -58 127 -52 132 14
14 255 144 258 140 2 -2 16 -60 31 -129 37 -168 54 -193 104 -152 l22 17 -35
150 c-19 83 -47 217 -61 299 -40 227 -48 243 -107 210z"/>
<path d="M4366 6415 c-51 -78 -127 -317 -127 -399 0 -135 103 -248 229 -250
32 -1 76 3 99 7 l43 9 -11 -32 c-10 -27 -9 -33 7 -45 29 -22 41 -18 70 21 43
56 244 436 244 461 0 17 -10 27 -37 38 -21 9 -40 12 -46 6 -4 -4 -30 -59 -57
-120 -55 -127 -113 -235 -143 -269 -28 -31 -114 -54 -172 -47 -61 7 -98 27
-132 72 -54 71 -35 178 75 403 31 63 57 118 59 122 4 7 -59 48 -75 48 -5 0
-17 -11 -26 -25z"/>
<path d="M1694 6126 c-41 -18 -103 -81 -120 -121 -28 -69 1 -196 87 -374 57
-116 115 -183 194 -221 39 -19 58 -22 113 -18 145 11 226 94 201 206 -17 79
-70 130 -104 102 -25 -20 -17 -39 25 -60 27 -14 42 -29 46 -48 3 -15 7 -33 10
-40 7 -24 -15 -59 -57 -91 -89 -65 -157 -29 -264 137 -82 128 -152 301 -162
399 -4 49 -2 55 25 83 36 36 62 38 97 7 21 -18 27 -33 29 -67 1 -38 4 -45 22
-48 33 -5 37 25 12 77 -23 46 -77 91 -107 91 -9 -1 -30 -7 -47 -14z"/>
<path d="M5220 6000 c0 -5 21 -20 47 -32 26 -12 90 -55 143 -94 130 -99 145
-112 140 -117 -3 -2 -78 -19 -167 -36 l-162 -32 -72 31 c-66 28 -89 31 -89 11
0 -4 22 -18 50 -31 27 -13 48 -25 46 -27 -2 -2 -73 -21 -157 -42 -170 -43
-209 -56 -209 -70 0 -9 472 -331 485 -331 3 0 5 6 5 14 0 8 -83 72 -185 143
-101 70 -185 131 -185 135 0 3 19 9 43 13 23 4 102 20 176 37 148 33 152 32
223 -23 21 -17 46 -29 55 -27 15 3 10 12 -25 47 -23 24 -41 45 -39 47 2 2 55
15 118 29 157 34 189 44 189 59 0 14 -61 68 -192 169 -142 110 -238 161 -238
127z"/>
<path d="M1213 5669 c-94 -47 -109 -179 -31 -274 53 -63 96 -78 233 -79 113
-1 123 -3 173 -31 67 -36 94 -74 100 -136 7 -76 -24 -111 -113 -125 -46 -7
-68 17 -61 65 7 41 0 55 -31 65 -16 5 -25 1 -37 -16 -47 -67 28 -152 126 -143
106 11 200 95 200 181 0 102 -127 173 -313 174 -63 0 -80 4 -108 24 -65 48
-131 166 -131 234 0 84 115 62 129 -24 5 -30 11 -40 27 -42 56 -8 24 88 -42
125 -49 28 -68 28 -121 2z"/>
<path d="M5718 5468 c-51 -46 -95 -85 -98 -88 -3 -3 -45 -41 -94 -85 -173
-155 -166 -144 -121 -192 20 -21 77 -89 128 -151 56 -69 95 -108 100 -103 8 8
-20 60 -43 81 -3 3 -31 37 -62 76 l-57 72 27 29 c15 16 56 53 91 82 l64 53 39
-42 c28 -29 43 -39 50 -32 7 7 -1 23 -26 49 -20 21 -36 41 -36 45 0 9 114 117
155 146 l35 25 26 -24 c27 -25 114 -151 114 -165 1 -18 29 -46 39 -39 16 9
-37 107 -107 198 -69 89 -119 147 -127 147 -2 0 -46 -37 -97 -82z"/>
<path d="M4026 5152 c-4 -7 -14 -12 -22 -12 -19 0 -237 -101 -246 -114 -4 -6
-4 -14 -2 -18 3 -4 -6 -8 -20 -8 -13 0 -31 -7 -40 -15 -8 -8 -19 -15 -25 -15
-6 0 -27 -18 -47 -40 -26 -29 -42 -39 -55 -35 -11 4 -31 -3 -49 -17 -27 -20
-31 -28 -28 -60 3 -32 0 -38 -19 -43 -13 -3 -23 -10 -23 -15 0 -6 -10 -10 -23
-10 -13 0 -32 -6 -42 -14 -19 -14 -19 -15 8 -27 41 -18 33 -29 -17 -23 -36 5
-47 3 -65 -15 -36 -36 -21 -104 29 -131 11 -6 101 -22 201 -36 100 -14 192
-30 203 -36 44 -23 146 -101 217 -164 41 -37 84 -73 96 -81 25 -17 63 -89 63
-120 0 -12 7 -23 15 -27 8 -3 15 -12 15 -21 0 -9 9 -15 23 -15 20 0 22 -4 19
-45 -3 -35 2 -55 27 -98 17 -30 31 -62 31 -71 0 -19 21 -21 38 -4 8 8 15 8 26
-1 8 -7 19 -10 23 -8 5 3 7 -22 6 -56 -4 -71 10 -104 30 -73 7 10 24 37 39 60
37 57 146 168 196 200 23 14 42 30 43 34 0 4 2 26 4 50 4 49 28 92 51 92 23 0
107 46 132 72 17 19 25 44 32 108 7 58 15 90 28 104 35 38 44 67 38 115 -3 25
-8 73 -11 106 -17 177 -34 216 -127 290 -58 46 -83 60 -146 76 -41 10 -83 26
-92 34 -9 8 -20 15 -25 15 -5 0 -17 8 -27 17 -12 10 -32 16 -53 15 -26 -2 -35
2 -40 18 -7 23 -16 25 -32 9 -8 -8 -17 -7 -34 4 -37 23 -177 51 -193 38 -9 -7
-16 -7 -23 0 -6 6 -30 10 -52 7 -22 -2 -42 1 -44 6 -2 6 -7 5 -11 -2z"/>
<path d="M2735 4236 c-6 -9 -27 -17 -50 -19 -22 -1 -45 -6 -51 -9 -6 -4 -26
-10 -45 -13 -19 -3 -37 -13 -42 -21 -4 -8 -23 -14 -41 -14 -18 0 -41 -7 -52
-15 -10 -8 -28 -15 -39 -15 -11 0 -33 -9 -50 -20 -16 -11 -42 -20 -57 -20 -15
0 -33 -7 -41 -15 -8 -8 -35 -17 -59 -21 -23 -4 -50 -12 -58 -20 -8 -7 -71 -31
-140 -54 -69 -23 -130 -50 -137 -59 -6 -10 -30 -23 -53 -30 -23 -7 -44 -19
-47 -27 -3 -8 -25 -19 -49 -25 -42 -11 -73 -33 -61 -45 3 -3 23 0 44 7 21 6
73 17 117 23 83 12 112 32 54 38 -32 3 -31 4 22 20 30 9 78 19 105 22 28 2 54
5 59 5 4 1 6 8 2 16 -4 11 2 15 22 15 15 0 35 6 44 13 9 7 36 12 60 11 24 -2
52 0 62 3 19 5 19 6 1 19 -17 12 -11 14 47 14 51 0 67 4 72 16 4 10 14 14 25
11 23 -6 53 12 34 20 -33 13 -7 22 49 16 54 -5 60 -4 55 11 -5 13 1 16 38 16
25 0 45 5 45 10 0 6 -4 10 -10 10 -5 0 -10 4 -10 8 0 5 32 7 70 5 60 -3 70 -2
70 13 0 12 6 15 26 10 22 -6 25 -4 20 10 -6 15 0 16 52 11 51 -6 62 -4 81 14
15 14 31 19 47 16 19 -3 24 -1 22 11 -4 19 -44 29 -158 38 -72 5 -87 3 -95
-10z"/>
<path d="M3263 4102 c-63 -2 -83 -6 -87 -19 -6 -13 5 -15 84 -11 49 2 93 7 97
11 15 16 -16 22 -94 19z"/>
<path d="M3266 4045 c6 -14 4 -17 -9 -12 -18 7 -34 -10 -21 -23 5 -5 41 -11
79 -14 69 -6 70 -6 82 20 7 15 11 29 10 31 -2 1 -36 6 -75 9 -67 6 -72 6 -66
-11z"/>
<path d="M2844 4040 c-49 -19 -40 -36 28 -50 30 -6 11 -7 -59 -3 -88 5 -103 4
-103 -9 0 -16 28 -28 70 -28 14 0 31 -4 37 -8 7 -5 -24 -8 -70 -7 -45 1 -98
-3 -117 -8 -19 -5 -45 -9 -57 -10 -12 -1 -24 -5 -28 -9 -16 -15 37 -26 135
-27 58 -1 151 -4 207 -7 102 -6 103 -6 112 19 9 23 14 24 81 23 40 0 76 2 82
5 18 11 -10 48 -45 58 l-32 10 29 -2 c33 -2 47 18 19 27 -10 2 -63 10 -118 16
-55 6 -111 13 -125 15 -14 2 -35 0 -46 -5z"/>
<path d="M2484 3853 c-7 -7 -24 -13 -39 -13 -16 0 -39 -13 -62 -35 -21 -20
-46 -35 -60 -35 -17 0 -23 -5 -21 -17 2 -11 -5 -19 -17 -21 -11 -2 -28 -13
-38 -23 -11 -12 -31 -19 -57 -19 -21 0 -45 -7 -53 -15 -8 -7 -28 -17 -43 -21
-16 -4 -34 -10 -39 -15 -6 -4 -25 -11 -43 -14 -18 -3 -41 -9 -50 -14 -9 -5
-30 -14 -45 -20 -29 -11 -28 -30 1 -32 9 -1 1 -4 -18 -8 -27 -5 -38 -13 -49
-38 -8 -18 -20 -33 -27 -33 -6 0 -22 -9 -35 -20 -13 -11 -50 -27 -81 -36 -34
-10 -58 -22 -58 -30 0 -17 -6 -17 122 -3 62 6 107 16 113 24 6 7 26 15 44 18
29 5 60 30 61 50 0 4 9 7 20 7 12 0 20 7 20 16 0 13 -9 15 -45 12 -72 -5 -52
9 23 16 86 9 102 14 102 32 0 8 3 13 8 13 25 -4 52 3 50 13 -2 6 6 13 17 15
11 2 29 8 40 14 11 5 36 11 55 13 19 2 38 4 43 5 15 2 6 21 -10 22 -10 1 1 5
25 11 31 7 42 13 38 24 -3 8 -2 15 2 15 4 1 20 3 36 5 16 2 34 8 40 14 5 5 35
10 65 10 68 0 58 16 -19 29 -51 8 -48 9 52 10 63 1 109 5 113 12 4 6 35 9 75
7 64 -2 91 4 78 18 -3 3 -15 6 -27 7 -38 3 -22 17 20 17 28 0 39 4 36 13 -6
18 -344 18 -363 0z m-481 -290 c-7 -2 -19 -2 -25 0 -7 3 -2 5 12 5 14 0 19 -2
13 -5z"/>
<path d="M1729 3786 c-87 -26 -99 -32 -99 -51 0 -8 -30 -29 -67 -47 -38 -18
-71 -37 -74 -42 -4 -5 -28 -20 -55 -35 -90 -49 -58 -68 51 -30 33 11 65 27 72
35 6 9 30 18 52 21 41 6 59 32 24 34 -10 0 7 7 37 15 30 8 62 23 71 34 9 10
27 20 40 22 13 1 24 10 24 18 0 8 11 17 24 20 14 3 24 10 23 15 -3 18 -45 15
-123 -9z"/>
<path d="M3957 3763 c-64 -44 -66 -47 -51 -64 15 -17 15 -19 0 -25 -17 -7 -22
-34 -6 -34 6 0 28 13 51 29 22 17 56 35 75 41 19 7 33 17 31 23 -3 7 -9 11
-15 10 -8 -2 -9 5 -2 23 22 58 7 58 -83 -3z"/>
<path d="M3635 3710 c-60 -15 -135 -38 -165 -49 -30 -12 -84 -24 -120 -26 -46
-3 -55 -2 -30 3 45 10 60 19 60 38 0 8 -10 14 -24 14 -13 0 -26 5 -28 12 -9
25 -155 9 -208 -23 -25 -16 -30 -23 -20 -29 8 -5 24 -3 40 5 37 19 154 39 145
24 -4 -5 -12 -9 -18 -9 -7 0 -23 -9 -37 -20 l-25 -19 25 -10 c22 -9 23 -10 4
-10 -39 -2 -71 -59 -43 -77 6 -3 49 2 95 12 66 14 84 22 84 36 0 24 17 32 28
12 8 -14 17 -13 96 8 69 18 90 27 96 44 10 25 29 34 72 34 l29 0 -36 -35 c-20
-19 -34 -39 -30 -45 8 -13 56 -11 120 4 39 9 49 16 47 29 -2 12 7 21 28 28 17
7 29 16 25 23 -3 6 -8 19 -11 28 -4 13 -13 16 -29 12 -13 -3 -26 -1 -29 5 -9
14 -12 14 -141 -19z"/>
<path d="M2863 3604 c-219 -52 -478 -139 -495 -167 -13 -21 25 -25 57 -6 34
20 272 99 295 98 9 0 7 -4 -7 -11 -13 -6 -23 -15 -23 -20 0 -18 29 -19 54 -3
24 16 26 16 26 1 0 -22 24 -20 109 9 40 13 99 30 133 36 45 9 62 17 68 33 11
30 3 37 -38 31 l-37 -5 38 12 c22 7 35 16 31 21 -13 13 -66 6 -211 -29z m-96
-70 c-3 -3 -12 -4 -19 -1 -8 3 -5 6 6 6 11 1 17 -2 13 -5z"/>
<path d="M5130 3585 c0 -8 4 -15 8 -15 9 0 58 -72 85 -125 9 -16 27 -39 41
-49 14 -10 26 -23 26 -27 0 -5 21 -31 48 -57 26 -27 58 -63 70 -81 32 -43 111
-96 124 -83 6 6 -2 19 -26 38 -20 16 -36 34 -36 40 0 6 -10 22 -22 36 -75 85
-114 132 -120 147 -3 10 -28 37 -55 61 -26 24 -39 40 -28 35 30 -11 39 -11 45
0 4 9 -134 95 -152 95 -5 0 -8 -7 -8 -15z"/>
<path d="M4795 3570 c-3 -5 3 -15 15 -22 11 -7 20 -18 20 -25 0 -7 25 -37 56
-68 31 -30 65 -72 76 -92 11 -21 27 -51 35 -66 8 -15 33 -40 54 -54 41 -27 53
-41 20 -23 -29 15 -32 13 -27 -27 3 -21 13 -43 23 -51 53 -38 146 -119 154
-134 10 -18 110 -89 142 -101 37 -14 14 29 -39 73 -82 67 -84 69 -84 96 0 15
-7 27 -17 30 -38 13 -143 63 -143 69 0 3 17 -3 38 -14 67 -34 82 -35 82 -9 0
29 -9 42 -37 57 -13 6 -23 18 -23 26 0 8 -8 20 -18 27 -28 20 -35 37 -21 54
14 18 2 30 -76 81 -22 14 -51 37 -65 52 -14 14 -36 34 -50 44 -20 14 -16 13
17 -3 50 -24 53 -24 53 -5 0 8 -34 32 -80 55 -85 42 -95 46 -105 30z"/>
<path d="M2956 3509 c-72 -21 -133 -45 -138 -52 -5 -7 0 -17 12 -26 19 -13 19
-15 4 -26 -35 -25 -5 -33 59 -15 35 10 83 20 107 24 24 3 46 8 49 11 8 9 -22
25 -37 20 -7 -3 -10 0 -7 5 3 6 15 10 26 10 11 0 19 7 19 16 0 14 -7 16 -37
11 -52 -8 -21 7 45 23 29 7 51 17 49 23 -6 19 -19 17 -151 -24z m1 -35 c-3 -3
-12 -4 -19 -1 -8 3 -5 6 6 6 11 1 17 -2 13 -5z"/>
<path d="M4175 3391 c-5 -5 -69 -64 -141 -132 -139 -131 -145 -135 -379 -294
-188 -128 -376 -240 -575 -343 -85 -45 -156 -86 -159 -93 -9 -29 79 5 244 95
97 53 178 96 182 96 3 0 26 15 52 33 58 42 274 167 288 167 6 0 31 11 54 25
71 40 194 75 273 77 119 3 157 -7 253 -71 129 -85 186 -148 247 -271 34 -67
53 -90 78 -90 36 0 30 30 -21 105 -68 101 -97 161 -181 372 -66 164 -138 308
-164 325 -14 10 -38 9 -51 -1z"/>
<path d="M1520 3300 c-151 -43 -367 -104 -480 -135 -381 -105 -783 -235 -837
-271 -47 -30 -10 -36 63 -8 131 49 560 183 764 239 113 31 324 90 470 132 146
42 278 76 293 75 31 -1 49 25 26 39 -17 11 23 20 -299 -71z"/>
<path d="M2175 3275 c-115 -30 -266 -69 -335 -85 -289 -70 -772 -250 -1063
-396 -140 -71 -187 -101 -187 -121 0 -20 6 -17 110 41 155 88 318 160 625 274
261 97 329 119 565 177 124 31 281 71 350 90 69 18 144 37 168 42 24 4 44 13
45 18 5 24 -82 11 -278 -40z"/>
<path d="M1365 3190 c-454 -126 -835 -266 -1130 -414 -99 -50 -125 -67 -125
-85 0 -18 10 -14 131 48 196 102 447 202 769 307 150 49 392 119 480 138 111
25 125 30 125 46 0 25 -34 20 -250 -40z"/>
<path d="M3056 3218 c-44 -16 -85 -37 -93 -47 -7 -10 -24 -22 -38 -25 -14 -4
-25 -13 -25 -20 0 -8 -17 -22 -37 -31 -21 -10 -56 -34 -78 -54 -33 -29 -40
-32 -43 -18 -5 25 -26 22 -153 -27 -89 -33 -128 -43 -171 -42 -44 0 -55 3 -50
15 4 11 -2 13 -34 8 l-39 -6 49 25 c35 18 45 29 38 36 -8 8 -35 1 -94 -26
-112 -50 -128 -62 -128 -91 0 -23 3 -25 28 -19 57 14 5 -14 -78 -41 -225 -73
-536 -203 -650 -271 -25 -15 -40 -22 -35 -16 15 16 178 112 191 112 18 0 47
37 35 45 -34 20 -326 -164 -666 -420 -241 -181 -425 -344 -425 -376 0 -27 10
-24 52 16 55 52 54 43 -2 -29 -27 -35 -50 -69 -50 -75 0 -29 34 -5 87 61 132
165 255 287 372 366 184 127 643 392 678 392 4 0 93 34 197 75 104 42 190 74
192 73 1 -2 -52 -36 -119 -76 -271 -161 -610 -446 -799 -672 -110 -131 -192
-257 -288 -442 -68 -132 -79 -159 -65 -164 9 -4 17 -5 19 -3 1 2 40 76 85 163
128 247 223 378 406 561 207 209 453 400 720 562 81 49 154 85 175 85 14 0 45
8 70 18 25 9 58 20 74 24 46 11 18 -15 -53 -48 -55 -27 -59 -31 -59 -62 0 -34
14 -44 34 -24 5 5 38 20 74 34 60 23 63 27 21 38 -8 2 14 15 50 28 35 13 69
30 74 37 6 7 28 16 49 20 22 3 60 19 85 34 26 15 58 30 72 33 21 5 7 -14 -70
-92 -326 -329 -544 -723 -565 -1022 -3 -41 -8 -111 -11 -155 -3 -44 -8 -87
-11 -97 -6 -21 10 -32 24 -15 11 14 19 65 27 192 13 195 25 243 114 444 138
310 471 710 658 787 20 9 42 22 50 30 8 8 23 14 33 14 29 0 50 11 50 26 0 8 6
14 14 14 7 0 25 11 40 25 15 14 33 25 41 25 20 0 30 21 14 31 -11 7 -9 9 7 9
11 0 29 7 40 15 18 13 16 14 -21 15 -34 1 -37 3 -17 10 22 9 29 25 15 33 -5 3
-44 -8 -87 -25z m-726 -432 c0 -2 -7 -7 -16 -10 -8 -3 -12 -2 -9 4 6 10 25 14
25 6z"/>
<path d="M1963 3157 c-56 -18 -108 -40 -115 -49 -7 -9 -110 -52 -228 -96 -118
-44 -262 -100 -320 -125 -204 -87 -666 -298 -746 -342 -111 -59 -224 -134
-231 -151 -3 -7 -32 -23 -64 -35 -36 -13 -59 -28 -59 -36 0 -36 137 22 420
177 192 104 320 162 530 236 228 81 509 174 524 174 15 0 -37 -36 -93 -65 -72
-36 -131 -93 -111 -105 21 -13 18 -14 112 30 84 39 117 64 104 77 -6 7 120 72
141 73 7 0 35 5 63 11 43 9 49 13 39 25 -7 8 -19 12 -28 9 -8 -3 -12 -2 -7 2
4 4 28 15 54 24 44 15 69 39 40 39 -8 0 -48 -11 -88 -25 -133 -45 -109 -22 36
35 43 17 86 39 94 48 12 15 96 48 168 68 7 2 10 9 6 15 -6 11 -52 8 -102 -7
-16 -4 -22 -3 -20 6 5 21 -13 19 -119 -13z"/>
<path d="M2677 3108 c-57 -20 -207 -106 -207 -118 0 -17 20 -21 42 -8 13 6 59
24 103 38 63 21 80 31 80 46 0 15 10 21 48 28 28 6 47 15 47 23 0 18 -48 14
-113 -9z"/>
<path d="M4930 2941 c0 -5 31 -60 70 -121 93 -150 112 -203 115 -315 2 -49 -1
-115 -6 -145 -4 -30 -11 -77 -14 -103 -4 -27 -11 -47 -16 -45 -14 5 -219 290
-219 305 0 7 -7 13 -15 13 -8 0 -15 -8 -15 -19 0 -21 33 -71 157 -239 46 -62
82 -121 81 -130 -2 -11 5 -18 19 -20 31 -5 165 -191 385 -537 101 -160 204
-323 229 -362 24 -40 50 -73 57 -73 28 0 12 33 -105 213 -47 73 -127 197 -176
277 -120 194 -195 305 -285 423 l-75 98 19 132 c28 210 19 320 -37 430 -62
120 -169 259 -169 218z"/>
<path d="M5495 2850 c-16 -26 171 -157 384 -268 440 -229 650 -357 881 -540
94 -75 122 -87 107 -48 -7 18 -203 170 -328 253 -174 117 -303 191 -634 363
-158 83 -281 157 -340 204 -54 44 -63 48 -70 36z"/>
<path d="M5290 2826 c0 -34 123 -117 661 -449 441 -271 657 -426 839 -604 66
-64 75 -70 78 -51 3 17 -11 36 -55 76 -267 246 -399 338 -1093 762 -211 129
-282 175 -361 237 -60 47 -69 50 -69 29z"/>
<path d="M2706 2695 c-37 -38 -119 -250 -150 -393 -25 -113 -31 -176 -31 -327
1 -172 28 -283 64 -260 5 3 1 36 -11 77 -58 204 6 611 133 845 16 29 29 58 29
63 0 15 -16 12 -34 -5z"/>
<path d="M5282 2665 c2 -11 53 -43 128 -82 403 -208 1001 -639 1355 -976 85
-81 101 -92 103 -74 4 22 1 25 -202 212 -313 287 -921 712 -1261 882 -106 53
-128 60 -123 38z"/>
<path d="M5247 2603 c-4 -3 -7 -9 -7 -12 0 -14 84 -93 229 -217 161 -136 483
-435 476 -442 -4 -4 -434 253 -515 308 -49 33 -70 38 -70 16 0 -17 66 -59 415
-269 143 -85 274 -166 291 -179 17 -13 129 -118 250 -234 233 -225 450 -421
495 -448 59 -35 35 6 -48 81 -202 182 -305 278 -428 397 -153 149 -166 153
234 -73 157 -89 289 -161 294 -161 4 0 7 8 5 17 -4 19 -10 23 -398 241 -162
90 -314 176 -336 191 -23 14 -124 106 -225 203 -209 200 -187 181 -414 375
-93 81 -185 161 -202 180 -36 36 -36 36 -46 26z"/>
<path d="M5195 1285 c19 -35 37 -81 41 -102 9 -49 -9 -116 -45 -165 -30 -40
-98 -97 -117 -98 -6 0 -28 39 -49 88 -75 173 -89 202 -97 202 -5 0 -24 -6 -43
-14 l-34 -14 58 -129 c32 -70 84 -193 115 -273 98 -250 100 -255 122 -258 11
-2 27 5 37 15 15 17 12 28 -43 173 -33 85 -59 160 -60 165 0 6 21 24 48 42 55
36 61 34 128 -33 61 -62 98 -119 124 -191 12 -35 27 -63 33 -63 12 0 87 50 87
57 0 12 -117 183 -155 229 -24 27 -61 58 -84 68 l-40 19 20 39 c40 78 29 183
-29 271 -42 64 -54 44 -17 -28z"/>
<path d="M2368 1233 c-21 -25 -324 -512 -339 -547 -12 -26 -11 -30 15 -53 16
-13 36 -23 45 -21 9 2 60 69 114 150 l97 148 35 -20 c42 -23 55 -25 55 -7 0 7
-16 21 -35 30 l-35 17 51 82 c29 46 63 100 76 121 l23 37 104 -55 c57 -30 111
-55 120 -55 35 0 12 22 -65 60 -44 23 -112 61 -152 85 -80 50 -88 52 -109 28z"/>
<path d="M4555 1038 c-88 -32 -164 -63 -169 -68 -12 -12 3 -33 17 -22 19 14
108 45 113 39 18 -17 142 -420 168 -544 16 -73 17 -70 -73 -104 -58 -22 -82
-41 -68 -55 12 -12 417 178 417 196 0 16 -12 12 -91 -24 -41 -19 -75 -34 -75
-33 -1 1 -43 132 -93 290 -51 158 -94 294 -98 302 -3 8 0 15 6 15 27 0 121 43
121 56 0 18 9 21 -175 -48z"/>
<path d="M3005 960 c-44 -17 -525 -483 -525 -508 0 -25 29 -10 78 42 28 30 62
63 76 74 l26 20 142 -45 c79 -25 148 -51 154 -59 6 -7 19 -60 29 -116 10 -57
20 -108 22 -115 5 -11 94 -36 102 -28 2 3 -1 44 -8 92 -7 49 -13 102 -15 118
-10 88 -18 153 -21 180 -9 71 -15 124 -20 185 -6 74 -16 164 -18 166 -1 1 -11
-2 -22 -6z"/>
<path d="M3307 933 c-3 -5 -8 -69 -11 -143 -4 -74 -9 -153 -11 -175 -6 -54
-16 -222 -20 -318 -3 -76 -2 -78 23 -89 15 -6 80 -10 146 -9 136 1 179 15 239
75 78 78 52 211 -48 247 l-34 13 44 40 c91 86 82 246 -17 306 -53 32 -299 74
-311 53z"/>
<path d="M3995 898 c-33 -4 -65 -14 -71 -23 -8 -10 -6 -44 7 -122 9 -59 20
-133 23 -163 3 -30 8 -73 11 -95 11 -97 14 -127 21 -211 3 -49 11 -97 16 -106
10 -20 52 -24 91 -9 l23 9 -19 156 c-11 86 -17 159 -14 163 3 3 39 5 79 5 81
1 127 -16 153 -55 19 -30 51 -158 54 -219 1 -13 9 -18 30 -18 50 0 57 27 37
132 -20 103 -38 140 -92 187 -44 38 -46 42 -31 59 26 28 47 88 47 132 0 69
-32 124 -94 164 -33 21 -169 28 -271 14z"/>
</g>
</svg>
