<?xml version="1.0" encoding="utf-8"?>
<!-- Generator: Adobe Illustrator 27.0.0, SVG Export Plug-In . SVG Version: 6.00 Build 0)  -->
<svg version="1.1" id="Layer_1" xmlns="http://www.w3.org/2000/svg" xmlns:xlink="http://www.w3.org/1999/xlink" x="0px" y="0px"
	 width="595.3px" height="841.9px" viewBox="0 0 595.3 841.9" style="enable-background:new 0 0 595.3 841.9;" xml:space="preserve"
	>
<style type="text/css">
	.st0{fill:#828282;}
	.st1{fill:#C4C4C4;}
	.st2{fill:none;stroke:#020202;stroke-width:3;stroke-linecap:round;stroke-linejoin:round;}
	.st3{fill:none;stroke:#020202;stroke-width:3;stroke-linecap:round;stroke-linejoin:round;stroke-dasharray:12.8236,8.5491;}
	
		.st4{fill:none;stroke:#020202;stroke-width:3;stroke-linecap:round;stroke-linejoin:round;stroke-dasharray:12.8236,8.5491,12.8236,8.5491;}
	.st5{fill:none;stroke:#020202;stroke-width:3;stroke-linecap:round;stroke-linejoin:round;stroke-dasharray:12.8171,8.5447;}
	
		.st6{fill:none;stroke:#020202;stroke-width:3;stroke-linecap:round;stroke-linejoin:round;stroke-dasharray:12.8171,8.5447,12.8171,8.5447;}
	.st7{fill:none;stroke:#020202;stroke-width:3;stroke-linecap:round;stroke-linejoin:round;stroke-dasharray:11.2006,7.4671;}
	
		.st8{fill:none;stroke:#020202;stroke-width:3;stroke-linecap:round;stroke-linejoin:round;stroke-dasharray:11.2006,7.4671,11.2006,7.4671;}
	.st9{fill:none;stroke:#020202;stroke-width:3;stroke-linecap:round;stroke-linejoin:round;stroke-dasharray:11.198,7.4654;}
	
		.st10{fill:none;stroke:#020202;stroke-width:3;stroke-linecap:round;stroke-linejoin:round;stroke-dasharray:11.198,7.4654,11.198,7.4654;}
	.st11{fill:none;stroke:#020202;stroke-width:3;stroke-linecap:round;stroke-linejoin:round;stroke-dasharray:11.1992,7.4661;}
	
		.st12{fill:none;stroke:#020202;stroke-width:3;stroke-linecap:round;stroke-linejoin:round;stroke-dasharray:11.1992,7.4661,11.1992,7.4661;}
	.st13{fill:none;stroke:#020202;stroke-width:3;stroke-linecap:round;stroke-linejoin:round;stroke-dasharray:11.1984,7.4656;}
	
		.st14{fill:none;stroke:#020202;stroke-width:3;stroke-linecap:round;stroke-linejoin:round;stroke-dasharray:11.1984,7.4656,11.1984,7.4656;}
	.st15{fill:none;stroke:#020202;stroke-width:3;stroke-linecap:round;stroke-linejoin:round;stroke-dasharray:8.7481,5.8321;}
	
		.st16{fill:none;stroke:#020202;stroke-width:3;stroke-linecap:round;stroke-linejoin:round;stroke-dasharray:8.7481,5.8321,8.7481,5.8321;}
	.st17{fill:none;stroke:#020202;stroke-width:3;stroke-linecap:round;stroke-linejoin:round;stroke-dasharray:12.8143,8.5428;}
	
		.st18{fill:none;stroke:#020202;stroke-width:3;stroke-linecap:round;stroke-linejoin:round;stroke-dasharray:12.8143,8.5428,12.8143,8.5428;}
	.st19{fill:none;stroke:#020202;stroke-width:3;stroke-linecap:round;stroke-linejoin:round;stroke-dasharray:8.7575,5.8383;}
	
		.st20{fill:none;stroke:#020202;stroke-width:3;stroke-linecap:round;stroke-linejoin:round;stroke-dasharray:8.7575,5.8383,8.7575,5.8383;}
	.st21{fill:none;stroke:#020202;stroke-width:3;stroke-linecap:round;stroke-linejoin:round;stroke-dasharray:12.8123,8.5415;}
	
		.st22{fill:none;stroke:#020202;stroke-width:3;stroke-linecap:round;stroke-linejoin:round;stroke-dasharray:12.8123,8.5415,12.8123,8.5415;}
	.st23{fill:none;stroke:#020202;stroke-width:3;stroke-linecap:round;stroke-linejoin:round;stroke-dasharray:8.7529,5.8353;}
	
		.st24{fill:none;stroke:#020202;stroke-width:3;stroke-linecap:round;stroke-linejoin:round;stroke-dasharray:8.7529,5.8353,8.7529,5.8353;}
	.st25{fill:none;stroke:#020202;stroke-width:3;stroke-linecap:round;stroke-linejoin:round;stroke-dasharray:12.8108,8.5405;}
	
		.st26{fill:none;stroke:#020202;stroke-width:3;stroke-linecap:round;stroke-linejoin:round;stroke-dasharray:12.8108,8.5405,12.8108,8.5405;}
	.st27{fill:none;stroke:#020202;stroke-width:3;stroke-linecap:round;stroke-linejoin:round;stroke-dasharray:12.8216,8.5477;}
	
		.st28{fill:none;stroke:#020202;stroke-width:3;stroke-linecap:round;stroke-linejoin:round;stroke-dasharray:12.8216,8.5477,12.8216,8.5477;}
	.st29{fill:none;stroke:#020202;stroke-width:3;stroke-linecap:round;stroke-linejoin:round;stroke-dasharray:8.7477,5.8318;}
	
		.st30{fill:none;stroke:#020202;stroke-width:3;stroke-linecap:round;stroke-linejoin:round;stroke-dasharray:8.7477,5.8318,8.7477,5.8318;}
	.st31{fill:none;stroke:#020202;stroke-width:3;stroke-linecap:round;stroke-linejoin:round;stroke-dasharray:12.8139,8.5426;}
	
		.st32{fill:none;stroke:#020202;stroke-width:3;stroke-linecap:round;stroke-linejoin:round;stroke-dasharray:12.8139,8.5426,12.8139,8.5426;}
</style>
<g id="glue">
	<polygon class="st0" points="63.8,362.6 42.3,410.9 111.3,505.7 163.9,500.1 	"/>
	<polygon class="st0" points="108.2,145.6 56.4,156.2 19.4,267.5 54.6,307 	"/>
	<polygon class="st0" points="309.4,55.1 270.4,19.4 158.6,54.7 147.2,106.4 	"/>
	<polygon class="st0" points="541.4,306.5 577.1,267.5 541.8,155.7 490.1,144.3 	"/>
	<polygon class="st0" points="433.6,500.3 486.1,505.9 555,411 533.5,362.7 	"/>
	<polygon class="st1" points="129.6,673.2 182.5,673.3 241.2,571.9 214.8,526 	"/>
	<polygon class="st1" points="214.1,820.8 240.8,775.1 182.6,673.4 129.7,673.2 	"/>
	<polygon class="st1" points="384.7,818.9 357.9,773.3 240.7,774.1 214.6,820.1 	"/>
	<polygon class="st1" points="468.8,673.5 415.9,673.4 357,774.7 383.4,820.6 	"/>
	<polygon class="st1" points="468.8,673.5 415.9,673.4 357,774.7 383.4,820.6 	"/>
	<polygon class="st1" points="383,527.2 356.8,573.2 416.1,674.4 469,674 	"/>
</g>
<g id="fold">
	<g id="Ridge_Fold_Line">
		<g>
			<line class="st2" x1="213.7" y1="463.9" x2="210.2" y2="459"/>
			<line class="st3" x1="205.1" y1="452.1" x2="195.1" y2="438.3"/>
			<line class="st4" x1="192.6" y1="434.9" x2="119.6" y2="334.6"/>
			<line class="st2" x1="117.1" y1="331.2" x2="113.6" y2="326.3"/>
		</g>
	</g>
	<g id="Ridge_Fold_Line_00000127745104705581167500000007019659284181612181_">
		<g>
			<line class="st2" x1="63.8" y1="362.6" x2="67.3" y2="367.5"/>
			<line class="st5" x1="72.4" y1="374.4" x2="82.4" y2="388.2"/>
			<line class="st6" x1="84.9" y1="391.6" x2="157.9" y2="491.8"/>
			<line class="st2" x1="160.4" y1="495.2" x2="163.9" y2="500.1"/>
		</g>
	</g>
	<g id="Ridge_Fold_Line_00000118381111832937235640000013710034807653911956_">
		<g>
			<line class="st2" x1="213.7" y1="463.9" x2="216.4" y2="458.6"/>
			<line class="st7" x1="219.8" y1="451.9" x2="226.6" y2="438.6"/>
			<line class="st8" x1="228.3" y1="435.3" x2="294.3" y2="305.5"/>
			<line class="st2" x1="296" y1="302.1" x2="298.7" y2="296.8"/>
		</g>
	</g>
	<g id="Ridge_Fold_Line_00000137119535009743591210000017594918981519338646_">
		<g>
			<line class="st2" x1="113.6" y1="326.3" x2="119.5" y2="325.4"/>
			<line class="st9" x1="126.9" y1="324.2" x2="141.6" y2="321.8"/>
			<line class="st10" x1="145.3" y1="321.2" x2="289.1" y2="298.3"/>
			<line class="st2" x1="292.8" y1="297.7" x2="298.7" y2="296.8"/>
		</g>
	</g>
	<g id="Ridge_Fold_Line_00000102513023996051724050000011462762108812287647_">
		<g>
			<line class="st2" x1="165.9" y1="164.5" x2="170.2" y2="168.7"/>
			<line class="st11" x1="175.4" y1="174" x2="186" y2="184.5"/>
			<line class="st12" x1="188.7" y1="187.2" x2="291.8" y2="289.9"/>
			<line class="st2" x1="294.4" y1="292.6" x2="298.7" y2="296.8"/>
		</g>
	</g>
	<g id="Ridge_Fold_Line_00000127046164782215154220000003662622608514658485_">
		<g>
			<line class="st2" x1="298.7" y1="296.8" x2="299.6" y2="290.9"/>
			<line class="st13" x1="300.8" y1="283.5" x2="303.1" y2="268.7"/>
			<line class="st14" x1="303.7" y1="265.1" x2="326.1" y2="121.2"/>
			<line class="st2" x1="326.7" y1="117.5" x2="327.6" y2="111.6"/>
		</g>
	</g>
	<g id="Ridge_Fold_Line_00000004517156477642897330000015321236003150037640_">
		<g>
			<line class="st2" x1="55" y1="307.4" x2="60.7" y2="309.2"/>
			<line class="st15" x1="66.3" y1="311" x2="77.4" y2="314.6"/>
			<line class="st16" x1="80.1" y1="315.5" x2="105.1" y2="323.6"/>
			<line class="st2" x1="107.9" y1="324.5" x2="113.6" y2="326.3"/>
		</g>
	</g>
	<g id="Ridge_Fold_Line_00000164485533754728772340000016331826370364028071_">
		<g>
			<line class="st2" x1="113.6" y1="326.3" x2="115.4" y2="320.6"/>
			<line class="st17" x1="118.1" y1="312.5" x2="123.3" y2="296.2"/>
			<line class="st18" x1="124.6" y1="292.1" x2="162.7" y2="174.3"/>
			<line class="st2" x1="164.1" y1="170.2" x2="165.9" y2="164.5"/>
		</g>
	</g>
	<g id="Ridge_Fold_Line_00000096775607908991635040000012385442923156916659_">
		<g>
			<line class="st2" x1="165.9" y1="164.5" x2="160.2" y2="162.7"/>
			<line class="st15" x1="154.6" y1="160.9" x2="143.5" y2="157.3"/>
			<line class="st16" x1="140.8" y1="156.4" x2="115.8" y2="148.3"/>
			<line class="st2" x1="113" y1="147.4" x2="107.3" y2="145.6"/>
		</g>
	</g>
	<g id="Ridge_Fold_Line_00000001643940663476764090000000148474571261341335_">
		<g>
			<line class="st2" x1="107.3" y1="145.6" x2="105.5" y2="151.3"/>
			<line class="st17" x1="102.8" y1="159.4" x2="97.6" y2="175.7"/>
			<line class="st18" x1="96.3" y1="179.8" x2="58.2" y2="297.6"/>
			<line class="st2" x1="56.8" y1="301.7" x2="55" y2="307.4"/>
		</g>
	</g>
	<g id="Ridge_Fold_Line_00000010285079538242461470000003992909568927874480_">
		<g>
			<line class="st2" x1="383.7" y1="463.9" x2="381" y2="458.6"/>
			<line class="st7" x1="377.6" y1="451.9" x2="370.8" y2="438.6"/>
			<line class="st8" x1="369.1" y1="435.3" x2="303.1" y2="305.5"/>
			<line class="st2" x1="301.4" y1="302.1" x2="298.7" y2="296.8"/>
		</g>
	</g>
	<g id="Ridge_Fold_Line_00000161598506251797399180000007685651710986879628_">
		<g>
			<line class="st2" x1="483.8" y1="326.3" x2="477.9" y2="325.4"/>
			<line class="st9" x1="470.5" y1="324.2" x2="455.8" y2="321.8"/>
			<line class="st10" x1="452.1" y1="321.2" x2="308.3" y2="298.3"/>
			<line class="st2" x1="304.6" y1="297.7" x2="298.7" y2="296.8"/>
		</g>
	</g>
	<g id="Ridge_Fold_Line_00000013190316654831684870000000329427936887619481_">
		<g>
			<line class="st2" x1="431.5" y1="164.5" x2="433.3" y2="170.2"/>
			<line class="st17" x1="436" y1="178.3" x2="441.2" y2="194.6"/>
			<line class="st18" x1="442.5" y1="198.7" x2="480.6" y2="316.5"/>
			<line class="st2" x1="482" y1="320.6" x2="483.8" y2="326.3"/>
		</g>
	</g>
	<g id="Ridge_Fold_Line_00000161627232657428367760000014449755585790259087_">
		<g>
			<line class="st2" x1="542.4" y1="307.4" x2="540.6" y2="301.7"/>
			<line class="st17" x1="537.9" y1="293.6" x2="532.7" y2="277.3"/>
			<line class="st18" x1="531.4" y1="273.2" x2="493.3" y2="155.4"/>
			<line class="st2" x1="491.9" y1="151.3" x2="490.1" y2="145.6"/>
		</g>
	</g>
	<g id="Ridge_Fold_Line_00000142157887609128971610000001434674859848359559_">
		<g>
			<line class="st2" x1="533.6" y1="362.6" x2="528.8" y2="359.1"/>
			<line class="st19" x1="524" y1="355.6" x2="514.6" y2="348.7"/>
			<line class="st20" x1="512.2" y1="347" x2="491" y2="331.6"/>
			<line class="st2" x1="488.6" y1="329.8" x2="483.8" y2="326.3"/>
		</g>
	</g>
	<g id="Ridge_Fold_Line_00000181780335997187632060000008261391184721156527_">
		<g>
			<line class="st2" x1="483.8" y1="326.3" x2="480.3" y2="331.2"/>
			<line class="st3" x1="475.2" y1="338.1" x2="465.2" y2="351.9"/>
			<line class="st4" x1="462.7" y1="355.3" x2="389.7" y2="455.6"/>
			<line class="st2" x1="387.2" y1="459" x2="383.7" y2="463.9"/>
		</g>
	</g>
	<g id="Ridge_Fold_Line_00000023969660427010189450000001267137134993039287_">
		<g>
			<line class="st2" x1="433.6" y1="500.1" x2="437.1" y2="495.2"/>
			<line class="st21" x1="442.2" y1="488.3" x2="452.2" y2="474.5"/>
			<line class="st22" x1="454.7" y1="471.1" x2="527.6" y2="370.9"/>
			<line class="st2" x1="530.1" y1="367.5" x2="533.6" y2="362.6"/>
		</g>
	</g>
	<g id="Ridge_Fold_Line_00000008134583077125154840000013174972076602310591_">
		<g>
			<line class="st2" x1="383.7" y1="525.5" x2="383.7" y2="519.5"/>
			<line class="st23" x1="383.7" y1="513.7" x2="383.7" y2="502"/>
			<line class="st24" x1="383.7" y1="499.1" x2="383.7" y2="472.8"/>
			<line class="st2" x1="383.7" y1="469.9" x2="383.7" y2="463.9"/>
		</g>
	</g>
	<g id="Ridge_Fold_Line_00000121960951335419145910000000110348377730999699_">
		<g>
			<line class="st2" x1="383.7" y1="463.9" x2="377.7" y2="463.9"/>
			<line class="st25" x1="369.2" y1="463.9" x2="352.1" y2="463.9"/>
			<line class="st26" x1="347.8" y1="463.9" x2="224" y2="463.9"/>
			<line class="st2" x1="219.7" y1="463.9" x2="213.7" y2="463.9"/>
		</g>
	</g>
	<g id="Ridge_Fold_Line_00000085249035993530624990000002321521326257159047_">
		<g>
			<line class="st2" x1="213.7" y1="463.9" x2="213.7" y2="469.9"/>
			<line class="st23" x1="213.7" y1="475.7" x2="213.7" y2="487.4"/>
			<line class="st24" x1="213.7" y1="490.3" x2="213.7" y2="516.6"/>
			<line class="st2" x1="213.7" y1="519.5" x2="213.7" y2="525.5"/>
		</g>
	</g>
	<g id="Ridge_Fold_Line_00000153692809670761841810000010964677317096468617_">
		<g>
			<line class="st2" x1="213.7" y1="525.5" x2="219.7" y2="525.5"/>
			<line class="st25" x1="228.2" y1="525.5" x2="245.3" y2="525.5"/>
			<line class="st26" x1="249.6" y1="525.5" x2="373.4" y2="525.5"/>
			<line class="st2" x1="377.7" y1="525.5" x2="383.7" y2="525.5"/>
		</g>
	</g>
	<g id="Ridge_Fold_Line_00000129901520349165091330000000745433491812643718_">
		<g>
			<line class="st2" x1="165.9" y1="164.5" x2="171.6" y2="162.6"/>
			<line class="st27" x1="179.7" y1="160" x2="196" y2="154.7"/>
			<line class="st28" x1="200" y1="153.3" x2="317.8" y2="114.8"/>
			<line class="st2" x1="321.9" y1="113.5" x2="327.6" y2="111.6"/>
		</g>
	</g>
	<g id="Ridge_Fold_Line_00000150817444073359634660000002799126698184228783_">
		<g>
			<line class="st2" x1="327.6" y1="111.6" x2="325.7" y2="105.9"/>
			<line class="st29" x1="323.9" y1="100.4" x2="320.3" y2="89.3"/>
			<line class="st30" x1="319.4" y1="86.5" x2="311.2" y2="61.6"/>
			<line class="st2" x1="310.3" y1="58.8" x2="308.4" y2="53.1"/>
		</g>
	</g>
	<g id="Ridge_Fold_Line_00000133506948482869352530000016509352626974683818_">
		<g>
			<line class="st2" x1="308.4" y1="53.1" x2="302.7" y2="55"/>
			<line class="st31" x1="294.6" y1="57.6" x2="278.3" y2="62.9"/>
			<line class="st32" x1="274.3" y1="64.3" x2="156.6" y2="102.8"/>
			<line class="st2" x1="152.5" y1="104.1" x2="146.8" y2="106"/>
		</g>
	</g>
</g>
<g id="cut_00000155143718595070797880000006268825584397670585_">
	<polyline class="st2" points="204.2,660.8 191.9,672 216.3,694.3 206.2,725.9 238.5,733 245.5,765.4 277.1,755.4 299.3,780 
		315.7,762 	"/>
	<path class="st2" d="M206.3,658.8"/>
	<polyline class="st2" points="286.1,579.5 277.5,588.9 246,578.8 238.8,611.1 206.4,618.1 216.4,649.7 206.3,658.8 	"/>
	<path class="st2" d="M286.1,579.5"/>
	<polyline class="st2" points="372,613.9 360.7,611.4 353.7,579.1 322.1,589 299.9,564.5 290.9,574.3 290,575.3 288,577.4 	"/>
	<path class="st2" d="M374.7,614.5"/>
	<polyline class="st2" points="316.7,760.9 321.7,755.5 353.2,765.7 360.4,733.3 392.8,726.3 382.8,694.7 407.3,672.5 382.9,650.1 
		393,618.6 374.7,614.5 	"/>
	<polyline id="Cutting_Line_00000139997739013368365720000018417888664130257595_" class="st2" points="512.7,150.4 490.1,145.6 
		431.5,164.5 298.7,296.8 	"/>
	<polyline id="Cutting_Line_00000083067293372242219790000000188472635312278967_" class="st2" points="483.8,326.3 542.4,307.4 
		577.9,268.2 560,212.8 559.1,210.3 541.8,156.6 515.6,151 	"/>
	<polyline class="st2" points="283.4,30.7 269,17.8 157.6,54.2 146.8,106 165.9,164.5 107.3,145.6 	"/>
	<polyline id="Cutting_Line_00000132072569693527194480000010316810751936695724_" class="st2" points="361.6,190.3 368.7,144.8 
		327.6,111.6 352.5,62.3 308.4,53.1 285,32 	"/>
	
		<line id="Cutting_Line_00000152240073975708730310000009643964171198358659_" class="st2" x1="353.6" y1="242.2" x2="361.2" y2="193"/>
	<polyline id="Cutting_Line_00000035518865815118348090000010581387546744015522_" class="st2" points="60.7,333.8 66.1,359.1 
		67.8,359.6 	"/>
	<polyline id="Cutting_Line_00000163072136481870512600000013664829731397404571_" class="st2" points="124.6,130 107.3,145.6 
		55.6,156.6 19.6,268.2 55,307.4 60.2,331.5 	"/>
	<polyline id="Cutting_Line_00000071519602841176340630000004897512200389527988_" class="st2" points="148.3,110.7 146.5,110.1 
		126.7,128 	"/>
	<polyline id="Cutting_Line_00000062177729189065874640000007394713406430467736_" class="st2" points="113.6,326.3 63.8,362.6 
		42.3,410.9 111.3,505.7 163.9,500.1 213.7,463.9 	"/>
	<polyline id="Cutting_Line_00000018214322980524805200000000049585762460778932_" class="st2" points="407.4,511.8 429.5,499 
		429.5,497.2 	"/>
	<polyline id="Cutting_Line_00000103249505453055878670000009087402071133558691_" class="st2" points="427.2,600.8 383.7,525.5 
		406,512.6 	"/>
	<polyline id="Cutting_Line_00000104697012470251609300000001643248822041487505_" class="st2" points="302.1,820 383.7,820 
		468.8,672.7 428.5,603 	"/>
	<polyline id="Cutting_Line_00000155141965963187669350000014373365641945191574_" class="st2" points="176.4,590 128.6,672.7 
		213.7,820 298.7,820 	"/>
	<polyline id="Cutting_Line_00000077314846617532947180000002829483760258626490_" class="st2" points="187,510.1 213.7,525.5 
		178,587.3 	"/>
	<polyline id="Cutting_Line_00000016763151462073744750000015685311631057230726_" class="st2" points="167.9,497.2 167.9,499 
		185.8,509.4 	"/>
	<polyline id="Cutting_Line_00000026137415121621095640000006774968900559674289_" class="st2" points="536.5,335.6 539.2,310 
		537.7,308.9 	"/>
	<polyline id="Cutting_Line_00000036220942750647803470000014430242680345031309_" class="st2" points="383.7,525.5 383.7,463.9 
		430.4,497.8 433.6,500.1 486.1,505.7 555.1,410.9 533.6,362.6 536.2,338.2 	"/>
</g>
</svg>
