<svg xmlns="http://www.w3.org/2000/svg" xml:space="preserve" viewBox="0 0 850.4 850.4"><path d="m235 644-20 22h-1c9-15 8-30 0-39l-2-3-27 25 1 2c6 6 17 6 24 3v1l-24 22v-1c3-6 4-17-2-23l-1-2-20 19c-6 5-6 10-2 17l-30-32c4 1 8 2 13-2l44-41c6-5 6-9 4-14l43 46zm32 105c-1 7-1 11 2 16l-1 1-36-23c6 0 11-4 13-14l3-11-22-14-12 10c-6 5-6 11-4 15v1l-17-11v-1c5 1 10-1 17-7l56-46 17 11-16 73zm-38-48 20 13 8-36-28 23zm131 47c18 4 27 14 24 27-3 14-16 19-39 14l-42-10v-1c5-1 9-2 11-11l13-56c1-8-1-10-5-13v-1l42 10c20 4 28 13 25 26-3 12-13 17-29 14v1zm-20 36c8 2 14-4 17-16s0-19-10-21l-2-1-9 37 4 1zm13-76-8 35 3 1c8 2 13-5 15-15 3-12 0-19-7-20l-3-1zm64 92v-1c4-2 7-5 6-14l-5-57c-1-8-4-10-9-11v-1l41-4c24-2 34 6 35 18 1 11-11 22-25 23v1c12-2 22 3 27 12l7 17c3 5 7 7 10 8v1l-32 3-5-11-8-18c-3-8-6-10-11-10h-2l2 27c1 6 4 11 9 12v1l-40 4zm29-47h2c7-1 11-8 10-20-1-11-5-18-14-17h-2l3 37zm99-64c-4 3-5 9-3 14l20 54c2 5 7 9 12 9v1l-38 14c4-4 6-7 3-15l-20-54c-3-8-6-9-12-9v-1l38-14v1zm47-28c-3 5-2 10 1 15l34 46c3 5 9 7 14 6l-33 24c2-5 3-8-2-15l-33-47c-5-6-9-6-14-5v-1l32-23h1zm74 32c10 5 13 5 17 4h1l-28 21-46-20 5-31c1-5 1-9-1-12s-6-4-13 0l-1-1 29-21v1c-6 7-7 15-8 23l-3 17 48 19zM151 329l-18-17v-1c18 4 31-4 36-15 3-6 2-12-4-15-3-2-7-2-13 3l-17 14c-10 8-22 9-31 5-12-6-21-20-11-41 5-10 14-20 20-24l14 16c-15-2-26 5-31 14-4 8-1 13 2 15s8 1 14-3l18-14c11-10 19-10 29-5 15 7 22 24 13 41-6 13-13 21-21 27zm9-95c-19-18-21-44-4-62 6-8 16-14 24-17l14 25-1 1c-13-10-25-10-33 0-8 8-7 20 4 29 16 15 36 15 48 2 7-8 9-15 5-22h1c12 17 12 32 0 45-15 17-38 16-58-1zM283 84c-3 4-4 8 0 14l28 50c4 7 8 8 13 8l-35 20c3-4 4-9 0-15l-14-24-20 11 14 24c4 7 8 8 13 8l-35 20c3-4 4-9 0-15l-28-50c-4-7-8-8-13-8h-1l36-20c-3 4-4 9 0 15l12 23 20-12-12-22c-4-6-8-8-13-7l-1-1 36-20v1zm101-25 23-4v1c-6 3-8 7-7 14l12 71-72-57 9 52c1 8 5 10 12 12l-25 4c8-4 9-7 8-15l-10-58-11-9-1-1 33-5 46 34-5-27c-1-8-3-10-12-11v-1zm122 78c1 7 3 11 8 14v1l-43-7v-1c6-1 9-7 7-17l-2-12-25-4-7 14c-4 7-2 12 2 15v1l-20-3v-1c5-1 9-5 13-13l34-64 20 3 13 74zm-53-29 23 3-6-36-17 33zm173 6v1c-5 0-9 0-13 8l-18 37c-9 17-25 23-43 14-20-10-26-26-15-47l17-34c3-8 2-11-2-15h1l38 19c-7 0-12 1-16 9l-16 33c-7 14-5 24 6 30 10 5 20 1 27-13l17-34c4-8 2-12-3-17v-1l20 10zm-31 80 86-28-3-3c-16-14-31-9-47-2l26-23 48 46-86 28 3 4c16 14 39 7 50 1l-28 25-49-48zm122 103-30 14-32-56c4 3 8 4 15 0l50-29c7-4 8-7 7-13h1l31 55-25 17-1-1c12-11 16-26 9-38l-1-3-31 18 1 1c5 10 14 11 21 10l-28 16c5-6 9-15 3-24v-1l-33 19 2 2c7 13 21 16 41 12v1z"/><path d="M543 224c3-3 6-3 8 1l1 1c3-1 4 0 4 2l4 2 11 2c5 1 10 4 14 8l5 5 4 4c4 6 5 13 5 20l3 21c0 4-1 8-4 11-3 2-4 5-4 8l-1 10c0 7-5 10-10 13l-9 4c-3 0-4 2-5 4l-2 8c1 4-1 6-5 9-5 3-10 8-15 13a715 715 0 0 1-12 17l-1 3-2-1c0-2-2-4-1-7v-11c-2 2-2 2-4 0h-3l-1 2c-1 1-2 1-3-1v-1c0-4-3-7-5-10-3-4-3-8-2-12 0-3 0-4-2-3-2 0-3-1-3-2 0-2 0-3-2-3s-2-1-2-2l1-3-1-3c-3 0-3-2-3-3l-1-4-8-6-14-12c-6-6-13-10-20-14l-5-2-39-5c-6-1-10-5-10-11 0-4 4-8 8-7l5 1 2-1v-3l-3-1-2-2 2-1c3-1 6-2 8 0h2c0-2-3-2-2-3 1-2 2-1 4-2l1-2-1-6c1-3 4-3 5-5 1-1 2-2 4 0 1 1 2 0 4-1l6-8h3l1-1c2-3 4-3 7-3 2 0 2-1 2-3l1-2c5 0 8-3 12-5l14-7c2-1 4 0 5-2h1c1 3 2 1 4 1l7-1 2 4c3-4 6-3 9-2l9 2c3 1 6 0 8 3 1 2 3 2 4 0h2l5 5v2c0 3-1 4-3 3-3-1-7-1-9-4-1-2-5-3-6-2-1 2-3 1-5 0-4-1-8-3-13-2-2 0-2-1-3-2l-2-1-6 3h-5c-2 0-6 2-7 5l-1 1-1-1-2-5v2c1 3 0 4-2 6l-12 6h-2c0 3-4 3-5 4-1 2-3 1-4 1-1 1 0 3-2 4l-1 1c-3 1-3 1-2 5 1 2 1 3-2 3s-3 1-1 4l1 2c1 1 2 2 1 4-2 2-1 4 2 5 4 1 7 3 10 6 4 3 9 5 15 6 2 0 4 0 5-2s0-4-2-5c-2-2-1-5 1-7 3-4 7-6 12-7 4-1 9 0 14 2l7 3c3 1 5 3 6 6 3 9 3 17-1 25l-7 15-3 7c-1 1-1 2 1 2h1c3 1 4 1 3 3l2 4 2 3h4v2l-2 4c0 1-1 2 1 3l2-3 3-1 2 2c-1 3 0 6-2 8l-1 3c2-3 4-2 6-1s2 0 3-1v-6c1-2 1-3 3-1h1l1-3 5-32 3-14 1-2 1 2 1 6v6l-5 14v7l2-4v-3l2-2 2 4-2 2-3 7c1 3 0 6-1 8l1 3v2l-3 6 1 1c2 0 1 1 1 3s0 2 2 2l2-1 3-4c1-1 3 1 5-1 0-2 1-1 3 0s4 0 4-3v-6c-1-15 3-29 8-44 0-3 2-6 4-8 4-5 11-5 16-1 2 3 4 6 4 10l1 5c2-1 3-3 3-5v-5l-2-20c-1-4-1-9-3-13-1-2-1-6-5-6-3-2-7-3-9-7-1-2-2-3-4-3l-7-1-3-1c0-1-1-2-2-1-2 1-3 1-5-1s-6-1-8-4c-5 1-7-2-8-6v-1zm-8 156-1 1c0 1 0 1 0 0l1-1zm32-43v-1l-1 1h1zm-67-122s-1 0 0 0zM340 475h-1c-6 2-13 3-17 8l-3 1-8 1-2 2-3 2-25 10h-3l1-2 10-5c2-1 4-1 5-4l4-2 1-1-2-1c-6 4-14 4-20 8h-1c-3-1-5 0-6 1a352 352 0 0 0-78 54l-16 14c-22 20-42 43-55 70l-13 25-1 1c0 1-1 2-2 1l-1-2 1-2c9-16 17-33 27-49l14-17a420 420 0 0 1 112-92c1-1 3-1 3-3h-3l-10 4a1082 1082 0 0 1-52 21l-62 38c-18 12-33 27-47 44l-8 10-2 2h-2v-2l2-2 13-17-11 8-2 3h-2v-2l2-3 5-5 15-13c8-8 16-14 25-20l16-12c4-4 9-8 15-11l27-18a153 153 0 0 1 25-13l1 1-1 1-1 1c-12 5-22 12-32 19v2l3-2 13-8 24-11 40-15 19-7c1 0 3 0 3-2l3-2 20-5h3c2 2 4 1 6 0l27-10h1c1 0 3-1 3 1l-2 1c-9 2-16 6-24 9l-3 2 4-1c6-2 13-5 19-5h1c2-4 8-3 11-6l2-3 2-2c3-1 6-4 9-4l2-2c-1-3 1-3 2-3 2-1 5-1 5-4l3-2 15-5 1-1c1 0 2-1 3 1l-3 2-9 4 6-1 7-1 1 1-1 1-6 1-3 2h4l1 1-1 1-3 1c-1 0-3 0-2 2l-1 1c-2 1-3 3-6 3-1 1-3 1-2 3l-1 1-5 1c-2 0-4 0-5 3l-2 1-8 4c-9 5-16 12-24 20a245 245 0 0 0-60 97c-2 5-2 10-3 16v15l-2 18v1c-1 1-1 3-3 3s-1-2-1-3l3-22c0-14 2-28 8-41a263 263 0 0 1 73-102l1-1zm-21 6v-1l-1 1h1zm243 35-5-9c-6-7-10-15-14-24l-16-40c-1-4-3-8-6-11l-3-6-4-3c-2 0-3 1-3 2l-1 1c-4 1-5 4-8 6l-14 14-8 8-8 5-7 5-33 23-21 12c-4 3-7 6-11 7l-19 10c-5 4-11 7-17 9l-3 2-1 1 2 1c3-1 6-1 8-3l32-17 13-7c10-8 21-13 32-20l3-2c4 1 6-1 8-3l5-2c11-5 22-8 34-7 8 0 16 1 22 7l3 2a95 95 0 0 1 23 20l7 14 4 7 4 3c2 0 3-1 3-3l-1-2zm-346-35h-5l-32 10-49 17c-18 6-33 15-49 24a549 549 0 0 1-48 22c-1 1-2 0-2-1l1-1 10-4c2-1 4-1 4-4l2-2c16-10 31-19 48-26a820 820 0 0 0 75-34l48-17 9-4 2-2c1-3 4-3 6-4l18-5h3v1l-3 2c1 2 2 1 2 1l10-4h4l2 1-2 2-17 5-2 1c1 3-1 3-3 3l-17 7-8 5h-3l1-3 5-2 18-8 3-1c-10 0-95 32-108 41h3l31-11a298 298 0 0 1 56-16 121 121 0 0 1 16-6l2 1-1 2h-3l-8 3-4 2h4l3 1 1 1h-1l-1 1-13 2c-2 1-4 1-6 4l-3 1-6 2-1 2c2 1 0 2 0 3l-7 4c-5 2-9 3-12 6-1 1-2 2-3 1l-3-2 2-2 4-4 3-3 9-4 6-4 3-2 6-2zM82 527c-5 1-12 5-15 8 6-2 10-5 15-8zm677 99c24 13 28 19 51 33l3 1h2v-2l-4-3c-28-16-36-24-64-40l-7-5c-31-32-65-60-98-90h-2v2l1 2 6 6 34 29 43 41c1 0 2 1 2 3l-4-2-52-32-13-8h-2v2l5 4a2078 2078 0 0 0 86 54l22 22c19 18 34 41 55 57l3 3h1v-3l-6-5c-24-20-42-46-64-68l-2-3 4 2zM314 335c7-1 14 0 21 1l2-1-2-2-10-1c-1 0-3 1-4-1h6l13 2 2-1c1-1 0-1-1-1l-5-2h2l16 2h2c1-2 0-2-1-3 0 0-1 0 0 0 2-1 5 2 5-2h2l4 1 1-1v-1l-4-2-21-2c-1 0-4-2-4 2l-1 1c-2 1-4 2-6 1l-6 1c-2 2-4 2-6 2s-4 0-4 2c-1 2-2 2-4 2l-5 1-3 1c-1 2-2 2-4 2s-5 0-6 2-3 2-6 2c-3 1-6 0-8 4l-3 1-7 1-3 1c0 2-1 2-3 3l-7 1-18 6c-2 1-4 1-4 3s-2 2-3 3l-7 2-3 2c-1 3-3 3-5 4l-7 2c-1 1-2 1-1 2h2c7-2 15-4 23-4 1 0 3 1 3-2l-3-1h-7l2-1 11-3c5-2 10-3 15-2l2-1c0-2-1-2-2-2l-2-1 7-1h4c2-3 4-2 7-2h6l3-1c1-2-1-1-2-2l-2-1h1l11-1h4l1-1-1-1-6-1h13l2-1c0-2-1-1-2-2h-8l-3-1c7-1 13-2 19-1h5c1 1 2 1 2-1l-2-1-7-1h-4 18c1 0 4 1 4-1s-2-1-4-2l-9-1h5zm303 230-16-21c-3-5-7-9-9-15l-1-1-1 2 1 4 3 5 24 33c2 2-1 7-3 10 0 1 0 2 1 1 3-1 5-9 6-8a488 488 0 0 1 55 84l22 33v1c1 1 1 2 3 1v-2l-2-3-5-8-25-40-21-34c-7-11-15-21-24-31-1-2-2-4-1-6l3-24c3-17 0-33-10-48l-11-17c-1-1-2-4-3-2-2 1 0 2 1 3l13 21c6 10 8 22 8 34l-4 29-1 2c-2 0-2-2-3-3zM325 371a2474 2474 0 0 0 20 4h-4l-9-1-4 1c-1 2-2 1-3 1l-19 1-9 1 6 1h11l1 2-1 1-8-1c-2 0-3 0-4 2l-3 1-12 2-4 1h7l2-1 1 1v2l-5 1-13 1 8 1h2l2 1-2 1h-4c-3 0-6-1-7 3h-3l-8 2h3l1 1-1 1h-2l-25 2h-2l-1-1c-1-1 0-1 1-1l2-1c3 0 5 0 6-3l4-1c2 0 4 0 6-2s5-1 7-1l3-2c0-2 2-2 3-2l8-1c1 0 2 0 2-2 1-2 3-2 4-2l8-2-3-1-2-1c-1-1 1-1 1-1h2c2-1 4 0 4-3l2-1c2 0 3-1 2-3l2-1 5-1h3c1-3 3-3 5-3h37l2 1-2 2h-17l-6 1zm-25 3h2c1 0 1 0 0 0h-2zm0 58-14 2c-22 7-45 12-68 18-16 4-32 10-48 16a734 734 0 0 0-91 41v2l1 1 4-3 20-11c20-10 42-18 63-26 17-6 33-13 50-17l58-14c7-2 13-5 20-6h6l2-1c-1-2-2-2-3-2zm538 218a771 771 0 0 0-192-139h-2v2l3 2 25 13a956 956 0 0 1 166 127l2 1c1-3-1-4-2-6zm-5-28-16-15c-18-16-37-30-57-43l-73-45c-13-8-27-16-39-26l-1-1h-1l-1 1 3 4 18 13 51 31c22 14 44 27 65 42 18 13 36 27 51 43l2 2c1-3 0-4-2-6zM223 427l-7 2-41 11c-37 10-75 20-112 33l-28 10-5 2-1 2 2 1 3-1 9-4 62-20 81-22 33-10h5c1 1 3 0 3-2s-2-3-4-2zm586 151c-21-17-43-32-66-45l-32-18c-13-7-27-14-38-24-1-1-2-2-3-1s0 2 1 3l2 2 12 8c14 10 5 5 20 13 37 19 72 39 103 66l3 2c1-3-1-4-2-6zM196 443a1062 1062 0 0 0-170 61l-5 4v1l1 1 9-5 26-13a727 727 0 0 1 142-46h1c1-1 2-1 1-3l-2-1-3 1zm253-50-4 4c-2 1-1 2 0 3h6l12-3c2 0 2-1 1-2-2-2-1-3 1-3l4-2v-2l-1-1c0-3 0-3-2-2h-3c-2-3-4-2-6-2-10 3-21 4-31 9l-11 3-3 1c-6-1-11 2-16 2-3 1-4 3-5 5 0 3 1 4 3 4l17-4c1 0 2 0 2-2-1-2 0-2 2-3 8-2 15-5 23-6l2-1 3-2h11c-1 2-4 2-5 3zm148 16a333 333 0 0 1 10 5v-2l-2-1c-5-4-12-5-17-9l-3 1 1 2c2 1 5 1 4 5l8 8 2 2 3 3c2 2 3 6 4 9 1 1 3 2 3 4a634 634 0 0 0 15 12c1 0 2 0 2 2l-4-2-6-3h-2v2l1 1 15 7 2-1v-4l-3-3c-2-1-5-2-5-5v-1c-2-2-5-3-5-6l-2-2-3-2 5 2 2-1-1-1c-4-3-6-6-11-8-2-2-5-3-6-6l-3-2-6-4-2-2h4zm-216-58c2 1 4 2 5 0 0-2-3-2-5-2l-27-3-6 1-1 2 1 1 3 1 10 2c4 0 7 0 10 2h-9l-23-3-5 2c1 2 3 2 4 2l19 3 18 2h2c3-2 6-1 8-1h3c1-1 0-2-1-3l-2-2-7-2-10-2c4-1 9 0 13 1zm-65 272c0 2 0 4 2 4 3-1 1-3 0-5l-4-17a182 182 0 0 1 22-95c0-1 2-2 1-3s-3 0-3 1l-2 3-4 7c-8 18-14 36-15 55l-2 20c0 13 1 22 4 30zm-88-247 2-1-2-1h-1c-7 1-15 3-22 6-1 0-2 1-1 2 1 2 0 3-1 3l-13 7-3 2c-2 3-6 4-9 5l-4 2v2h1c2 0 4 1 6-1l10-3c2 0 4 0 3-3l2-1 5-1c1-1 4 0 4-2s-3-1-4-2l3-1 10-3c1 0 3 0 3-2-1-2 1-2 2-2l5-1 1-2h-5c2-2 5-2 8-3zm413 34c1 1 3 3 3 1 1-2-1-2-2-3l-14-8h-2v2c1 1 3 1 3 3l4 5 1 2c2 5 4 9 8 11l3 3c0 3 2 4 4 5 3 2 6 5 7 8l5 7 11 8h2l-1-2-1-1c-3-3-7-4-7-9l-1-1c-2-1-4-3-4-5l-7-8c-2-1-4-3-4-5-1-3-4-6-7-8l-7-7 6 2zm-409 13c1 0 2-1 1-2 0-2 1-2 2-2l7-1 2-1c-1-2 2-2 2-3 1-2 2-2 4-2l1-1-2-1-17 1-3 1c0 2-2 2-3 3-2 0-4 0-4 2l-2 2c-5 0-8 3-12 3l-2 2 2 1 24-2zm84-62-2 1 2 2h3l45 2c2 0 4-2 4-4s-2-2-3-2l-13-1h-27l-4 2h-5zm56 34-19 4a384 384 0 0 0-60 19l-1 2 2 1 5-2 3-2 23-8 49-12c1 0 2 0 2-2l-2-1-2 1zm-30 16-1 2 2 1 2-1c9-4 18-6 28-8 2-1 5 0 4-4 1 0 2-1 1-2h-3l-18 3-23 7c-1 0-3 1-2 3s2 1 4 0c2-2 5-3 8-2l-2 1zm274 40 1 2 16 13c2 2 4 3 5 6l2 2 7 5 6 3h2v-2l-2-2c-1 0-3-1-3-3l-3-3-6-3-2-4c-1-5-1-5-6-7l-15-7-1-1-1 1zm-275 8 1-1c1-1 0-1-1-1-3-1-6 0-9 1-9 3-17 9-25 13l-1 1c-1 1-1 2 1 2h2l8-4 13-4 2-1c0-2-1-1-2-1h-2c3-3 6-4 13-5zm153-83c0-1 0-2-2-1l-14 9c-2 2-1 2 1 3v2l-3 4v1h1l2-1 13-8c1 0 4 0 3-2 0-2-2 0-4-1 2-2 3-3 3-6zm-212 99 10-5 2-2h-3l-20 9c-2 1-3 2-3 4 0 3 0 3 2 2 7-2 13-5 20-6 1 0 2 0 2-2l-3-1-2 1-10 3 5-3zm122-85-8 4-1 1 2 1c3-2 7-2 11-3h3l3-3c-1-2-2-2-3-1l-3-1c-1-3-3-3-5-2-7 0-13 1-20 3l-2 2-1 2h3c5-3 11-4 17-5l5 1-1 1zm-54 28 6-3c7-2 15-5 23-6l2-2-3-1-3 1-24 7-3 1c-1 0-2 1-1 2 0 2 2 1 3 1zm66-71 1-1-1-1-13-1-2 1 1 1 4 1h-7l-2 1 2 2h1l11 1c2 0 4 1 4-1s-2-1-3-2l4-1zm-181 59-3 1-1 1 2 1c8-2 16-3 25-3l2-1v-2h-4l-21 3zm117 15-3 2-2 2h3l9-2 13-2 1-1-1-2-6 1-14 2c-1 0 0 0 0 0zm0 0 17-5 4-1 1-1-2-1-4 1-18 4c0 2 0 3 2 3zm70-21 11-3 4-1c1 0 2 0 2-2h-4l-15 4-2 1-1 1 2 1 3-1zM279 502c-1 1-2 2-1 3l2-1 15-6 2-1-2-1c-5 1-11 3-16 6zm121-161h9l2-1-2-1h-16l-2 1-1 1 2 1 8-1z"/></svg>