<svg id="logo" xmlns="http://www.w3.org/2000/svg" viewBox="0 0 1117.09 1117.09">
    <defs>
        <style>
            .cls-1 {
                fill: currentcolor;
            }
        </style>
    </defs>
    <path class="cls-1"
        d="M1117.09,1117.09H0C0,744.73,0,372.36,0,0c372.36,0,744.73,0,1117.09,0V1117.09Zm-309.69-509c7.28,2.79,14.01,6.95,22.51,9.82-.64-2.38-1.49-3.72-1.16-4.6,1.88-4.87-1.81-6.25-4.77-8.16-1.36-.88-3.89-1.8-3.88-2.66,.11-5.15-4.15-6.4-7.04-8.69-.39-2.01-.75-3.9-1.11-5.8,.94-.25,2.07-.55,3.42-.91-.28-1-.24-1.93-.68-2.28-3.73-3.04-7.45-6.13-11.38-8.9-2.66-1.87-5.69-3.21-8.48-4.9-1.04-.63-2.48-1.46-2.7-2.43-.83-3.72-3.88-5.09-6.56-6.87-2.91-1.94-5.9-3.76-8.85-5.63,1.1-.57,1.78-.42,2.38-.12,4.2,2.15,8.35,4.38,12.59,6.44,.8,.39,1.93,.09,2.91,.1-.12-1.13,.16-2.65-.46-3.29-1.23-1.26-2.89-2.15-4.5-2.96-6.63-3.33-13.29-6.6-19.97-9.82-.77-.37-1.82-.62-2.58-.39-.89,.27-1.89,.99-2.27,1.79-.22,.46,.51,1.79,1.14,2.16,1.87,1.08,3.91,1.88,6.1,2.89-1.51,2.58-.82,4.57,1.53,6.07,2.88,1.84,5.74,3.62,6.65,7.35,.21,.86,1.49,1.54,2.38,2.15,4.55,3.09,9.1,6.14,8.9,12.61-.01,.43,.57,.89,.89,1.32,2.08,2.79,5.34,5.33,5.99,8.42,1.18,5.65,5.7,7.14,9.41,9.72,4.02,2.8,8.28,5.25,12.43,7.85-.15,.26-.3,.52-.45,.77-4.91-2.45-9.83-4.9-14.85-7.4-2.16,3.78,1.36,4.6,2.61,6.43-3.13,2.03-3.19,2.88-.54,5.41,6.5,6.19,14.39,10.7,20.59,17.29,2.39,2.54,6.24,3.7,6.87,7.87,.11,.74,1.05,1.49,1.78,1.98,6.03,3.99,12.06,7.98,18.18,11.82,1.06,.67,2.56,.64,4.1,.99,.59-3.58-.82-5.31-3.28-6.59-1.24-.64-2.95-1.4-3.32-2.48-1.06-3.1-3.59-4.44-5.98-6.03-2.86-1.9-5.74-3.77-8.32-5.46-.57-2.55-1.83-4.92-1.35-6.86,.81-3.29-1.15-3.76-3.18-4.52-2.88-1.09-5.86-1.93-8.67-3.18-6.1-2.72-12.38-5.17-17.03-10.31Zm-373.03-154.16c2.66,.54,5.3,1.17,7.97,1.58,1.53,.24,2.96-.06,2.93-2.56-1.34-.73-2.84-1.55-4.34-2.37,5.57,.06,11,.94,16.45,1.68,2.45,.33,6.01,3.05,6.28-2.45,0-.13,.6-.39,.83-.31,3.35,1.11,2.66-2.51,4.11-3.82,2.7,.73,5.28,1.42,7.9,2.12,1.78-2.57,.51-4.01-1.59-4.67-2.58-.82-5.27-1.39-7.96-1.7-9.34-1.09-18.69-2.02-28.03-3.02-1.92,5.03-3.87,6.28-9.45,6.18-2-.04-4-.12-5.99,.05-1.22,.1-2.91,.26-3.52,1.06-1.83,2.41-4.24,2.34-6.79,2.42-3.58,.11-6.89,.8-7.17,5.14-3.55,.27-6.62,.61-9.7,.71-3.16,.1-5.74,.87-6.31,4.28-4.95,1.22-10.99-1.05-13.26,5.44-4.12,.52-8.09,.92-12.02,1.59-1.33,.23-3.42,.89-3.67,1.77-.87,3.11-3.13,3.04-5.48,3.22-2.35,.19-4.71,.36-7.04,.72-1.6,.25-3.44,.42-4.64,1.34-1.09,.83-1.45,2.6-2.03,3.76-4.42,1.1-8.77,1.8-12.83,3.28-7.73,2.82-15.22,6.27-23.39,7.77-3.39,.62-6.39,1.85-6.23,5.96-4.43,1.6-8.55,2.99-12.58,4.59-1.47,.58-3.63,1.44-3.94,2.58-.94,3.5-3.69,3.49-6.23,4.16-2.63,.7-5.28,1.32-7.84,2.22-1.32,.46-2.66,1.27-3.58,2.29-.52,.58-.45,1.99-.16,2.87,.11,.34,1.7,.59,2.36,.3,10.65-4.73,21.91-6.21,33.41-6.53,.72-.02,1.6,.12,2.13-.23,.79-.52,1.54-1.34,1.86-2.19,.11-.29-1.1-1.51-1.78-1.58-2.34-.23-4.71-.14-7.06-.16-1.52-.01-3.05,0-4.57,0,10.88-4.81,22.05-8.06,33.97-8.13,1.83-.01,4.64,1.13,5.12-1.53,.58-3.23-3.18-1.82-5.59-3.87,4.11,0,7.18,.12,10.23-.05,1.37-.08,3.5-.36,3.91-1.21,1.37-2.87,3.77-2.44,6.01-2.5,3.63-.09,7.26,.02,10.89,0,1.45,0,2.91,0,4.32-.25,.53-.1,1.24-.88,1.31-1.41,.06-.54-.45-1.45-.94-1.68-1.18-.54-2.51-.78-3.78-1.14l.12-1.18h20.19c.2-1.24,.37-1.76,.35-2.27-.02-.64-.18-1.27-.28-1.94,4.08-.9,8.15,.89,12.22-1.02-1.8-4.6-5.61-2.99-8.41-3.36-3.11-.41-6.31-.09-9.47-.09,9.35-2.39,18.73-2.45,28.15-1.39,1.86,.21,3.89,1,5.62-.89-1.22-4.11-5.11-2.62-8.46-4.2,2.87,0,4.82-.1,6.76,.02,3.8,.24,7.59,.69,11.39,.84,.87,.03,1.77-.8,2.66-1.23-.69-.9-1.22-2.24-2.12-2.59-1.48-.57-3.2-.49-4.82-.69-2.84-.35-5.67-.71-8.5-1.07,10.01-.53,19.95-.03,29.88,.33,1.96,.07,4.69,1.9,5.6-1.06,.28-.9-2.14-2.64-3.33-3.99l-.09,.07Zm-71.47,222.19c-1.41,1.38-2.94,2.67-4.16,4.2-.37,.47-.1,1.73,.28,2.39,.21,.37,1.28,.38,1.93,.31,.5-.05,.97-.46,1.44-.73,6.66-3.79,13.59-6.87,21.12-8.51,.85-.18,1.53-1.14,2.41-1.82-2.28-2.94-4.91-2.02-7.18-1.26-5.15,1.74-10.19,3.81-15.28,5.75,1.88-1.34,3.59-3.09,5.67-3.94,8.56-3.49,17.25-6.68,25.86-10.04,1.48-.58,3.8-1.15,4.11-2.2,.96-3.27,3.59-3.27,5.94-3.82,2.82-.65,5.72-.98,8.56-1.54,1.02-.2,2.31-.39,2.93-1.08,6.39-7.02,15.52-7.72,23.74-10.6-1,1.41-2.26,2.37-3.46,3.39-4.41,3.77-9.12,7.25-13.15,11.4-34.69,35.71-64.13,74.9-82.03,122.02-5.61,14.77-9.59,29.58-10.19,45.38-.41,10.68-1.41,21.34-2.25,32.01-.2,2.52-.97,4.99-1.2,7.51-.08,.88,.72,2.61,1.1,2.6,1.07-.02,2.64-.45,3.08-1.23,.86-1.53,1.36-3.39,1.51-5.15,1.07-12.65,2.11-25.3,2.97-37.96,.63-9.26,1.28-18.52,4.54-27.29,7.33-19.74,14.96-39.38,25.89-57.5,17.72-29.36,38.82-56.13,63.5-79.92,7.12-6.86,15.76-12.17,23.87-17.97,2-1.43,4.56-2.23,6.98-2.86,2.28-.59,4.86-.27,4.72-3.87-.02-.44,1.68-1.15,2.67-1.4,2.11-.52,4.28-.78,6.41-1.23,1.38-.29,3.11-.35,3.99-1.22,.79-.78,.64-2.53,.93-3.99,2.23-.11,4.56,.09,5.38-2.71,.13-.46,1.15-.86,1.8-.93,2.85-.31,4.25-1.74,3.46-5.01,2.82-.25,5.16-.35,7.46-.73,.71-.12,1.73-.94,1.81-1.54,.08-.63-.65-1.68-1.29-2.01-1.07-.54-2.35-.64-3.6-.94,3.47-2.73,8.46-.36,12.09-4.6-5.94-3.26-11.31,.75-16.63-.12,3.47-1.67,7.05-2.87,10.53-4.32,.92-.38,1.5-1.57,2.23-2.38-1.05-.48-2.07-1.25-3.16-1.37-1.01-.11-2.13,.37-3.14,.75-6.96,2.63-13.91,5.27-20.83,8.01-1.11,.44-2.82,1.39-2.85,2.16-.14,3.42-2.73,3.53-4.9,3.98-3.73,.77-6.45,2.22-5.62,6.36-4.93,2.43-9.45,4.65-13.95,6.91-.63,.32-1.51,.72-1.69,1.28-1.69,5.05-6.42,6.31-10.38,8.54v.02c.12-1.5,.23-3,.4-5.23-2.28,.21-4.3,0-6.02,.63-12.44,4.51-24.79,9.24-37.23,13.77-1.54,.56-4.18,1.09-4.91,.31-2.29-2.43-4.64-1.6-7.04-1.02-7.72,1.86-15.42,3.83-23.13,5.76-.1-.34-.2-.67-.3-1.01,5.27-1.58,10.55-3.12,15.8-4.75,1.5-.46,4.36,.37,3.69-2.58-.54-2.39-2.89-1.66-4.61-1.36-1.96,.35-3.88,.95-5.82,1.41-1.29,.3-2.58,.55-3.88,.82,5.36-4.15,12.13-5.48,17.5-9.55-1.46-3.18-3.31-2.29-5.16-1.47-7.97,3.51-15.87,7.22-23.95,10.46-5.09,2.05-7.88,5.22-7.47,11.13,2.99,1.93,5.18-1.76,8.03-1.37,.67,2.75-.84,3.57-3.22,4.37-12.4,4.12-24.8,8.22-37.05,12.75-13.79,5.1-27.33,10.86-41.13,15.93-11.13,4.08-21.88,8.79-31.91,15.15-5.06,3.21-10.33,6.08-15.52,9.07-1.07,.62-2.23,1.07-3.35,1.61,11.47-9.82,27.76-19.56,41.17-25.36,1.08-.47,2.59-2.04,2.44-2.81-.41-2.06-2.41-1.94-4.01-1.43-2.41,.77-4.9,1.53-7.08,2.78-8.51,4.85-17.04,9.69-25.33,14.91-11.37,7.16-22.64,14.48-33.74,22.06-7.18,4.9-14,10.35-20.94,15.6-7.09,5.35-14.09,10.81-21.21,16.13-7.99,5.97-16.41,11.43-24.02,17.84-10.82,9.12-21.1,18.89-31.57,28.43-1.88,1.71-3.68,3.52-5.3,5.47-1.21,1.45-3.2,3.28-1.17,5.16,2.14,1.97,3.48-.39,4.86-1.72,3.14-3.01,6.27-6.04,9.48-8.98,.63-.57,1.59-.77,3.05-1.44-.62,1.27-.78,1.82-1.11,2.23-4.88,6.08-9.76,12.16-14.69,18.21-1.26,1.55-3.2,3.16-1.36,5.12,1.93,2.05,3.57,.2,4.98-1.26,.51-.52,1.03-1.03,1.48-1.6,3.51-4.4,7-8.81,10.5-13.21,17.03-21.41,35.54-41.11,58.76-56.2,25.45-16.54,51.69-31.71,77.8-47.12,8.64-5.1,17.51-9.57,27-12.82,4.46-1.53,8.92-3.11,13.31-4.84,14.7-5.77,29.37-11.63,44.06-17.41,1.92-.76,3.93-1.31,5.9-1.95l.45,1.04c-6.31,3.87-12.5,7.95-18.96,11.57-23.08,12.94-43.88,29.22-64.28,45.76-24.1,19.54-47.12,40.51-66.79,64.74-6.29,7.74-12.44,15.63-18.13,23.82-14.26,20.49-24.91,43.03-36.37,65.1-.5,.96-1.18,2-1.18,3,0,1.07,.48,2.39,1.24,3.08,.36,.33,1.97-.32,2.74-.9,.67-.5,.99-1.49,1.4-2.29,5.69-10.96,11.44-21.88,17.03-32.89,18-35.45,43.13-65.35,72-92.3,7.3-6.81,14.77-13.45,22.39-19.92,7.19-6.1,14.59-11.97,22.05-17.75,6.46-5.01,13.17-9.68,19.67-14.62,19.45-14.76,40.63-26.71,62.05-38.27,.8-.43,1.62-.85,2.47-1.14,.65-.22,1.74-.55,2.02-.26,2.75,2.95,4.9,.31,7.29-.59,5.25-1.98,10.53-3.86,15.82-5.76,1.67-.6,3.37-1.09,5.05-1.63h0c-1.56,4.4-4.42,7.12-9.04,8.61-4.21,1.36-8.14,3.67-12.03,5.86-.99,.56-2.14,2.47-1.86,3.32,.66,2.04,2.51,1.29,4.03,.69Zm280.8-381.99c-1.89,1.38-3.51,3.36-4.41,3.08-2.76-.89-4.13,.8-6.09,1.87-2.78,1.52-5.92,2.36-8.84,3.64-4.21,1.85-8.76,3.29-12.42,5.93-3.7,2.67-7.47,4.53-12.12,5.15-.12,1.92-.22,3.64-.34,5.64-4.98-.38-9.63-.12-11.75,5.26-1.36-.38-2.5-.69-3.61-1-3.66,5.45-7.74,10.15-12.5,14.25-1.81-1.09-3.46-2.08-4.79-2.88-2.7,2.19-4.79,4.58-7.41,5.8-2.24,1.04-2.5,2.29-2.29,4.19,.35,3.09,.77,6.16,1.16,9.18-2.65,.67-5.11,1.3-7.58,1.92l-1,1.99c1.65,.87,3.31,1.75,4.96,2.62l-.4,1.05c-5.8-3.89-10.89-2.61-16.99,1.63,2.96,1.41,4.79,2.38,6.71,3.15,2.19,.88,2.56,2.26,1.4,4.58-2.93-.56-5.89-1.34-8.89-1.67-7.32-.8-12.26,4.32-11.36,11.59,.91,7.38,5.79,12.25,13.57,13.37,17.06,2.44,34.12,4.86,51.19,7.19,4.24,.58,7.97,2.03,11.53,4.45,10.51,7.15,20.91,14.34,30.04,23.34,6.31,6.23,13.5,11.56,20.33,17.27,1.28,1.07,2.26,2.03,2.2,4.02-.13,4.39,.03,4.39,4.54,5.95-.15,1.49-.35,3.07-.45,4.66-.09,1.4-.65,3.27,.03,4.11,.81,1.01,2.71,1.14,4.14,1.66,.43,1.86,.87,3.72,1.22,5.25,2.56,.14,4.52,.25,6.65,.37-3.03,10.44,.37,21.44,7.35,27.07,.61,3.16,.77,5.64,1.59,7.87,1.09,2.95,2.69,2.96,4.54,.34,.31-.44,.48-.98,.78-1.43,1.89-2.81,3.01-2.68,4.61,.47,.31,.61,.77,1.15,1.36,2,1.28-.83,2.39-1.55,3.37-2.18,.57,8.08-2.9,16.52,1.41,24.56,3.03-1.39,2.9-1.46,3.87-3.37,1.8-3.54,3.42-7.24,5.75-10.42,3.19-4.35,6.88-8.36,10.51-12.37,7.07-7.8,14.38-15.27,24.01-20.09,2.33-1.17,3.81-4.05,3.26-6.9-.86-4.53,.65-8.6,1.82-12.75,.96-3.39,3.1-5.3,6.78-6.15,7.7-1.78,14.55-5.42,20.41-10.86,2.38-2.21,3.97-4.68,4.32-7.91,.63-5.93,1.44-11.85,1.82-17.8,.25-3.81,1.11-6.9,4.32-9.45,4.96-3.92,6.48-9.4,5.75-15.61-1.14-9.73-2.14-19.47-3.31-29.2-1.04-8.67-2.22-17.35-6.98-24.95-1.2-1.91-3.02-3.51-4.78-4.99-2.73-2.3-5.57-4.49-8.49-6.54-4.52-3.17-7.28-8.27-14.03-9.06-6.38-.74-12.6-3.63-19.13-4.73-1.29-.22-3.25-1.17-3.49-2.13-1-4.07-3.63-3.07-6.54-1.99-.25-5.12-4.57-5.1-7.37-7.16-7.34,6.47-8.25-1.84-11.14-5.07-5.93,5.28-6.05,3.87-8.8,.06-9.48-2.22-18.5-4.33-27.66-6.48-1.66,1.18-3.39,2.41-5.28,3.75-.73-1.49-1.42-2.89-2.24-4.55-4.25,2.08-9.19-2.03-12.62,2.49-.77-1.08-1.36-1.92-2.18-3.07Zm24.56,279.84c-.91,3.05-2.21,5-5.25,5.25-.9,.07-1.78,1.12-2.56,1.84-1.74,1.58-3.44,3.21-5.11,4.87-6.7,6.63-13.75,12.96-19.95,20.03-4.76,5.43-10.03,9.87-16.29,13.28-1.11,.6-2.27,1.15-3.26,1.91-2.98,2.31-5.78,4.88-8.85,7.05-8.29,5.87-16.62,11.7-25.07,17.35-9.8,6.55-19.52,13.29-29.68,19.24-16.73,9.8-32.91,20.58-50.39,29.11-9.93,4.85-19.66,10.12-29.49,15.18-1.29,.66-2.67,1.16-3.94,1.85-1.34,.73-2.67,1.85-1.51,3.39,.54,.73,2.32,1.19,3.23,.87,4.22-1.44,8.5-2.56,12.49-4.83,13.4-7.62,27.02-14.85,40.56-22.23,5.73-3.13,11.88-5.68,17.13-9.48,13.74-9.93,28.96-17.31,43.35-26.11,1.23-.75,2.76-2.08,3.83-1.82,3.9,.95,6.01-1.76,8.7-3.45,2.45-1.54,4.92-3.14,7.58-4.23,14.93-6.11,30.25-9.99,46.63-8.75,9.96,.75,19.44,2.29,27.28,9.17,1.62,1.42,3.59,2.46,5.42,3.63,15.76,10.04,28.88,22.41,36.36,40.03,1.96,4.62,4.76,8.91,7.37,13.23,.68,1.12,2.11,1.8,3.21,2.67,1.77,1.39,3.58,1.66,5.43,.12,1.96-1.63,1.61-3.53,.49-5.36-2.54-4.17-4.95-8.46-7.84-12.38-7.16-9.69-13.06-20.05-17.52-31.24-7.05-17.7-14.01-35.43-21.24-53.05-1.85-4.5-4.46-8.71-6.91-12.94-2.34-4.03-4.92-7.92-7.8-12.5-1.33-.36-3.55-.95-6.4-1.72Zm-369.39,70.14l-.23-.76c5.62-1.82,11.24-3.64,16.85-5.47,1.65-.54,4.34-.59,3.8-2.94-.68-2.96-3.23-1.42-4.96-.87-7.26,2.32-14.46,4.78-21.7,7.17-1.71,.56-3.37,1.78-6.43,.44,2.47-1.41,4.06-2.54,5.81-3.27,9.38-3.91,18.8-7.7,28.19-11.57,1.32-.54,2.91-1,3.74-2.02,.75-.91,.62-2.54,.97-4.28,8.69-.87,16.18-6.09,24.98-6.88,.64-.06,1.61-1.11,1.67-1.77,.06-.69-.77-2.04-1.28-2.08-2.26-.17-4.67-.4-6.81,.19-4.86,1.34-9.59,3.16-14.37,4.78,.89-1.26,2.16-1.83,3.04-2.75,.46-.48,.49-1.69,.25-2.42-.14-.44-1.15-.8-1.79-.84-.68-.04-1.38,.36-2.08,.56-8.36,2.44-16.73,4.85-25.09,7.33-3.4,1.01-7.3,1.29-8.51,5.7-.14,.5-1.13,.83-1.78,1.12-2.98,1.33-5.93,2.76-8.99,3.9-19.56,7.28-39.21,14.31-58.7,21.79-10.84,4.16-21.48,8.84-32.07,13.59-24.68,11.05-49.1,22.7-73.96,33.33-22.82,9.76-44.33,21.69-64.72,35.73-1.02,.7-2.59,1.55-2.7,2.48-.41,3.23-2.82,3.93-5.16,4.83-3.38,1.31-6.79,2.55-10.2,3.8-1.02,.37-2.24,.45-3.06,1.07-.88,.67-2.01,1.86-1.95,2.75,.13,1.87,1.86,1.99,3.36,1.67,2.13-.46,4.28-.91,6.3-1.68,4.24-1.61,8.55-3.13,12.57-5.2,15.18-7.8,30.39-15.54,45.32-23.78,23.24-12.82,46.68-25.03,72.08-33.22,17.09-5.51,33.83-12.1,50.82-17.95,13.55-4.66,27.22-8.99,40.88-13.33,3.58-1.14,7.32-1.78,10.98-2.66-1.73,1.58-3.7,2.33-5.62,3.2-1.31,.59-3.16,1.02-3.7,2.07-1.51,2.98-4.38,3.58-6.92,4.85-4.06,2.02-8.17,3.97-12.14,6.14-1.55,.84-3.43,1.96-4.04,3.42-.96,2.26-2.59,3.31-4.46,4.43-1.81,1.08-3.9,2.09-3.32,5.03,1.82,.82,3.59,1.61,4.7,2.11,6.61-3.35,12.72-6.48,18.86-9.55,3.35-1.67,7.86-1.44,9.56-5.82,3.65-.91,2.09-3.33,1.2-5.38,5.44-2.98,11.86-3.23,16-8.07,.6-.71,1.99-.84,3.05-1.06,6.2-1.25,12.41-2.48,18.64-3.63,1.45-.27,3.33-.24,3.04-2.13-.13-.84-1.98-1.82-3.16-1.99-2.21-.32-4.5-.09-6.76-.09Zm228.51,323.79c0,3.07,.15,5.74-.02,8.39-1.99,30.02-4.08,60.03-6,90.05-.34,5.36-.05,10.77-.05,16.55,2.9,.63,5.49,1.25,8.11,1.74,10.48,1.96,20.99-.15,31.49,.09,9.45,.22,17.27-4.09,24.02-10.09,6.95-6.19,9.93-14.46,8-23.6-1.89-8.94-7.56-15.09-16.6-17.7-1.5-.43-2.97-.96-4.53-1.46,.29-.45,.36-.64,.5-.74,.45-.31,.92-.58,1.38-.86,12.26-7.17,17.45-17.79,15.97-31.92-1.34-12.74-8.25-21.45-20.6-25.15-13.3-3.98-26.96-5.22-41.65-5.3Zm122.84,69.99c7.01-1.02,13.04-2.22,19.51-1.78,13.09,.89,20.33,6.39,23.34,19.34,1.85,7.95,4.03,15.8,4.07,24.06,0,1.39,1.11,3.95,1.77,3.97,2.8,.08,5.69-.33,8.41-1.08,2.45-.68,2.14-3.15,2.07-5.09-.41-11.32-2.25-22.41-6.74-32.86-2.55-5.93-6.72-10.72-12.42-14-1.83-1.05-3.63-2.14-5.5-3.24,8.2-9.32,11.27-17,11.01-27.18-.33-12.59-11.19-25.43-23.73-26.72-8.78-.9-17.72-.62-26.56-.27-5.55,.22-11.06,1.48-16.58,2.37-3.23,.52-4.29,2.28-3.73,5.74,1.27,7.87,2.72,15.72,3.76,23.63,1.85,14.03,3.56,28.08,5.14,42.14,1.35,12.06,2.44,24.16,3.63,36.24,.23,2.32,.37,4.64,.55,7.04,6.31,2.49,11.94,.45,18.37-.93-2.12-17.12-4.21-33.96-6.37-51.38ZM324.28,114.83c.84,2.84,1.12,4.43,1.76,5.87,4.14,9.27,8.12,18.63,12.61,27.74,8.35,16.91,16.95,33.71,25.6,50.47,2.91,5.63,6.21,11.07,9.51,16.49,.65,1.06,2.11,2.23,3.25,2.29,6.21,.34,8.9-3.61,6.55-9.31-.34-.84-.73-1.66-1.15-2.46-3.55-6.74-7.22-13.42-10.62-20.22-2.58-5.15-4.83-10.47-7.36-16.02,14.52-8.02,28.6-15.8,43.21-23.87,.78,2.5,1.56,4.5,2.02,6.56,1.94,8.67,3.81,17.36,5.65,26.05,1.24,5.86,2.75,11.59,6.69,16.66,1.6-.71,3.03-1.44,4.53-1.97,5.86-2.07,6.03-2.32,4.92-8.45-.16-.89-.43-1.76-.63-2.64-3.12-13.42-6.53-26.78-9.29-40.28-2.79-13.68-4.81-27.51-7.41-41.22-1.21-6.35-2.56-12.72-5.15-18.73-5.2-.45-8.71,2.27-12.22,4.72-.66,.46-.74,2.28-.52,3.36,3.41,17.22,6.91,34.41,10.43,51.81-14.87,8.21-29.27,16.15-43.89,24.22-.9-1.68-1.63-2.9-2.24-4.17-3.54-7.36-7.13-14.69-10.56-22.1-3.27-7.08-6.38-14.23-9.54-21.37-.91-2.05-1.88-4.12-4.53-4.06-3.54,.08-7.07,.39-11.61,.66Zm771.55,784.42c1.9-4.63-.49-6.21-3.44-7.86-37.21-20.88-74.35-41.88-111.57-62.74-5.28-2.96-9.97-6.5-14.27-10.75-12.01-11.87-24.19-23.58-36.32-35.32-24.82-24.01-51.2-46.26-77.61-68.46-4.15-3.49-7.88-7.48-11.71-11.32-1.05-1.05-2.02-2.69-3.42-1.23-.71,.74-.86,2.97-.27,3.84,1.61,2.37,3.58,4.59,5.73,6.5,8.97,7.94,17.94,15.9,27.14,23.58,27.2,22.72,53.02,46.95,78.33,71.73,.93,.91,1.72,1.97,2.57,2.96-2.06-.24-3.65-.99-5.16-1.89-20.59-12.26-41.24-24.43-61.73-36.87-8.5-5.16-16.63-10.93-24.98-16.35-.6-.39-1.85-.46-2.4-.09-.6,.41-1.18,1.63-.98,2.26,.35,1.13,1.09,2.33,2.01,3.07,2.11,1.7,4.36,3.27,6.69,4.67,31.1,18.75,62.13,37.61,93.38,56.09,8.21,4.85,15.55,10.45,22.31,17.17,33.75,33.55,67.66,66.93,104.36,97.31,1.12,.93,2.12,2.07,3.38,2.73,.97,.51,2.62,.94,3.34,.47,1.54-1.02,.91-2.61-.21-3.72-2.05-2.05-4.13-4.09-6.36-5.95-32.12-26.77-61.93-56.05-91.8-85.24-.93-.91-1.72-1.98-2.57-2.98,.22-.26,.44-.53,.66-.79,34.86,19.67,69.73,39.33,104.91,59.18ZM346.96,231.16c.14-7.22-1.97-13.12-5.46-18.59-1.81-2.83-4.23-5.01-7.52-5.96-2.85-.82-5.92,1-6.89,3.88-.77,2.3,.26,3.62,3.75,4.78,7.54,2.52,11.39,7.19,11.68,15.12,.1,2.95-.1,6.68-1.78,8.75-3.02,3.71-6.95,6.94-11.06,9.44-5.25,3.18-11.03,3.06-16.62,.12-5.93-3.12-10.59-7.67-14.41-13.03-14.1-19.81-25-41.25-31.92-64.58-1.47-4.95-1.92-10.36-1.88-15.55,.04-5.34,3.11-9.79,7.66-12.4,4.13-2.37,8.46-1.2,12.14,1.83,3.71,3.06,6.23,6.61,4.92,11.78-.31,1.22-.71,2.47-.7,3.71,.01,2.49,1.7,4.19,3.99,4.3,2.48,.12,4.53-1.67,4.71-4.26,.06-.89,.06-1.9-.3-2.68-1.83-3.94-3.27-8.19-5.79-11.64-6.87-9.42-16.75-10.74-26.1-3.73-3.18,2.38-6.13,5.14-8.82,8.05-4.74,5.13-7.37,11.32-6.86,18.36,.41,5.75,.83,11.66,2.44,17.15,4.56,15.54,11.35,30.21,19.3,44.31,5.28,9.35,12.94,16.31,21.97,22.19,14.59,9.51,39.69,3.35,49.03-9.02,2.96-3.92,5.1-7.92,4.54-12.33Zm486.02,725.81c.39-.91,.54-1.41,.8-1.84,7.26-11.94,8.99-24.33,3.08-37.37-.82-1.82-1.24-3.85-2.25-5.54-1.94-3.23-4.15-6.31-6.31-9.4-.9-1.28-2.25-2.33-3.51-.76-.51,.63-.32,2.7,.3,3.24,5.12,4.42,6.52,10.77,8.95,16.59,4.45,10.64,2.4,20.72-3.25,30.17-5.35,8.95-13.42,15-22.51,19.58-6.43-14.59-12.82-29.02-19.14-43.48-2.05-4.69-2.03-4.85-6.91-2.7-2.84,1.25-6.38,1.48-7.91,4.26,1.58,2.95,3.06,5.41,4.26,8,13.02,27.97,24.68,56.51,35.34,85.47,1.06,2.89,2.37,5.7,3.78,8.44,1.47,2.85,3.5,3.66,6.24,2.13,2.11-1.18,3.81-3.09,5.54-4.55-6.75-17.9-13.27-35.18-19.94-52.85,5.42-3.71,10.61-7.27,15.96-10.94,6.64,3.37,12,8.33,16.74,13.77,4.62,5.31,9.2,10.9,12.5,17.06,3.34,6.24,5.08,13.33,7.6,20.25,4.8-.54,8-4.03,11.77-6.35,3.38-2.07,3.48-2.72,1.37-6.06-4.34-6.9-8.61-13.86-13.29-20.53-3.74-5.33-7.86-10.42-12.12-15.35-4.57-5.28-10.43-8.9-17.09-11.25Zm-96.15-763.39c-1.24,2.54-2.33,4.59-3.24,6.71-1.46,3.39-.95,4.79,2.24,6.72,4,2.42,5.85,2.49,8.08-.47,2.62-3.46,5.1-7.09,7.19-10.89,9.97-18.11,19.81-36.28,29.61-54.49,1.36-2.53,2.39-5.29,3.25-8.04,1.87-6.02,1.53-6.57-4.21-8.81-1.01-.39-1.97-.9-2.96-1.35-4.19-1.89-5.08-1.58-6.78,2.85-7.28,19.02-16.26,37.21-26.13,55-2.05,3.7-4.71,6.41-8.46,8.06-6.73,2.95-13.84,4.57-21.16,4.04-4.26-.31-8.76-1.08-12.6-2.84-12.28-5.6-18.06-19.12-14.62-32.72,4.71-18.61,12.53-35.91,22.1-52.48,4.85-8.39,4.72-8.72-3.77-13.65-4.57-2.65-5.24-2.52-8.18,2.1-1.26,1.99-2.48,4.03-3.44,6.17-6.76,15.09-12.36,30.6-16.08,46.73-3.32,14.38-.38,26.97,9.64,38.38,9.56,10.88,21.08,14.05,34.7,11.97,4.76-.73,9.46-1.91,14.81-3.01Zm150.86,5.33c-7.95,1.48-14.54,2.7-21.13,3.95-9.44,1.8-18.94,3.35-28.27,5.58-3.98,.95-7.13,.81-10.79-1.14-5.25-2.8-10.93-4.79-16.44-7.12-1.55-.66-3.13-.52-3.41,1.29-.13,.85,.97,2.1,1.82,2.82,.78,.67,2,.82,2.96,1.31,3.82,1.94,7.62,3.93,12.41,6.42-2.77,.8-4.29,1.33-5.85,1.68-9.73,2.17-19.53,4.08-29.19,6.5-7.55,1.89-14.97,4.28-22.38,6.68-3.22,1.04-3.45,3.27-.85,5.64,.79,.73,1.7,1.35,2.61,1.93,5.53,3.47,11.18,6.76,16.59,10.4,17.3,11.66,34.5,23.45,51.75,35.18,.9,.61,1.73,1.44,2.72,1.75,.68,.21,1.91-.06,2.31-.57,.4-.5,.38-1.82-.02-2.35-.85-1.13-1.98-2.12-3.15-2.94-10.57-7.36-21.21-14.63-31.76-22.01-7.58-5.3-15.05-10.74-22.59-16.08-.99-.7-2.13-1.18-3.2-1.77,.31-.48,.62-.97,.93-1.45,3.86-.66,7.74-1.2,11.57-2.01,14.02-2.95,28.03-5.9,42-9.05,3.81-.86,6.96-.58,10.07,2.02,4.03,3.37,8.36,6.37,12.57,9.53,1.61,1.21,3.23,2.52,5.31-.19-3.08-5.75-9.3-8.71-13.57-14.37,9.51-2.05,18.33-3.9,27.13-5.87,6.54-1.46,13.1-2.87,19.55-4.69,4.73-1.33,5.09-3.87,1.33-7.06-6.09-5.16-12.07-10.47-18.34-15.39-8.98-7.05-18.03-14.05-27.37-20.61-4.56-3.2-9.83-5.4-14.82-7.97-1.1-.56-2.38-.88-3.61-1.01-.55-.06-1.64,.56-1.67,.94-.07,.75,.32,1.63,.74,2.32,.24,.4,.9,.6,1.4,.79,12.4,4.71,22.67,12.89,33.12,20.69,6.48,4.83,12.47,10.32,19.54,16.23Zm-414.56,839.57c.31,2.01,.44,3.08,.64,4.14,1.99,10.69,3.96,21.37,6,32.05,.33,1.75,.67,3.67,2.94,4.11,4.21,.82,8.42,1.63,13.72,2.66-.9-13.78-3.85-26.65-4.93-39.71-1.08-13-3.11-25.91-4.45-38.89-1.36-13.06-2.39-26.16-3.62-39.9-1.76,.56-3.66,.71-4.95,1.67-3.62,2.7-7.1,5.62-10.44,8.68-4.94,4.54-9.39,9.66-14.61,13.83-13.52,10.8-24.93,23.76-37.33,35.71-6.52,6.28-12.53,13.09-18.73,19.7-1.07,1.14-2.79,2.48-1.22,4.12,1.61,1.69,2.88-.15,4.11-1.09,.43-.33,.78-.76,1.16-1.14,5.72-5.82,11.62-11.48,17.07-17.54,2.81-3.12,5.61-4.12,9.54-2.85,14.97,4.84,29.97,9.6,45.11,14.44Zm53.33-872.3c-8.82-8.81-17.48-16.56-25.08-25.25-13.49-15.44-26.2-31.56-39.51-47.17-5.16-6.06-11.08-11.47-16.61-17.22-1.88-1.96-4.17-2.48-6.43-1.29-2.73,1.44-1.09,3.9-.62,5.84,2.12,8.81,4.72,17.52,6.55,26.39,4.44,21.49,8.55,43.05,12.77,64.58,.38,1.95,.4,3.99,.93,5.89,.23,.79,1.38,1.32,2.11,1.98,.72-.88,1.61-1.67,2.07-2.67,.23-.49-.39-1.34-.53-2.05-3.54-18.15-7.07-36.31-10.58-54.47-1.18-6.1-2.29-12.22-3.63-19.42,2.16,2,3.44,3.24,4.77,4.43,15.13,13.48,26.39,30.41,40.12,45.13,6.81,7.3,13.63,14.6,20.28,22.04,3.18,3.55,6.82,4.51,11.25,3.2,.87-.26,1.78-.36,2.65-.6,3.57-.95,4.86-2.38,4.82-6.15-.03-2.69-.67-5.37-.88-8.07-1.61-20.62-3.12-41.24-4.79-61.85-.88-10.84-2.03-21.67-3.06-32.5-.12-1.26-.07-2.61-.52-3.75-.33-.84-1.35-1.4-2.07-2.09-.56,.81-1.63,1.63-1.6,2.42,.13,3.25,.63,6.49,.92,9.74,.88,9.94,1.76,19.88,2.57,29.82,1.57,19.34,3.1,38.69,4.59,58.04,.1,1.35-.26,2.74-.51,5.04Zm102.92,13.68c3-.36,5.34-.97,7.65-.87,7.29,.33,7.36-.62,7.44-8.44,.01-1.26-.21-2.53-.37-3.79-.8-6.47-1.57-12.95-2.45-19.41-2.95-21.76-5.95-43.51-11.13-64.88-.85-3.52-1.75-7.04-2.57-10.57-.69-2.94-2.8-3.03-5.06-1.85-1.04,.55-1.89,1.7-2.52,2.76-5.58,9.35-11.3,18.62-16.6,28.13-11.91,21.41-23.61,42.94-35.39,64.42-.44,.79-1.08,1.57-1.2,2.42-.1,.74,.17,1.96,.69,2.26,.56,.33,1.86,.13,2.37-.34,.9-.83,1.53-2.01,2.14-3.11,3.35-6.03,6.66-12.07,9.97-18.13,1.8-3.31,3.56-6.64,5.34-9.98,12.36,1.87,24.32,3.67,36.57,5.52,1.72,12.06,3.38,23.68,5.12,35.86Zm-235.4,750.1c11.35,5.93,22.24,11.63,33.16,17.29,.94,.49,2,.97,3.02,1.03,.72,.04,1.89-.49,2.1-1.05,.23-.62-.14-1.89-.69-2.31-1.27-.98-2.76-1.71-4.24-2.38-14.25-6.42-27.8-14.08-40.63-23.01-4.43-3.09-7.15-2.23-10.03,2.56-3.92,6.52-8.02,12.93-12.06,19.38-11.83,18.9-23.69,37.78-35.49,56.69-1.82,2.92-3.39,5.99-5.07,9-2.02,3.61-1.97,3.91,.97,7.03,.99,1.05,1.89,2.21,2.99,3.12,.87,.72,1.95,1.4,3.03,1.63,3.17,.65,5.29-.54,7.12-3.45,8.04-12.71,16.33-25.26,24.59-37.84,1.35-2.05,2.93-3.94,4.46-5.97,4.35,2.37,8.13,4.51,12,6.47,.6,.3,2.21-.03,2.3-.35,.23-.87,.23-2.21-.3-2.78-.96-1.02-2.35-1.64-3.61-2.36-2.49-1.43-5-2.81-7.61-4.27,8.13-13.02,16.07-25.74,23.99-38.42ZM857.07,296.85c3.84,3.72,7.25,6.49,10.01,9.81,9.27,11.16,18.3,22.53,27.47,33.77,1.16,1.43,2.25,4.25,4.54,2.64,2.51-1.76-.1-3.48-1.19-4.86-7.87-9.97-15.82-19.87-23.73-29.8-.53-.66-.92-1.43-1.27-1.97,8.41-10.38,18.93-17.78,29.32-26.02,2.42,2.63,4.84,5.31,7.32,7.92,1.37,1.44,2.77,2.88,4.31,4.12,1.38,1.11,2.69,.88,3.67-1.36-4.01-4.47-8.16-9.1-12.51-13.95,10.63-9.94,20-20.58,32.54-27.81,8.94,10.53,17.92,20.74,23.38,33.44,.5,1.17,.83,2.51,1.64,3.41,.68,.76,1.94,.99,2.95,1.46,.23-1.11,.5-2.21,.65-3.32,.04-.3-.29-.65-.44-.98-3.93-8.61-8.61-16.76-14.58-24.16-4.44-5.5-8.63-11.2-13.06-16.72-3.02-3.77-6.25-7.37-9.46-11.13-1.47,.94-2.45,1.4-3.23,2.1-21.5,19.24-43,38.48-64.43,57.81-1.51,1.36-2.4,3.41-3.9,5.61Zm-622.83-28.92c8.12-.03,15.73,2.62,22.84,6.93,10.84,6.58,15.05,16.25,12.67,28.7-.71,3.69-2.61,6.29-5.77,8.11-4.66,2.68-9.78,3.88-15.07,4.23-5.1,.34-8.21-2.84-7.94-7.96,.09-1.6,.43-3.32,1.16-4.72,1.5-2.88,.26-4.91-1.69-6.72-3.86-3.58-8.37-2.62-10.62,2.17-2.9,6.18,.14,14.6,6.71,18.2,5.11,2.8,10.58,3.47,16.35,2.62,12.79-1.87,22.22-8.38,27.97-19.98,3.83-7.71,2.16-16.43-3.96-22.5-4.89-4.85-10.7-8.19-17.31-9.86-9.71-2.45-19.63-4.15-29.64-3.08-7.25,.78-12.65-2.01-17.61-6.58-9.4-8.64-15.15-19.33-17.81-31.77-.81-3.78-.65-7.76,2.18-10.14,3.36-2.83,7.86-2.76,11.83-.61,4.38,2.37,7.45,5.75,7.14,11.23-.07,1.24-.06,2.6,.36,3.74,.74,1.99,2.22,3.42,4.56,3.09,2.31-.32,3.72-2.04,3.54-4.15-.22-2.45-.76-5.13-2.04-7.17-3.13-5.01-7.46-8.97-13.12-10.98-2.32-.83-5.01-1.25-7.45-1.02-10.47,.98-19.58,10.33-20.62,20.79-2.15,21.56,15.1,39.53,36.73,38.27,5.43-.31,10.86-.56,16.59-.86Zm579.5,511l1.09-.68c10.7,14.64,22.07,28.85,31.97,44.01,20.75,31.75,40.74,64,61.02,96.05,2.42,3.83,4.7,7.76,7.07,11.63,.66,1.08,1.29,2.24,2.2,3.08,.55,.5,1.96,.87,2.35,.55,.69-.57,1.28-1.77,1.19-2.63-.13-1.2-.81-2.4-1.44-3.48-2.19-3.77-4.35-7.55-6.7-11.21-12.54-19.56-25.65-38.77-37.59-58.69-17.1-28.55-35.18-56.35-56.46-81.97-1.97-2.37-2.19-4.57-1.76-7.48,1.95-13.09,3.99-26.19,5.32-39.36,1.85-18.22-1.98-35.46-11.32-51.21-5.55-9.35-11.82-18.28-17.87-27.32-1.11-1.66-2.39-4.73-4.78-3.12-2.93,1.97,.06,4.12,1.19,5.91,5.7,9.06,11.78,17.89,17.22,27.1,8.05,13.62,11.85,28.58,10.84,44.32-.82,12.83-2.99,25.57-4.6,38.35-.13,1.01-.62,1.97-1.17,3.65-1.64-1.96-2.97-3.39-4.12-4.94-8.65-11.67-17.31-23.32-25.85-35.06-2.64-3.63-5.74-7.08-6.26-11.9-.07-.65-1.23-1.77-1.67-1.67-.88,.19-2.19,.98-2.3,1.68-.23,1.54-.2,3.33,.4,4.73,1.06,2.48,2.43,4.89,4.01,7.08,10.2,14.12,20.49,28.18,30.77,42.26,1.16,1.58,2.38,3.12,2.92,3.82-.3,2.89-.49,4.71-.68,6.54h5.02Zm-79.88,174.42c1.73-.67,3.04-1.26,4.39-1.71,4.99-1.66,10.03-3.18,14.96-4.97,.96-.35,2.29-1.75,2.21-2.53-.22-2.06-2.05-1.46-3.46-1.28-.35,.04-.7,.19-1.04,.31-16.18,5.9-32.37,11.76-48.52,17.76-1.81,.67-5.12,1.26-3.52,4.21,1.34,2.46,3.53,.02,5.21-.61,5.39-2.02,10.71-4.21,15.86-6.25,5.59,6.84,30.28,89.5,29.79,99.09-2.04,.94-4.14,1.98-6.31,2.89-5.51,2.32-11.05,4.58-16.58,6.86-1.48,.61-3.55,.99-2.68,3.21,.85,2.17,2.76,1.11,4.24,.64,1.9-.6,3.78-1.3,5.59-2.12,12.24-5.5,24.5-10.98,36.68-16.61,6.25-2.89,12.39-6.04,18.5-9.24,.87-.46,1.92-2.08,1.71-2.84-.55-1.97-2.16-1.33-3.54-.65-5.54,2.72-11.07,5.44-16.62,8.13-1.72,.83-3.49,1.55-5.97,2.64-10.38-32.55-20.56-64.45-30.92-96.93Zm-362.98-432.69c-4.03,1.72-10.59-.12-12.94,6.76-3.89,.38-7.84,.91-11.81,1.1-3.43,.16-5.99,1.15-6.22,4.95-2.93,.35-5.46,.55-7.95,.98-1.39,.24-3.41,.49-3.94,1.42-1.63,2.87-4.24,2.21-6.65,2.69-2.4,.48-5.45,.75-6.85,2.33-1.42,1.6-2.7,2.03-4.44,2.29-1.97,.29-4.06,.3-5.87,1.01-1.05,.41-1.66,1.95-2.47,2.98,1.06,.41,2.11,.84,3.18,1.23,.15,.05,.35-.07,.53-.09,11.58-.74,23.15-1.48,34.73-2.22,1.73-.11,3.46-.27,5.39-.43-.1-1.88-.17-3.14-.25-4.76h8.61c.68-1.45,1.26-2.67,1.87-3.99,4.01,0,7.82,.03,11.62-.01,1.56-.02,3.72,.48,3.95-1.74,.23-2.28-1.91-2.19-3.5-2.34-1.77-.16-3.54-.24-5.32-.35,2.85-.94,5.72-1.28,8.58-1.7,2.33-.34,4.69-.6,6.95-1.24,.79-.22,1.97-1.86,1.8-2.16-.56-.94-1.62-1.65-2.6-2.25-.33-.2-1.02,.2-1.54,.3-2.8,.54-5.59,1.07-8.39,1.6,.85-1.21,1.86-1.55,2.89-1.67,5.94-.74,11.89-1.37,17.81-2.19,1.31-.18,3.26-.69,3.64-1.59,.98-2.33,2.67-2.13,4.46-2.06,3.26,.13,6.52,.4,9.78,.46,1.14,.02,2.29-.38,3.56-.61q-1.78-3.45-23.3-4.57c3.73-.56,7.48-1.09,11.25-1.21,8.16-.27,16.33-.28,24.49-.56,1.49-.05,3.54-.45,4.29-1.46,1.25-1.68,2.6-1.71,4.23-1.59,4.7,.34,9.4,.77,14.11,1.04,1.87,.11,4.04,.96,5.48-1.59-.35-.49-.68-1.45-1.14-1.52-7.5-1.08-15.03-2.04-22.54-3.03,7.49-.39,15.02-.37,22.55-.41,1.44,0,2.93-.05,4.28-.47,.59-.19,1.11-1.35,1.18-2.12,.04-.44-.8-1.14-1.39-1.41-.62-.28-1.42-.24-2.14-.24-16.69,.05-33.39,.15-50.08,.17-2.96,0-5.41,.57-6.04,4.17-2.66,0-5.03-.15-7.36,.06-1.38,.12-3.08,.44-3.95,1.33-.79,.81-.65,2.53-.91,3.82q-4.82,1.2-6.67,5.34c-1.35,.11-2.79,.16-4.22,.35-2.02,.27-4.97-.49-4.98,2.59,0,.9,2.88,1.81,4.28,2.63Zm15.22,65.47l-.11-.55c-6.21,1.25-12.48,2.23-18.6,3.81-20.55,5.29-41.03,10.86-61.57,16.19-14.39,3.74-29.1,6.48-43.21,11.06-42.47,13.77-84.31,29.31-124.95,47.87-11.53,5.26-22.59,11.57-33.79,17.53-2.71,1.44-5.18,3.35-7.7,5.13-1.33,.94-2.94,2.07-1.57,3.94,1.29,1.77,2.92,.74,4.35-.07,1.11-.62,2.15-1.36,3.26-1.97,9.18-5.12,18.17-10.66,27.61-15.26,28.73-14.01,58.56-25.41,88.57-36.36,19.93-7.28,39.66-15.21,60.36-20.13,31.07-7.38,62.05-15.02,92.71-23.99,5.17-1.51,10.7-1.8,16.07-2.62,.89-.14,1.96,.17,2.68-.22,.96-.52,1.65-1.53,2.45-2.32-.74-.67-1.38-1.73-2.24-1.94-1.37-.33-2.87-.09-4.32-.09Zm709.97,289.73c.72-6.12,.84-6.25-2.9-9.69-14.13-13.05-28.11-26.29-42.59-38.95-32.86-28.73-68.5-53.82-104.41-78.49-32.17-22.1-65.15-42.91-100.98-58.75-.78-.34-2.43-.16-2.79,.38-.45,.66-.37,2.36,.17,2.89,1.39,1.35,3.08,2.48,4.81,3.36,11.63,5.93,23.61,11.25,34.91,17.75,33.69,19.4,65.73,41.35,97.31,64.01,40.49,29.04,79.12,60.27,114.28,95.66,.49,.5,1.07,.91,2.17,1.83Zm-.09-29.95c1.41-4.54,.06-7.36-2.76-9.93-9.8-8.91-19.11-18.41-29.31-26.82-24.96-20.59-51.57-38.96-78.99-56.08-31.1-19.42-62.54-38.29-93.76-57.51-14.38-8.85-28.63-17.9-41.49-28.95-1.39-1.2-2.9-3.74-4.89-1.51-1.82,2.04,.4,3.71,1.86,4.92,5.04,4.16,9.91,8.61,15.36,12.14,21.02,13.61,42.1,27.14,63.43,40.25,34.01,20.92,68.36,41.29,100.88,64.55,23.97,17.15,47.17,35.14,67.28,56.82,.58,.63,1.28,1.15,2.37,2.12ZM458.91,488.53l-.16,.85c-9.97,0-19.94-.14-29.91,.06-4.78,.09-9.81-.69-14.01,2.88-.76,.65-2.44,.27-3.7,.25-1.08-.02-2.2-.44-3.22-.26-.74,.13-1.93,.99-1.91,1.49,.03,.9,.64,2.32,1.32,2.54,1.68,.55,3.54,.69,5.34,.74,17.41,.55,34.82,1.01,52.23,1.59,4.11,.14,8.21,.61,12.32,.93,.51-1.71,.87-3.02,1.29-4.31,.4-1.26,.85-2.51,1.37-4.02,2.52,.33,5.02,.7,7.53,.99,1.25,.14,3.03,.71,3.7,.11,3.76-3.39,7.44-.94,11.18-.31,1.05,.18,2.2-.18,3.39-.3-1.73-6.57-2.05-7.13-7.4-8.7-5.17-1.52-10.45-2.66-15.68-3.96,5.67,.17,11.22,.97,16.76,1.81,1.66,.25,3.29,.56,3.98-2.46-1.9-.68-3.77-1.74-5.74-2-12.23-1.58-24.49-2.91-36.72-4.47-4.49-.57-8.27,.71-11.93,3.19,.84,3.72,3.8,3.94,6.35,4.4,7.29,1.3,14.61,2.39,21.92,3.56-3.68,.24-7.28-.05-10.88-.35-7.59-.63-15.24-.89-22.75-2.05-3.83-.59-7.28-.58-10.72,.51-.86,2.29,.11,3.46,1.9,3.97,1.56,.44,3.19,.64,4.81,.85,6.45,.84,12.9,1.65,19.35,2.47Zm-170.32,97.87c2.71-1.83,3.89-3.73,2.88-5.99-1.14-2.55-3.73-1.97-5.78-1.48-4.59,1.09-9.12,2.42-13.65,3.72-19.53,5.59-38.96,11.59-58.6,16.74-53.54,14.04-106.79,29.04-159.17,46.96-6.69,2.29-13.25,4.95-19.82,7.58-1.64,.66-3.18,1.75-4.53,2.9-.47,.4-.57,1.81-.23,2.4,.34,.6,1.47,1.08,2.21,1.03,1.04-.07,2.04-.68,3.05-1.07,5.58-2.18,11.06-4.64,16.74-6.49,25.71-8.34,51.4-16.77,77.24-24.69,50.64-15.53,102.58-26.54,152.86-43.34,2.68-.9,4.89-.69,6.81,1.72Zm807.23,217.87c1.03-5.39,1.12-5.51-2.31-8.18-12.17-9.47-24.14-19.24-36.68-28.21-34.64-24.76-71.99-44.99-109.76-64.47-23.06-11.89-46.32-23.51-66.12-40.71-1.15-1-2.69-1.96-3.67-.31-.49,.83-.03,2.89,.73,3.67,2.53,2.59,5.16,5.19,8.16,7.17,11.37,7.47,22.6,15.23,34.44,21.88,17.72,9.95,35.96,18.95,53.89,28.52,41.89,22.37,81.95,47.54,118.24,78.37,.92,.78,1.95,1.44,3.08,2.28Zm-837.08-203.41c-.72-.5-1.61-1.6-2.59-1.69-1.76-.17-3.64,.04-5.37,.5-28.23,7.49-56.59,14.5-84.33,23.79-31.84,10.66-63.83,20.89-94.51,34.65-14.9,6.68-29.61,13.77-44.31,20.87-3.22,1.56-6.14,3.84-8.93,6.13-.78,.64-1.17,2.83-.67,3.7,.94,1.66,2.45,.57,3.74-.17,5.96-3.44,11.8-7.15,17.96-10.2,22.62-11.21,45.78-21.23,69.49-29.89,42.12-15.38,84.71-29.3,128.22-40.26,5.42-1.36,10.97-2.18,16.47-3.23,2.18-.42,4.36-.79,4.83-4.2Zm344.96-76.47c-.24-3.4-2.07-4.04-4.59-3.55-.89,.17-1.81,.24-2.67,.5-13.43,4.13-27.51,5.46-40.72,10.96-8.07,3.36-16.7,6.46-26.16,6.03-5.22-.24-10.61,2.06-15.84,3.53-5.94,1.66-7.39,6.51-3.69,12.18,9.17-2.07,18.43-4.17,27.78-6.28-.28-1.83-.48-3.21-.72-4.8,1.7-.57,3.21-1.08,4.77-1.6,.6,1.5,1.09,2.73,1.71,4.28,10-2.68,19.71-5.29,29.36-7.87-.36-5.57,.17-6.66,5.24-7.6,4.2-.78,8.54-.8,13.93-1.26-3.65,2.67-7.75,4.13-8.43,6.54-1,3.56-6.17,3.08-5.69,7.47,3.37,1.13,6.51,2.07,10.26,.92,4.82-1.48,9.87-2.2,14.82-3.3,1.12-.25,2.2-.73,3.3-1.1-.61-1.14-1.24-2.28-1.84-3.44-.23-.45-.38-.94-.72-1.79,2.55-.78,4.94-1.53,7.35-2.23,3.21-.93,3.48-1.81,1.33-4.22-.48-.54-1.03-1.2-1.12-1.87-.46-3.51-.58-3.66-3.79-2.81-1.04,.27-2.04,.7-3.84,1.33Zm-160.95,32.39c-.2,2.12-.33,3.54-.46,4.96,1.52,.05,3.15,.49,4.53,.08,3.45-1.04,6.74-2.65,10.19-3.71,11.07-3.39,22.09-7.02,33.35-8.02,.81-2.81,1.48-5.15,2.31-8.03-5.83-1-11.08,1.97-16.72,.48,4.77-1.14,9.54-2.28,15.41-3.68-1.63-1.42-2.38-2.61-3.29-2.73-1.57-.22-3.25,.07-4.84,.38-32.46,6.33-64.37,14.65-95.26,26.61-2.03,.79-4.05,1.6-6.05,2.45-1,.43-2.23,.75-2.84,1.53-.78,.98-1.04,2.38-1.52,3.6,1.28,.4,2.64,1.3,3.81,1.09,1.72-.3,3.33-1.34,4.94-2.16,2.24-1.13,4.33-2.61,6.66-3.5,22.08-8.44,45.1-13.74,67.85-19.94,3.04-.83,6.17-1.3,9.25-1.94-1.02,1.07-2.2,1.45-3.39,1.78-10.48,2.91-20.96,5.79-31.43,8.75-1.55,.44-3.14,1.05-4.43,1.98-.68,.49-1.23,1.99-.97,2.72,.27,.77,1.57,1.6,2.45,1.63,1.18,.04,2.43-.56,3.57-1.07,2.28-1.01,4.52-2.13,6.89-3.26Zm-40.21,242.67c-.78,17.32,2.11,29.26,6.2,40.97,.41,1.18,.95,2.4,1.75,3.32,.46,.53,1.72,.85,2.36,.6,.63-.25,1.37-1.38,1.3-2.04-.18-1.78-.62-3.56-1.23-5.25-4.37-12.1-6.51-24.58-5.52-37.4,1.1-14.27,1.91-28.64,4.29-42.73,3.61-21.37,11.23-41.6,20.29-61.25,1.18-2.57,3.39-4.65,4.9-7.1,.54-.88,.39-2.18,.56-3.28-1.16-.03-2.57-.49-3.41,.01-1.34,.8-2.55,2.09-3.37,3.44-1.97,3.25-3.89,6.56-5.47,10.01-15.31,33.49-22.8,68.69-22.64,100.7Zm-102.13-230.02c4.46-.35,8.76-.68,12.22-.95,2.2-3.16,4-5.74,5.69-8.17,1.65-.12,3.01,.04,4.15-.38,.8-.3,1.52-1.32,1.81-2.18,.1-.31-1.13-1.51-1.8-1.56-2.52-.18-5.07-.13-7.61-.03-4.87,.2-9.74,.5-14.61,.76,1.69-1.29,3.53-1.91,5.42-2.15,9.36-1.16,18.74-2.22,28.11-3.32,1.48-.17,3.25-.47,2.79-2.41-.19-.79-1.89-1.72-2.9-1.72-2.89,0-5.78,.38-8.66,.75-8.46,1.09-16.93,2.1-25.34,3.44-3.73,.59-3.92,1.29-3.59,4.91,.05,.54-.17,1.19-.47,1.65-.86,1.33-1.82,2.6-2.79,3.95-3.45,1.11-8.3,.06-9.2,5.61-.06,.36-1.25,.59-1.94,.79-5.54,1.61-11.11,3.13-16.62,4.87-.97,.31-1.66,1.48-2.49,2.26,.94,.65,1.88,1.83,2.82,1.83,2.52,0,5.04-.56,7.56-.83,9.16-.97,18.32-1.91,27.8-2.89-.09-1.06-.18-2.23-.35-4.25Zm-10.41-52.72c-1.91-.78-3.41-1.38-4.94-2,1.04-.28,1.9-.59,2.79-.73,2.32-.36,4.68-.53,6.96-1.04,.64-.14,1.5-1.21,1.48-1.83-.02-.62-.95-1.64-1.58-1.73-1.59-.21-3.31-.3-4.84,.1-8.74,2.28-17.45,4.67-26.13,7.17-1.28,.37-2.81,1.3-3.35,2.4-.48,.99,.24,2.56,.45,4-6.58,3.33-13.04,6.59-19.5,9.86-1.13,.57-2.62,.91-3.29,1.83-3.44,4.69-8.8,6.1-13.63,8.46-1.27,.62-2.5,1.5-3.44,2.55-1.19,1.34-.46,3.29,1.2,3.1,2.57-.29,5.08,.45,7.81-.9,4.5-2.22,9.41-3.86,14.33-4.87,3.22-.66,4.87-1.69,4.45-5.35,3.5-.67,6.68-1.29,9.85-1.89,1.81-.34,4.71,.44,4.42-2.51-.24-2.42-2.93-1.29-4.58-1.63-.24-.05-.43-.3-1.45-1.05,7.36-1.98,14.09-3.79,20.95-5.64v-3.41c3.48-2.71,8.56-.44,12.03-4.89Zm543.7,40c.25-.31,.5-.62,.75-.93,1.43,.66,2.83,1.42,4.3,1.94,1.88,.66,3.49,3.27,5.77,1.33,1.39-1.18-.14-3.07-4.08-5.31-6.13-3.48-12.21-7.06-18.38-10.49-.79-.44-1.92-.26-2.89-.37,.11,1.13-.17,2.53,.4,3.32,1.02,1.43,3.35,2.29,3.72,3.74,.87,3.46,3.26,5.54,5.44,7.93,.68,.75,1.17,1.76,1.52,2.73,1.73,4.76,4.26,9.02,7.92,12.51,2.69,2.57,6.2,4.36,7.18,8.47,.21,.9,1.4,1.63,2.24,2.3,5.28,4.23,11.12,7.97,12.98,15.13,.08,.32,.43,.57,.67,.84,4.99,5.53,10.28,10.74,16.95,14.26,1.6,.85,3.62,3.23,5.13,.79,1.41-2.27-1.58-3.04-2.83-4.43-3.15-3.48-9.01-4.88-8.68-11.21,.04-.82-1.64-1.78-2.59-2.6-.95-.83-2.72-1.45-2.86-2.36-.65-4.27-4.16-5.6-7.03-7.65-.55-.4-1.29-1.02-1.32-1.58-.18-3.02-2.54-4.14-4.5-5.73-1.02-.83-1.83-2.1-2.35-3.33-2.13-5.08-5.16-9.37-9.7-12.64-2.76-1.99-5.19-4.44-7.77-6.68Zm-371.7,8.64l-.64-.83c9.91-2.86,19.82-5.69,29.71-8.61,1.83-.54,5.3,.15,4.48-3.13-.61-2.46-3.46-1.32-5.23-.81-12.02,3.44-24.01,7-35.99,10.58-1.37,.41-2.75,1.04-3.9,1.87-1.85,1.33-1.79,3.68,.35,4.18,2.46,.57,3.01,2.14,3.84,4.11-.63,.31-1.25,.62-1.87,.93-1.46,.72-3.39,1.35-2.65,3.43,.8,2.22,2.63,1.19,4.16,.7,9.68-3.13,19.46-5.79,29.7-6.39,1.04-.06,2.04-.89,3.06-1.36l-.25-1.49c-6.88-2.63-13.75,.61-20.67,.89,2.44-.97,4.91-1.88,7.44-2.51,3.86-.96,7.8-1.64,11.65-2.66,.79-.21,1.32-1.38,1.98-2.11-.79-.59-1.53-1.54-2.39-1.68-1.2-.19-2.52,.13-3.75,.41-6.34,1.47-12.67,3-19.01,4.51Zm-16.6,56.82c.42-3.11-1.1-3.86-2.75-3.95-2.14-.11-4.37-.04-6.45,.43-10.19,2.3-19.59,6.77-28.23,12.36-3.48,2.25-6.91,4.31-10.66,5.96-1.53,.67-3.01,1.57-2.46,3.64,.4,1.52,3.02,2.38,4.65,1.11,5.19-4.05,11.63-4.83,17.52-7.01,3.73-1.38,7.65-2.23,11.42-3.5,1.06-.36,1.91-1.37,2.85-2.08-.8-.81-1.59-1.63-2.4-2.43-.24-.24-.5-.44-.85-.75,5.37-3,11.15-4.04,17.38-3.76Zm86.68-93.31c-1-3.74-3.75-4.53-6.8-4.5-9.53,.1-18.73,1.98-27.61,5.41-1,.39-2.14,.9-2.73,1.7-.64,.89-.72,2.2-1.04,3.32,1.11,.08,2.47,.61,3.28,.16,7-3.84,14.73-4.99,22.42-6.2,2.4-.38,4.9-.06,7.36-.06-1.08,1.3-2.38,1.67-3.6,2.23-2.94,1.35-5.92,2.66-8.72,4.27-.88,.51-1.9,2.13-1.68,2.91,.54,1.9,2.12,1.12,3.59,.77,5.63-1.32,11.26-2.68,16.95-3.62,4.28-.71,4.98-1.13,5.64-6.41h-7.06Zm93.69-1.73l.3,1.08c-1.05,.93-2.13,1.82-3.12,2.8-.9,.88-1.88,1.76-2.46,2.84-.34,.63-.26,1.91,.18,2.41,.39,.45,1.59,.42,2.35,.24,.64-.16,1.16-.82,1.7-1.29,5.84-5,12.5-8.57,19.66-11.26,.84-.32,1.79-.51,2.48-1.03,.48-.36,.9-1.24,.8-1.78-.1-.54-.82-1.29-1.37-1.38-1.27-.2-2.59-.06-3.32-.06,1.19-3.24,2.29-6.23,3.31-9-2.6-2.16-4.03-.58-5.45,.35-5.44,3.57-10.83,7.23-16.23,10.87-.75,.5-1.59,.99-2.1,1.69-.47,.66-.93,1.72-.7,2.37,.19,.56,1.32,.89,2.09,1.13,.58,.18,1.25,.03,1.89,.03Zm-109.78-53.84c-.19,3.88,.31,4.59,3.92,4.98,6.1,.66,12.21,1.22,18.33,1.67,3.55,.26,3.98-.7,2.08-4.72,.88-.25,1.83-.3,2.5-.76,.63-.43,1.4-1.38,1.29-1.95-.11-.62-1.09-1.24-1.82-1.56-.62-.27-1.43-.05-2.14-.12-5.37-.58-10.73-1.23-16.11-1.73-.92-.09-1.89,.45-3.22,.8,.83,1.57,1.43,2.72,2.27,4.3-2.5-.32-4.59-.59-7.1-.92Zm-8.96-5.8c1.2,0,2.41,.05,3.61,0,7.39-.35,14.77-.72,22.16-1.08,.72-.03,1.49,.14,2.14-.08,.6-.2,1.53-.84,1.5-1.22-.06-.75-.53-1.64-1.11-2.14-.47-.41-1.36-.51-2.05-.49-7.75,.22-15.51,.4-23.26,.79-2.08,.1-3.87,1.05-3.01,4.23Z" />
    <path
        d="M643.7,294.13c.82,1.15,1.41,1.99,2.18,3.07,3.43-4.52,8.37-.4,12.62-2.49,.82,1.67,1.51,3.07,2.24,4.55,1.89-1.34,3.62-2.57,5.28-3.75,9.16,2.14,18.18,4.26,27.66,6.48,2.75,3.82,2.87,5.22,8.8-.06,2.89,3.22,3.8,11.54,11.14,5.07,2.81,2.06,7.12,2.04,7.37,7.16,2.91-1.09,5.54-2.09,6.54,1.99,.24,.96,2.2,1.91,3.49,2.13,6.53,1.11,12.75,3.99,19.13,4.73,6.75,.78,9.51,5.88,14.03,9.06,2.92,2.05,5.76,4.24,8.49,6.54,1.76,1.48,3.58,3.07,4.78,4.99,4.76,7.6,5.94,16.28,6.98,24.95,1.17,9.73,2.17,19.47,3.31,29.2,.73,6.21-.79,11.68-5.75,15.61-3.22,2.54-4.08,5.63-4.32,9.45-.38,5.95-1.19,11.87-1.82,17.8-.34,3.24-1.94,5.71-4.32,7.91-5.86,5.44-12.71,9.09-20.41,10.86-3.69,.85-5.83,2.75-6.78,6.15-1.17,4.15-2.68,8.22-1.82,12.75,.54,2.84-.94,5.73-3.26,6.9-9.64,4.82-16.95,12.3-24.01,20.09-3.64,4.01-7.32,8.02-10.51,12.37-2.33,3.17-3.95,6.88-5.75,10.42-.97,1.91-.84,1.98-3.87,3.37-4.31-8.05-.84-16.49-1.41-24.56-.98,.64-2.09,1.35-3.37,2.18-.59-.85-1.05-1.38-1.36-2-1.6-3.16-2.72-3.29-4.61-.47-.3,.45-.47,.99-.78,1.43-1.85,2.62-3.46,2.6-4.54-.34-.82-2.23-.98-4.71-1.59-7.87-6.98-5.63-10.37-16.63-7.35-27.07-2.13-.12-4.09-.23-6.65-.37-.36-1.53-.79-3.39-1.22-5.26-1.43-.51-3.32-.65-4.14-1.65-.67-.83-.12-2.7-.03-4.11,.11-1.59,.31-3.17,.45-4.66-4.51-1.55-4.67-1.56-4.54-5.95,.06-1.99-.92-2.95-2.2-4.02-6.82-5.71-14.02-11.04-20.33-17.27-9.13-9.01-19.52-16.2-30.04-23.34-3.56-2.42-7.29-3.87-11.53-4.45-17.07-2.33-34.14-4.75-51.19-7.19-7.78-1.11-12.67-5.99-13.57-13.37-.89-7.26,4.05-12.39,11.36-11.59,3.01,.33,5.97,1.11,8.89,1.67,1.17-2.32,.8-3.7-1.4-4.58-1.91-.77-3.74-1.75-6.71-3.15,6.1-4.25,11.19-5.52,16.99-1.63l.4-1.05c-1.65-.87-3.31-1.75-4.96-2.62l1-1.99c2.47-.63,4.93-1.25,7.58-1.92-.38-3.02-.81-6.1-1.16-9.18-.22-1.9,.05-3.15,2.29-4.19,2.63-1.22,4.71-3.61,7.41-5.8,1.33,.8,2.98,1.79,4.79,2.88,4.76-4.1,8.84-8.79,12.5-14.25,1.1,.31,2.25,.62,3.61,1,2.11-5.38,6.77-5.64,11.75-5.26,.12-2,.23-3.72,.34-5.64,4.66-.63,8.42-2.48,12.12-5.15,3.66-2.64,8.21-4.08,12.42-5.93,2.92-1.28,6.06-2.12,8.84-3.64,1.96-1.08,3.33-2.76,6.09-1.87,.9,.29,2.52-1.7,4.41-3.08Zm68.97,136.19c1.22-1.18,2.44-2.35,3.76-3.62,3.39,5.47,3.34,5.45,.93,9.98-1.53,2.88-4.25,5.95-4.03,8.76,.36,4.75-1.77,8.73-2.35,13.03,3.73,2.12,3.76,2.24,1.96,5.17-1.5,2.44-2.99,4.9-4.53,7.44,1.59,.57,2.71,.98,4.1,1.48-.62,1.93-1.16,3.58-1.75,5.42,6.71,2.43,6.99-3.77,9.59-7.23,3.74,3.01,5.4-.54,7.65-2.56,1.58,1.13,2.96,2.12,4.2,3,4.99-2.08,4.34-2.89,4.03-6.82-1.69-21.6,3.12-42.23,9.39-62.6,1.3-4.23,3.58-8.39,6.25-11.94,4.25-5.64,13.48-7.18,18.01-3.43,5.2,4.31,8.85,9.59,9.14,16.67,.08,1.9,.29,3.8,.49,6.4,4.68-3.67,4.27-8.02,3.82-12.28-1.03-9.56-2.11-19.12-3.33-28.65-1.02-7.91-2.01-15.87-6.73-23.09-2.04,.22-4.14,.15-5.22-2.35-.27-.62-1.47-1.03-2.3-1.16-1.95-.31-2.95-1.44-4.13-3.02-5.55-7.44-7.11-8.25-16.71-8.26-3.14,0-4.77-1.61-6.17-3.91-1.95,.92-3.55,1.67-5.31,2.5-2.17-2.89-4.06-5.89-8.24-5.02-.51,.11-1.59-.55-1.75-1.06-1.29-4.11-5.27-1.52-7.52-3.11-3.17,2.16-3.74-.94-4.68-2.65-3.47,1.91-6.43,1.57-9.27-.45-4.36,1.62-5.89-1.91-7.98-4.41-1.84-2.21-6.21-3.62-7.45-1.86-1.78,2.52-3.84,1.53-5.17,.73-3.96-2.38-8.55-2.18-12.57-3.65-3.15-1.15-5.74-1.13-9.1-.03-.92-1.46-1.86-2.96-2.84-4.52-2.13,1.37-3.49,2.98-4.76,2.92-4.32-.2-7.91,4.57-12.66,1.66-.69-.42-2.61,.8-3.76,1.57-2.42,1.61-4.39,3.63-3.83,8.49-2.83-2.9-5.55-3.11-6.82-1.15-2,3.09-5.46,3.22-8.02,5.07-2.25,1.63-5.06,3.71-7.51,3.58-4.07-.22-5.35,1.89-5.92,3.64-3.03,1.75-5.06,2.92-7.56,4.37-.43-.08-1.58-.28-3.16-.55,.68,3.82-1.12,5.5-4.06,6.38-2.75,.83-3.02,2.74-2.15,5.15,.56,1.57,1,3.18,1.5,4.8-2.75,1.38-6.04-.42-7.15,3.25,2.01,2.71,4.13,5.55,6.4,8.61-2.6,1.86-3.73,4.05-2.65,7.06,6.71,.93,12.23,4.06,17.08,8.73,5.79,5.57,13.14,7.62,20.94,7.77,4.48,.08,5.78-2.68,3.5-6.48-.65-1.08-1.51-2.05-2.33-3.01-1.48-1.72-1.84-3.71-.63-5.53,1.56-2.36,3.21-4.82,5.36-6.57,2.36-1.91,5.27-3.21,8.07-4.48,1.77-.81,3.78-1.51,5.69-1.52,6.36-.03,12.68,.37,18.57,3.33,2.74,1.38,5.67,2.49,8.62,3.35,4.62,1.34,7.45,4.36,9,8.72,3.88,10.9,3.86,21.72-1.1,32.3-3,6.41-6.29,12.68-9.42,19.03-1.98,4-3.92,8.03-6.2,12.71,3.15,.28,5.56,.5,8.42,.76,.22,2.35,.43,4.59,.6,6.43,1.78,2,3.39,3.83,5.2,5.87,1.52,.48,3.63-2.08,5.79,.43-1.36,3.57-2.76,7.22-4.16,10.88l.98,.42c1.44-1.95,2.89-3.91,4.45-6.04,2.13,1.25,3.78,2.22,5.51,3.24-.87,4.2-1.7,8.17-2.48,11.88,2.57,.77,5.27,1.58,7.9,2.37,2.4-2.48,1.5-5.52,1.86-8.33,.19-1.51,.69-3.22,1.65-4.28,.37-.41,2.43,.71,3.93,1.2,3.67-21.19,7.32-42.27,10.98-63.36,.19-1.07,.22-2.28,.78-3.12,.49-.73,1.61-1.04,2.46-1.53,.41,.72,1.14,1.45,1.15,2.18,.02,1.43-.5,2.86-.55,4.3-.04,1.2-.11,2.68,.49,3.59,2.45,3.69,2.07,7.16,.37,11.06-2.24,5.12-4.69,10.27-4.39,16.12-3.24,2.01-2.07,4.96-2.02,8.53,2.87-3.03,1.25-6.07,1.86-8.68Z" />
    <path
        d="M436.86,637.27c3.96-2.23,8.7-3.48,10.38-8.54,.19-.56,1.06-.96,1.69-1.28,4.5-2.26,9.03-4.48,13.95-6.91-.83-4.14,1.89-5.59,5.62-6.36,2.17-.45,4.76-.56,4.9-3.98,.03-.77,1.75-1.72,2.85-2.16,6.91-2.74,13.87-5.38,20.83-8.01,1.01-.38,2.13-.86,3.14-.75,1.09,.12,2.11,.89,3.16,1.37-.74,.82-1.32,2-2.23,2.38-3.48,1.45-7.07,2.65-10.53,4.32,5.32,.87,10.69-3.14,16.63,.12-3.62,4.24-8.61,1.88-12.09,4.6,1.25,.3,2.53,.4,3.6,.94,.65,.33,1.38,1.39,1.29,2.01-.08,.61-1.1,1.42-1.81,1.54-2.3,.38-4.64,.48-7.46,.73,.8,3.27-.61,4.7-3.46,5.01-.65,.07-1.66,.47-1.8,.93-.82,2.8-3.15,2.61-5.38,2.71-.29,1.47-.14,3.21-.93,3.99-.88,.87-2.61,.92-3.99,1.22-2.13,.45-4.3,.71-6.41,1.23-.99,.25-2.69,.95-2.67,1.4,.14,3.6-2.45,3.27-4.72,3.87-2.42,.63-4.98,1.43-6.98,2.86-8.1,5.8-16.75,11.11-23.87,17.97-24.68,23.79-45.78,50.55-63.5,79.92-10.93,18.11-18.56,37.75-25.89,57.5-3.25,8.77-3.91,18.03-4.54,27.29-.86,12.66-1.9,25.31-2.97,37.96-.15,1.76-.66,3.62-1.51,5.15-.44,.79-2.01,1.22-3.08,1.23-.38,0-1.18-1.73-1.1-2.6,.22-2.52,1-4.99,1.2-7.51,.84-10.66,1.84-21.32,2.25-32.01,.6-15.8,4.58-30.61,10.19-45.38,17.9-47.12,47.34-86.3,82.03-122.02,4.03-4.15,8.74-7.63,13.15-11.4,1.2-1.03,2.46-1.99,3.46-3.39-8.22,2.89-17.34,3.58-23.74,10.6-.63,.69-1.91,.88-2.93,1.08-2.84,.56-5.74,.89-8.56,1.54-2.35,.54-4.98,.54-5.94,3.82-.31,1.05-2.63,1.62-4.11,2.2-8.62,3.36-17.3,6.55-25.86,10.04-2.08,.85-3.79,2.6-5.67,3.93-.27-.06-.47-.17-.57-.33-1.52,.6-3.37,1.35-4.03-.69-.28-.85,.87-2.76,1.86-3.32,3.89-2.18,7.82-4.5,12.03-5.86,4.62-1.49,7.48-4.21,9.04-8.61,1.82,.51,3.69,1.21,4.83-1.26q-2.49-.3-4.82,1.27c-1.69,.54-3.39,1.04-5.05,1.63-5.28,1.89-10.57,3.77-15.82,5.76-2.39,.9-4.54,3.54-7.29,.59-.27-.29-1.36,.04-2.02,.26-.85,.29-1.67,.71-2.47,1.14-21.42,11.56-42.6,23.51-62.05,38.27-6.51,4.94-13.22,9.62-19.67,14.62-7.45,5.78-14.86,11.65-22.05,17.75-7.61,6.46-15.09,13.1-22.39,19.92-28.87,26.95-54,56.84-72,92.3-5.59,11.01-11.34,21.93-17.03,32.89-.42,.8-.73,1.8-1.4,2.29-.77,.57-2.38,1.23-2.74,.9-.75-.69-1.23-2.02-1.24-3.08,0-1,.68-2.04,1.18-3,11.47-22.07,22.12-44.61,36.37-65.1,5.69-8.18,11.84-16.07,18.13-23.82,19.68-24.23,42.69-45.19,66.79-64.74,20.4-16.55,41.2-32.82,64.28-45.76,6.45-3.62,12.65-7.7,18.96-11.57l-.45-1.04c-1.97,.65-3.97,1.2-5.9,1.95-14.69,5.79-29.36,11.64-44.06,17.41-4.39,1.72-8.84,3.31-13.31,4.84-9.49,3.26-18.36,7.72-27,12.82-26.11,15.41-52.35,30.59-77.8,47.12-23.22,15.09-41.73,34.79-58.76,56.2-3.5,4.4-6.99,8.82-10.5,13.21-.45,.57-.97,1.08-1.48,1.6-1.41,1.46-3.05,3.31-4.98,1.26-1.84-1.95,.1-3.57,1.36-5.12,4.92-6.05,9.81-12.12,14.69-18.21,.33-.41,.48-.96,1.11-2.23-1.46,.67-2.42,.87-3.05,1.44-3.21,2.94-6.33,5.97-9.48,8.98-1.39,1.33-2.73,3.69-4.86,1.72-2.03-1.87-.04-3.71,1.17-5.16,1.62-1.95,3.43-3.76,5.3-5.47,10.47-9.53,20.75-19.31,31.57-28.43,7.61-6.41,16.03-11.87,24.02-17.84,7.12-5.32,14.12-10.78,21.21-16.13,6.95-5.25,13.76-10.7,20.94-15.6,11.1-7.57,22.37-14.9,33.74-22.06,8.29-5.22,16.82-10.06,25.33-14.91,2.18-1.24,4.67-2.01,7.08-2.78,1.6-.51,3.6-.63,4.01,1.43,.15,.77-1.36,2.35-2.44,2.81-13.41,5.8-29.7,15.55-41.17,25.36,1.12-.53,2.28-.99,3.35-1.61,5.19-2.99,10.46-5.86,15.52-9.07,10.03-6.36,20.78-11.07,31.91-15.15,13.8-5.06,27.34-10.83,41.13-15.93,12.25-4.53,24.66-8.63,37.05-12.75,2.39-.79,3.89-1.62,3.22-4.37-2.85-.39-5.05,3.3-8.03,1.37-.41-5.91,2.38-9.08,7.47-11.13,8.08-3.25,15.98-6.95,23.95-10.46,1.85-.82,3.7-1.7,5.16,1.47-5.38,4.07-12.14,5.39-17.5,9.55,1.29-.27,2.59-.51,3.88-.82,1.94-.46,3.86-1.06,5.82-1.41,1.72-.31,4.07-1.03,4.61,1.36,.67,2.95-2.19,2.12-3.69,2.58-5.25,1.63-10.53,3.17-15.8,4.75,.1,.34,.2,.67,.3,1.01,7.71-1.93,15.4-3.89,23.13-5.76,2.4-.58,4.75-1.42,7.04,1.02,.73,.78,3.37,.25,4.91-.31,12.43-4.53,24.79-9.25,37.23-13.77,1.72-.62,3.74-.41,6.02-.63-.17,2.23-.28,3.73-.4,5.22-2.28,0-4.75-.59-6.8,.1-8.75,2.93-17.38,6.22-26.03,9.43-1.37,.51-2.63,1.3-3.94,1.97,1.95,.11,3.64-.43,5.33-.95,6.4-1.96,12.76-4.08,19.23-5.81,3.01-.81,6.44-.1,8.22-3.85,.36-.76,2.62-.62,4-.9Z" />
    <path
        d="M668.26,573.97c2.86,.77,5.08,1.36,6.4,1.72,2.87,4.58,5.46,8.47,7.8,12.5,2.45,4.23,5.06,8.44,6.91,12.94,7.23,17.62,14.2,35.35,21.24,53.05,4.46,11.19,10.36,21.55,17.52,31.24,2.89,3.92,5.3,8.21,7.84,12.38,1.12,1.83,1.47,3.73-.49,5.36-1.85,1.54-3.66,1.27-5.43-.12-1.1-.86-2.53-1.54-3.21-2.67-2.61-4.32-5.41-8.61-7.37-13.23-7.48-17.62-20.6-30-36.36-40.03-1.84-1.17-3.8-2.21-5.42-3.63-7.84-6.88-17.32-8.42-27.28-9.17-16.38-1.23-31.71,2.64-46.63,8.75-2.66,1.09-5.13,2.69-7.58,4.23-2.69,1.69-4.8,4.4-8.7,3.45-1.07-.26-2.6,1.07-3.83,1.82-14.39,8.8-29.61,16.18-43.35,26.11-5.25,3.79-11.39,6.35-17.13,9.48-13.54,7.38-27.16,14.61-40.56,22.23-3.99,2.27-8.28,3.39-12.49,4.83-.91,.31-2.69-.15-3.23-.87-1.16-1.55,.17-2.66,1.51-3.39,1.27-.69,2.65-1.19,3.94-1.85,9.83-5.06,19.55-10.33,29.49-15.18,17.48-8.53,33.65-19.31,50.39-29.11,10.16-5.95,19.88-12.69,29.68-19.24,8.45-5.65,16.78-11.48,25.07-17.35,3.07-2.18,5.87-4.74,8.85-7.05,.99-.77,2.15-1.31,3.26-1.91,6.26-3.42,11.53-7.86,16.29-13.28,6.2-7.07,13.25-13.4,19.95-20.03,1.67-1.65,3.37-3.28,5.11-4.87,.79-.71,1.66-1.77,2.56-1.84,3.04-.24,4.34-2.2,5.25-5.25Z" />
    <path
        d="M298.87,644.11c2.26,0,4.55-.23,6.76,.09,1.18,.17,3.04,1.16,3.16,1.99,.29,1.89-1.59,1.86-3.04,2.13-6.22,1.15-12.43,2.38-18.64,3.63-1.06,.21-2.44,.35-3.05,1.06-4.14,4.85-10.56,5.1-16,8.07,.89,2.05,2.45,4.47-1.2,5.38-1.7,4.39-6.2,4.15-9.56,5.82-6.14,3.07-12.25,6.2-18.86,9.55-1.11-.5-2.88-1.29-4.7-2.11-.58-2.94,1.51-3.95,3.32-5.03,1.87-1.12,3.51-2.17,4.46-4.43,.62-1.46,2.5-2.57,4.04-3.42,3.98-2.17,8.08-4.12,12.14-6.14,2.54-1.26,5.41-1.87,6.92-4.85,.53-1.05,2.39-1.48,3.7-2.07,1.92-.87,3.9-1.62,5.62-3.2-3.66,.87-7.4,1.52-10.98,2.66-13.66,4.34-27.33,8.67-40.88,13.33-16.99,5.85-33.73,12.44-50.82,17.95-25.4,8.19-48.85,20.4-72.08,33.22-14.93,8.24-30.15,15.98-45.32,23.78-4.02,2.07-8.33,3.59-12.57,5.2-2.02,.77-4.18,1.22-6.3,1.68-1.5,.32-3.23,.21-3.36-1.67-.06-.89,1.07-2.08,1.95-2.75,.82-.62,2.04-.69,3.06-1.07,3.41-1.25,6.82-2.49,10.2-3.8,2.34-.9,4.75-1.6,5.16-4.83,.12-.93,1.68-1.78,2.7-2.48,20.39-14.05,41.9-25.98,64.72-35.73,24.86-10.63,49.28-22.28,73.96-33.33,10.6-4.75,21.24-9.43,32.07-13.59,19.48-7.48,39.14-14.51,58.7-21.79,3.06-1.14,6.01-2.57,8.99-3.9,.65-.29,1.64-.62,1.78-1.12,1.21-4.41,5.11-4.69,8.51-5.7,8.35-2.48,16.72-4.89,25.09-7.33,.69-.2,1.4-.6,2.08-.56,.64,.03,1.65,.39,1.79,.84,.24,.73,.21,1.94-.25,2.42-.88,.93-2.15,1.49-3.04,2.75,4.78-1.62,9.51-3.44,14.37-4.78,2.13-.59,4.54-.36,6.81-.19,.51,.04,1.34,1.39,1.28,2.08-.05,.65-1.03,1.71-1.67,1.77-8.81,.79-16.29,6.01-24.98,6.88-.35,1.75-.22,3.37-.97,4.28-.83,1.02-2.42,1.47-3.74,2.02-9.39,3.87-18.82,7.66-28.19,11.57-1.75,.73-3.33,1.86-5.81,3.27,3.06,1.34,4.73,.12,6.43-.44,7.23-2.38,14.44-4.85,21.7-7.17,1.72-.55,4.28-2.08,4.96,.87,.54,2.35-2.15,2.4-3.8,2.94-5.62,1.83-11.23,3.65-16.85,5.47l.23,.76Zm-118.28,31.21c.33,.11,.72,.4,.98,.32,33.63-10.82,65.76-26.39,101.08-31.63-.83-5.29-.92-5.49,3.4-7.54,6.72-3.18,13.58-6.09,20.39-9.06,2.62-1.14,5.29-2.16,7.94-3.23-24.41,4.33-120.95,41.58-133.8,51.14Zm-90.79,41.58l-.33-.62c-1.13,.63-2.26,1.27-3.38,1.9l.35,.68,3.36-1.97Z" />
    <path
        d="M527.38,967.91c14.69,.08,28.35,1.32,41.65,5.3,12.35,3.7,19.26,12.4,20.6,25.15,1.48,14.13-3.71,24.75-15.97,31.92-.47,.27-.94,.55-1.38,.86-.14,.09-.2,.29-.5,.74,1.57,.51,3.04,1.03,4.53,1.46,9.04,2.62,14.72,8.77,16.6,17.7,1.93,9.14-1.05,17.41-8,23.6-6.74,6-14.56,10.3-24.02,10.09-10.5-.24-21,1.87-31.49-.09-2.62-.49-5.21-1.11-8.11-1.74,0-5.78-.29-11.18,.05-16.55,1.92-30.02,4.02-60.03,6-90.05,.18-2.65,.02-5.31,.02-8.39Zm7.99,112.93c1.36,.24,2.22,.55,3.09,.53,6.51-.1,13.03-.16,19.54-.46,1.94-.09,4.24-.41,5.69-1.52,7.56-5.82,13.32-12.32,11.47-22.91-.84-4.83-2.98-9.84-5.87-13.79-3.78-5.16-8.67-9.57-16.33-7.67-2.38,.59-5.05,.15-7.58,.02-2.08-.11-4.16-.45-6.67-.74-1.13,15.8-2.22,31.06-3.33,46.53Zm4.54-51.36c4.62,1.67,13.74,2.13,18.05,.87,5.39-1.57,9.95-3.9,11.55-10.05,3.33-12.79,2.12-25.18-2.97-37.21-2.19-5.19-5.56-9.2-12.06-9.04-2.32,.05-4.65-.75-7-.88-1.53-.09-3.08,.33-4.03,.44-1.21,19.08-2.38,37.47-3.55,55.87Z" />
    <path
        d="M650.22,1037.9c2.16,17.42,4.25,34.26,6.37,51.38-6.43,1.39-12.06,3.42-18.37,.93-.19-2.4-.33-4.72-.55-7.04-1.19-12.08-2.28-24.17-3.63-36.24-1.58-14.06-3.29-28.11-5.14-42.14-1.04-7.9-2.49-15.76-3.76-23.63-.56-3.46,.49-5.22,3.73-5.74,5.51-.89,11.03-2.15,16.58-2.37,8.84-.35,17.79-.63,26.56,.27,12.54,1.29,23.41,14.12,23.73,26.72,.26,10.19-2.81,17.87-11.01,27.18,1.86,1.1,3.67,2.19,5.5,3.24,5.7,3.28,9.87,8.08,12.42,14,4.49,10.45,6.33,21.53,6.74,32.86,.07,1.94,.37,4.41-2.07,5.09-2.71,.75-5.61,1.15-8.41,1.08-.65-.02-1.76-2.57-1.77-3.97-.04-8.26-2.22-16.12-4.07-24.06-3.01-12.95-10.25-18.45-23.34-19.34-6.47-.44-12.5,.75-19.51,1.78Zm-7.9-59.92c2.58,18.51,5.12,36.77,7.73,55.43,9.26-.71,17.81-2.49,25.99-6.31,9.27-4.34,13.83-11.65,15.31-21.55,1.92-12.8-6.43-25.69-19.14-28.1-9.13-1.73-18.41-1.56-27.64-.34-.52,.07-1,.38-2.24,.87Z" />
    <path
        d="M324.28,114.83c4.53-.27,8.07-.58,11.61-.66,2.65-.06,3.62,2.01,4.53,4.06,3.16,7.13,6.26,14.29,9.54,21.37,3.43,7.41,7.02,14.74,10.56,22.1,.61,1.28,1.34,2.5,2.24,4.17,14.62-8.07,29.01-16.01,43.89-24.22-3.52-17.4-7.02-34.59-10.43-51.81-.21-1.08-.13-2.91,.52-3.36,3.51-2.45,7.02-5.17,12.22-4.72,2.59,6.02,3.95,12.39,5.15,18.73,2.6,13.72,4.62,27.55,7.41,41.22,2.75,13.5,6.16,26.86,9.29,40.28,.21,.88,.47,1.75,.63,2.64,1.12,6.13,.94,6.38-4.92,8.45-1.5,.53-2.93,1.27-4.53,1.97-3.95-5.07-5.45-10.8-6.69-16.66-1.84-8.69-3.71-17.38-5.65-26.05-.46-2.07-1.24-4.06-2.02-6.56-14.61,8.07-28.68,15.84-43.21,23.87,2.54,5.55,4.79,10.87,7.36,16.02,3.41,6.81,7.08,13.49,10.62,20.22,.42,.8,.81,1.63,1.15,2.46,2.35,5.71-.34,9.66-6.55,9.31-1.14-.06-2.6-1.23-3.25-2.29-3.31-5.42-6.61-10.86-9.51-16.49-8.65-16.76-17.25-33.56-25.6-50.47-4.49-9.1-8.47-18.46-12.61-27.74-.64-1.44-.93-3.04-1.76-5.87Z" />
    <path
        d="M1095.83,899.26c-35.18-19.84-70.04-39.51-104.91-59.18-.22,.26-.44,.53-.66,.79,.85,1,1.64,2.06,2.57,2.98,29.87,29.2,59.67,58.47,91.8,85.24,2.23,1.86,4.31,3.9,6.36,5.95,1.11,1.11,1.75,2.71,.21,3.72-.72,.48-2.36,.04-3.34-.47-1.26-.66-2.26-1.8-3.38-2.73-36.71-30.38-70.62-63.76-104.36-97.31-6.76-6.72-14.1-12.32-22.31-17.17-31.25-18.49-62.29-37.34-93.38-56.09-2.33-1.4-4.57-2.97-6.69-4.67-.92-.74-1.66-1.93-2.01-3.07-.19-.63,.38-1.85,.98-2.26,.55-.37,1.79-.31,2.4,.09,8.35,5.42,16.48,11.19,24.98,16.35,20.49,12.44,41.14,24.61,61.73,36.87,1.5,.89,3.09,1.64,5.16,1.89-.85-.99-1.64-2.05-2.57-2.96-25.31-24.78-51.13-49.01-78.33-71.73-9.2-7.68-18.17-15.64-27.14-23.58-2.15-1.91-4.12-4.13-5.73-6.5-.6-.87-.45-3.1,.27-3.84,1.4-1.46,2.38,.18,3.42,1.23,3.83,3.85,7.57,7.84,11.71,11.32,26.41,22.21,52.79,44.45,77.61,68.46,12.14,11.74,24.31,23.45,36.32,35.32,4.3,4.25,8.99,7.79,14.27,10.75,37.22,20.86,74.36,41.86,111.57,62.74,2.94,1.65,5.34,3.23,3.44,7.86Z" />
    <path
        d="M346.96,231.16c.56,4.41-1.58,8.41-4.54,12.33-9.33,12.37-34.43,18.53-49.03,9.02-9.03-5.88-16.7-12.84-21.97-22.19-7.95-14.09-14.74-28.76-19.3-44.31-1.61-5.49-2.03-11.39-2.44-17.15-.5-7.04,2.12-13.23,6.86-18.36,2.7-2.92,5.65-5.67,8.82-8.05,9.35-7,19.23-5.69,26.1,3.73,2.52,3.45,3.96,7.7,5.79,11.64,.36,.78,.37,1.79,.3,2.68-.18,2.59-2.23,4.38-4.71,4.26-2.28-.11-3.97-1.81-3.99-4.3,0-1.24,.39-2.49,.7-3.71,1.31-5.17-1.21-8.73-4.92-11.78-3.68-3.03-8.01-4.2-12.14-1.83-4.55,2.61-7.61,7.06-7.66,12.4-.04,5.19,.41,10.6,1.88,15.55,6.92,23.33,17.82,44.77,31.92,64.58,3.82,5.36,8.48,9.91,14.41,13.03,5.59,2.95,11.37,3.06,16.62-.12,4.12-2.5,8.04-5.73,11.06-9.44,1.68-2.06,1.89-5.8,1.78-8.75-.28-7.93-4.13-12.6-11.68-15.12-3.48-1.17-4.52-2.48-3.75-4.78,.96-2.88,4.04-4.7,6.89-3.88,3.29,.95,5.71,3.12,7.52,5.96,3.48,5.47,5.6,11.37,5.46,18.59Z" />
    <path
        d="M832.99,956.97c6.67,2.35,12.53,5.97,17.09,11.25,4.26,4.93,8.38,10.01,12.12,15.35,4.68,6.67,8.95,13.63,13.29,20.53,2.1,3.34,2,3.99-1.37,6.06-3.78,2.32-6.98,5.81-11.77,6.35-2.51-6.92-4.26-14.01-7.6-20.25-3.3-6.16-7.87-11.75-12.5-17.06-4.74-5.45-10.1-10.4-16.74-13.77-5.36,3.67-10.54,7.22-15.96,10.94,6.67,17.67,13.18,34.95,19.94,52.85-1.73,1.46-3.43,3.37-5.54,4.55-2.74,1.53-4.77,.72-6.24-2.13-1.41-2.74-2.72-5.55-3.78-8.44-10.66-28.95-22.32-57.49-35.34-85.47-1.21-2.59-2.68-5.05-4.26-8,1.52-2.79,5.07-3.02,7.91-4.26,4.88-2.15,4.86-1.98,6.91,2.7,6.32,14.46,12.71,28.89,19.14,43.48,9.08-4.58,17.16-10.63,22.51-19.58,5.64-9.45,7.7-19.52,3.25-30.17-2.43-5.81-3.83-12.17-8.95-16.59-.62-.54-.81-2.61-.3-3.24,1.26-1.57,2.61-.52,3.51,.76,2.17,3.09,4.37,6.17,6.31,9.4,1.01,1.69,1.43,3.72,2.25,5.54,5.9,13.04,4.18,25.42-3.08,37.37-.26,.43-.41,.93-.8,1.84Z" />
    <path
        d="M736.83,193.58c-5.35,1.1-10.04,2.28-14.81,3.01-13.62,2.09-25.14-1.09-34.7-11.97-10.02-11.4-12.96-23.99-9.64-38.38,3.72-16.13,9.32-31.64,16.08-46.73,.96-2.14,2.18-4.19,3.44-6.17,2.94-4.62,3.61-4.76,8.18-2.1,8.48,4.93,8.62,5.26,3.77,13.65-9.58,16.57-17.39,33.86-22.1,52.48-3.44,13.6,2.34,27.12,14.62,32.72,3.85,1.75,8.34,2.53,12.6,2.84,7.32,.52,14.43-1.09,21.16-4.04,3.75-1.64,6.41-4.36,8.46-8.06,9.86-17.79,18.85-35.98,26.13-55,1.69-4.43,2.58-4.73,6.78-2.85,.99,.44,1.96,.95,2.96,1.35,5.73,2.24,6.08,2.79,4.21,8.81-.86,2.75-1.89,5.51-3.25,8.04-9.8,18.2-19.64,36.38-29.61,54.49-2.09,3.8-4.57,7.42-7.19,10.89-2.24,2.96-4.08,2.89-8.08,.47-3.19-1.93-3.7-3.33-2.24-6.72,.91-2.12,2-4.16,3.24-6.71Z" />
    <path
        d="M887.69,198.91c-7.07-5.91-13.06-11.39-19.54-16.23-10.45-7.8-20.72-15.98-33.12-20.69-.5-.19-1.16-.39-1.4-.79-.42-.69-.81-1.56-.74-2.32,.03-.38,1.12-1,1.67-.94,1.23,.14,2.51,.45,3.61,1.01,4.99,2.56,10.26,4.76,14.82,7.97,9.34,6.56,18.39,13.56,27.37,20.61,6.27,4.93,12.25,10.23,18.34,15.39,3.76,3.19,3.4,5.73-1.33,7.06-6.45,1.81-13.01,3.22-19.55,4.69-8.8,1.97-17.62,3.82-27.13,5.87,4.27,5.66,10.48,8.62,13.57,14.37-2.07,2.71-3.69,1.4-5.31,.19-4.2-3.16-8.54-6.17-12.57-9.53-3.11-2.6-6.27-2.88-10.07-2.02-13.97,3.15-27.99,6.1-42,9.05-3.83,.81-7.71,1.35-11.57,2.01-.31,.48-.62,.97-.93,1.45,1.07,.58,2.21,1.07,3.2,1.77,7.55,5.34,15.02,10.78,22.59,16.08,10.56,7.38,21.19,14.65,31.76,22.01,1.17,.82,2.3,1.81,3.15,2.94,.4,.53,.42,1.85,.02,2.35-.41,.51-1.63,.78-2.31,.57-.99-.31-1.83-1.14-2.72-1.75-17.24-11.74-34.45-23.53-51.75-35.18-5.41-3.65-11.06-6.93-16.59-10.4-.91-.57-1.82-1.2-2.61-1.93-2.6-2.38-2.37-4.6,.85-5.64,7.41-2.4,14.83-4.79,22.38-6.68,9.67-2.42,19.46-4.33,29.19-6.5,1.56-.35,3.08-.88,5.85-1.68-4.79-2.48-8.59-4.47-12.41-6.42-.97-.49-2.18-.64-2.96-1.31-.84-.72-1.95-1.98-1.82-2.82,.28-1.8,1.86-1.94,3.41-1.29,5.5,2.32,11.19,4.31,16.44,7.12,3.66,1.96,6.81,2.1,10.79,1.14,9.33-2.24,18.83-3.78,28.27-5.58,6.58-1.26,13.18-2.47,21.13-3.95Z" />
    <path
        d="M473.13,1038.48c-15.15-4.84-30.15-9.6-45.11-14.44-3.93-1.27-6.73-.27-9.54,2.85-5.45,6.06-11.36,11.71-17.07,17.54-.38,.39-.73,.82-1.16,1.14-1.23,.94-2.5,2.77-4.11,1.09-1.57-1.65,.15-2.99,1.22-4.12,6.2-6.61,12.21-13.42,18.73-19.7,12.4-11.95,23.81-24.91,37.33-35.71,5.22-4.17,9.67-9.3,14.61-13.83,3.33-3.06,6.81-5.98,10.44-8.68,1.29-.96,3.19-1.11,4.95-1.67,1.23,13.74,2.27,26.83,3.62,39.9,1.35,12.98,3.37,25.89,4.45,38.89,1.09,13.06,4.03,25.93,4.93,39.71-5.29-1.02-9.51-1.84-13.72-2.66-2.27-.44-2.6-2.36-2.94-4.11-2.04-10.68-4.01-21.36-6-32.05-.2-1.06-.33-2.13-.64-4.14Zm-46.11-19.65c15.85,4.85,30.51,9.33,45.93,14.05-1.46-17.96-2.85-35.03-4.24-52.1l-1.09-.48c-12.68,13.07-27.5,23.85-40.6,38.53Z" />
    <path
        d="M526.47,166.18c.25-2.3,.62-3.69,.51-5.04-1.49-19.35-3.02-38.69-4.59-58.04-.81-9.94-1.69-19.88-2.57-29.82-.29-3.25-.79-6.48-.92-9.74-.03-.78,1.04-1.61,1.6-2.42,.71,.69,1.73,1.25,2.07,2.09,.45,1.14,.4,2.49,.52,3.75,1.04,10.83,2.18,21.65,3.06,32.5,1.67,20.61,3.18,41.24,4.79,61.85,.21,2.7,.85,5.38,.88,8.07,.04,3.77-1.25,5.2-4.82,6.15-.88,.23-1.79,.34-2.65,.6-4.43,1.31-8.07,.35-11.25-3.2-6.65-7.44-13.47-14.73-20.28-22.04-13.73-14.73-24.99-31.65-40.12-45.13-1.33-1.19-2.62-2.43-4.77-4.43,1.35,7.2,2.46,13.32,3.63,19.42,3.51,18.16,7.04,36.32,10.58,54.47,.14,.71,.76,1.55,.53,2.05-.46,.99-1.36,1.79-2.07,2.67-.73-.65-1.88-1.18-2.11-1.97-.54-1.9-.55-3.94-.93-5.89-4.22-21.54-8.34-43.09-12.77-64.58-1.83-8.87-4.43-17.58-6.55-26.39-.46-1.94-2.11-4.4,.62-5.84,2.26-1.19,4.54-.66,6.43,1.29,5.53,5.75,11.44,11.16,16.61,17.22,13.31,15.61,26.02,31.73,39.51,47.17,7.59,8.69,16.26,16.44,25.08,25.25Z" />
    <path
        d="M434.46,453.87c1.19,1.35,3.61,3.09,3.33,3.99-.91,2.96-3.64,1.13-5.6,1.06-9.94-.37-19.87-.86-29.88-.33,2.83,.36,5.67,.72,8.5,1.07,1.62,.2,3.35,.12,4.82,.69,.91,.35,1.43,1.69,2.12,2.59-.89,.43-1.79,1.27-2.66,1.23-3.8-.15-7.59-.6-11.39-.84-1.94-.12-3.9-.02-6.76-.02,3.35,1.59,7.24,.1,8.46,4.2-1.73,1.88-3.76,1.1-5.62,.89-9.42-1.06-18.8-1-28.15,1.39,3.16,0,6.37-.32,9.47,.09,2.8,.37,6.6-1.24,8.41,3.36-4.07,1.91-8.14,.13-12.22,1.02,.11,.68,.27,1.31,.28,1.94,.01,.51-.15,1.03-.35,2.27h-20.19l-.12,1.18c1.27,.36,2.59,.59,3.78,1.14,.5,.23,1.01,1.15,.94,1.68-.06,.54-.78,1.32-1.31,1.41-1.41,.25-2.88,.25-4.32,.25-3.63,.01-7.26-.1-10.89,0-2.25,.06-4.65-.37-6.01,2.5-.41,.85-2.54,1.13-3.91,1.21-3.05,.17-6.13,.05-10.23,.05,2.41,2.05,6.17,.64,5.59,3.87-.48,2.65-3.29,1.52-5.12,1.53-11.92,.07-23.09,3.31-33.97,8.13,1.52,0,3.05-.01,4.57,0,2.36,.02,4.72-.07,7.06,.16,.68,.07,1.88,1.28,1.78,1.58-.32,.86-1.07,1.67-1.86,2.19-.53,.35-1.41,.21-2.13,.23-11.5,.32-22.76,1.8-33.41,6.53-.66,.29-2.25,.04-2.36-.3-.29-.88-.37-2.29,.16-2.87,.92-1.02,2.26-1.82,3.58-2.29,2.56-.9,5.21-1.53,7.84-2.22,2.54-.67,5.29-.66,6.23-4.16,.31-1.14,2.47-2,3.94-2.58,4.03-1.6,8.15-2.99,12.58-4.59-.16-4.1,2.84-5.34,6.23-5.96,8.17-1.5,15.67-4.94,23.39-7.77,4.06-1.48,8.41-2.18,12.83-3.28,.58-1.16,.94-2.93,2.03-3.76,1.2-.91,3.04-1.09,4.64-1.34,2.33-.36,4.69-.53,7.04-.72,2.35-.19,4.61-.11,5.48-3.22,.25-.88,2.33-1.54,3.67-1.77,3.93-.67,7.9-1.06,12.02-1.59,2.28-6.5,8.31-4.22,13.26-5.44,.57-3.41,3.15-4.17,6.31-4.28,3.08-.1,6.15-.44,9.7-.71,.28-4.34,3.59-5.03,7.17-5.14,2.55-.08,4.95,0,6.79-2.42,.61-.8,2.29-.95,3.52-1.06,1.98-.17,3.99-.09,5.99-.05,5.58,.1,7.53-1.15,9.45-6.18,9.34,.99,18.69,1.92,28.03,3.02,2.69,.31,5.38,.89,7.96,1.7,2.1,.67,3.37,2.11,1.59,4.67-2.62-.7-5.2-1.4-7.9-2.12-1.46,1.31-.76,4.93-4.11,3.82-.23-.08-.82,.19-.83,.31-.27,5.49-3.82,2.78-6.28,2.45-5.45-.73-10.89-1.62-16.45-1.68,1.5,.82,3,1.63,4.34,2.37,.03,2.5-1.4,2.8-2.93,2.56-2.68-.42-5.32-1.04-8-1.56-5.84-.57-11.65-1.16-17.47-1.75,3.28,2.2,12.14,2.7,17.58,1.66Z" />
    <path
        d="M629.39,179.87c-1.74-12.18-3.4-23.8-5.12-35.86-12.25-1.85-24.21-3.66-36.57-5.52-1.78,3.33-3.54,6.67-5.34,9.98-3.3,6.05-6.62,12.1-9.97,18.13-.61,1.1-1.24,2.28-2.14,3.11-.51,.47-1.81,.67-2.37,.34-.52-.31-.79-1.52-.69-2.26,.12-.84,.76-1.62,1.2-2.42,11.78-21.48,23.48-43.01,35.39-64.42,5.29-9.51,11.01-18.78,16.6-28.13,.63-1.06,1.48-2.22,2.52-2.76,2.26-1.18,4.37-1.1,5.06,1.85,.83,3.53,1.72,7.05,2.57,10.57,5.18,21.38,8.18,43.13,11.13,64.88,.88,6.46,1.64,12.94,2.45,19.41,.16,1.26,.38,2.53,.37,3.79-.08,7.82-.15,8.77-7.44,8.44-2.3-.1-4.64,.5-7.65,.87Zm-12.54-88.18c-3.06,.57-4.68,2.24-5.98,4.58-6.21,11.26-12.55,22.45-18.8,33.68-.76,1.37-1.29,2.87-2.13,4.77,11.31,1.67,22.11,3.26,33.72,4.97-2.35-16.55-4.57-32.26-6.81-48Z" />
    <path
        d="M393.99,929.97c-7.92,12.68-15.86,25.4-23.99,38.42,2.61,1.46,5.12,2.84,7.61,4.27,1.25,.72,2.65,1.35,3.61,2.36,.53,.56,.53,1.91,.3,2.78-.08,.32-1.7,.65-2.3,.35-3.87-1.96-7.65-4.09-12-6.47-1.52,2.02-3.11,3.92-4.46,5.97-8.25,12.58-16.55,25.13-24.59,37.84-1.84,2.91-3.95,4.1-7.12,3.45-1.08-.22-2.15-.91-3.03-1.63-1.11-.91-2-2.07-2.99-3.12-2.94-3.12-2.99-3.42-.97-7.03,1.68-3,3.25-6.08,5.07-9,11.8-18.92,23.66-37.8,35.49-56.69,4.04-6.45,8.14-12.86,12.06-19.38,2.88-4.79,5.6-5.64,10.03-2.56,12.83,8.93,26.37,16.59,40.63,23.01,1.48,.67,2.97,1.4,4.24,2.38,.55,.42,.93,1.69,.69,2.31-.21,.56-1.38,1.09-2.1,1.05-1.03-.06-2.08-.54-3.02-1.03-10.91-5.66-21.81-11.37-33.16-17.29Z" />
    <path
        d="M857.07,296.85c1.5-2.2,2.39-4.25,3.9-5.61,21.42-19.33,42.92-38.57,64.43-57.81,.78-.7,1.77-1.16,3.23-2.1,3.21,3.76,6.44,7.37,9.46,11.13,4.42,5.52,8.62,11.21,13.06,16.72,5.97,7.4,10.65,15.55,14.58,24.16,.15,.33,.48,.68,.44,.98-.15,1.12-.42,2.22-.65,3.32-1-.47-2.27-.7-2.95-1.46-.81-.9-1.14-2.24-1.64-3.41-5.46-12.69-14.44-22.9-23.38-33.44-12.53,7.22-21.91,17.87-32.54,27.81,4.35,4.85,8.5,9.48,12.51,13.95-.98,2.25-2.29,2.47-3.67,1.36-1.54-1.24-2.94-2.68-4.31-4.12-2.48-2.61-4.9-5.29-7.32-7.92-10.39,8.23-20.91,15.64-29.32,26.02,.35,.55,.74,1.31,1.27,1.97,7.91,9.93,15.87,19.83,23.73,29.8,1.09,1.38,3.7,3.1,1.19,4.86-2.29,1.61-3.38-1.22-4.54-2.64-9.17-11.25-18.19-22.61-27.47-33.77-2.76-3.32-6.17-6.09-10.01-9.81Z" />
    <path
        d="M234.24,267.93c-5.73,.29-11.16,.54-16.59,.86-21.63,1.25-38.89-16.72-36.73-38.27,1.04-10.45,10.15-19.8,20.62-20.79,2.44-.23,5.12,.19,7.45,1.02,5.66,2.01,9.98,5.97,13.12,10.98,1.27,2.04,1.82,4.72,2.04,7.17,.19,2.12-1.23,3.83-3.54,4.15-2.34,.33-3.81-1.1-4.56-3.09-.42-1.14-.43-2.5-.36-3.74,.31-5.48-2.76-8.86-7.14-11.23-3.98-2.15-8.47-2.22-11.83,.61-2.83,2.38-2.98,6.37-2.18,10.14,2.66,12.44,8.41,23.13,17.81,31.77,4.97,4.56,10.36,7.36,17.61,6.58,10.01-1.08,19.93,.63,29.64,3.08,6.61,1.67,12.41,5.01,17.31,9.86,6.12,6.07,7.79,14.78,3.96,22.5-5.75,11.6-15.19,18.1-27.97,19.98-5.77,.85-11.25,.18-16.35-2.62-6.57-3.6-9.61-12.02-6.71-18.2,2.25-4.79,6.76-5.76,10.62-2.17,1.96,1.82,3.2,3.84,1.69,6.72-.73,1.4-1.07,3.12-1.16,4.72-.28,5.13,2.83,8.3,7.94,7.96,5.29-.35,10.4-1.55,15.07-4.23,3.16-1.82,5.07-4.42,5.77-8.11,2.38-12.45-1.83-22.12-12.67-28.7-7.11-4.32-14.72-6.97-22.84-6.93Z" />
    <path
        d="M813.74,778.93h-5.02c.19-1.82,.38-3.64,.68-6.54-.54-.7-1.76-2.24-2.92-3.82-10.27-14.07-20.56-28.13-30.77-42.26-1.58-2.19-2.95-4.6-4.01-7.08-.6-1.4-.63-3.19-.4-4.73,.11-.7,1.41-1.49,2.3-1.68,.44-.09,1.6,1.02,1.67,1.67,.52,4.82,3.61,8.27,6.26,11.9,8.55,11.74,17.21,23.4,25.85,35.06,1.15,1.56,2.48,2.98,4.12,4.94,.55-1.68,1.04-2.64,1.17-3.65,1.61-12.78,3.78-25.52,4.6-38.35,1.01-15.74-2.8-30.7-10.84-44.32-5.44-9.21-11.52-18.04-17.22-27.1-1.12-1.79-4.11-3.94-1.19-5.91,2.39-1.61,3.67,1.46,4.78,3.12,6.05,9.05,12.33,17.97,17.87,27.32,9.34,15.75,13.18,32.99,11.32,51.21-1.34,13.16-3.37,26.26-5.32,39.36-.43,2.91-.21,5.11,1.76,7.48,21.28,25.62,39.36,53.43,56.46,81.97,11.93,19.92,25.05,39.13,37.59,58.69,2.35,3.66,4.52,7.45,6.7,11.21,.63,1.09,1.31,2.28,1.44,3.48,.09,.86-.5,2.06-1.19,2.63-.39,.33-1.81-.04-2.35-.55-.91-.84-1.54-2-2.2-3.08-2.37-3.87-4.64-7.8-7.07-11.63-20.28-32.06-40.27-64.3-61.02-96.05-9.91-15.16-21.27-29.37-31.97-44.01l-1.09,.68Z" />
    <path
        d="M733.86,953.35c10.36,32.48,20.54,64.38,30.92,96.93,2.48-1.09,4.25-1.81,5.97-2.64,5.55-2.69,11.08-5.41,16.62-8.13,1.38-.68,2.98-1.32,3.54,.65,.21,.75-.83,2.38-1.71,2.84-6.1,3.2-12.24,6.35-18.5,9.24-12.18,5.64-24.44,11.11-36.68,16.61-1.82,.82-3.7,1.52-5.59,2.12-1.48,.47-3.38,1.52-4.24-.64-.87-2.22,1.2-2.6,2.68-3.21,5.53-2.28,11.07-4.54,16.58-6.86,2.16-.91,4.27-1.95,6.31-2.89,.49-9.59-24.2-92.26-29.79-99.09-5.15,2.04-10.47,4.23-15.86,6.25-1.68,.63-3.86,3.07-5.21,.61-1.6-2.94,1.71-3.53,3.52-4.21,16.14-6,32.34-11.86,48.52-17.76,.34-.12,.69-.26,1.04-.31,1.4-.18,3.23-.78,3.46,1.28,.08,.78-1.24,2.18-2.21,2.53-4.94,1.79-9.98,3.32-14.96,4.97-1.36,.45-2.67,1.03-4.39,1.71Z" />
    <path
        d="M370.88,520.67c-1.41-.82-4.29-1.73-4.28-2.63,.01-3.08,2.97-2.32,4.98-2.59,1.42-.19,2.87-.24,4.22-.35q1.85-4.13,6.67-5.34c.26-1.29,.12-3.01,.91-3.82,.87-.9,2.57-1.21,3.95-1.33,2.33-.2,4.69-.06,7.36-.06,.63-3.6,3.08-4.17,6.04-4.17,16.69-.02,33.39-.11,50.08-.17,.72,0,1.51-.04,2.14,.24,.59,.27,1.43,.97,1.39,1.41-.07,.77-.59,1.93-1.18,2.12-1.34,.43-2.84,.47-4.28,.47-7.53,.04-15.06,.02-22.55,.41,7.52,.99,15.04,1.96,22.54,3.03,.46,.07,.79,1.03,1.14,1.52-1.44,2.55-3.61,1.69-5.48,1.59-4.71-.27-9.4-.7-14.11-1.04-1.63-.12-2.99-.09-4.23,1.59-.75,1.01-2.8,1.41-4.29,1.46-8.16,.28-16.33,.28-24.49,.56-3.76,.13-7.51,.65-11.25,1.21q21.52,1.12,23.3,4.57c-1.28,.23-2.42,.63-3.56,.61-3.26-.07-6.52-.33-9.78-.46-1.79-.07-3.48-.27-4.46,2.06-.38,.9-2.33,1.41-3.64,1.59-5.92,.82-11.88,1.45-17.81,2.19-1.03,.13-2.03,.47-2.89,1.67,2.8-.53,5.59-1.06,8.39-1.6,.53-.1,1.21-.5,1.54-.3,.98,.6,2.04,1.31,2.6,2.25,.18,.3-1.01,1.94-1.8,2.16-2.25,.64-4.62,.9-6.95,1.24-2.86,.42-5.73,.77-8.58,1.7,1.77,.11,3.55,.19,5.32,.35,1.59,.14,3.74,.05,3.5,2.34-.23,2.22-2.39,1.73-3.95,1.74-3.8,.04-7.61,.01-11.62,.01-.62,1.31-1.19,2.53-1.87,3.99h-8.61c.09,1.62,.15,2.89,.25,4.76-1.93,.16-3.66,.32-5.39,.43-11.57,.75-23.15,1.48-34.73,2.22-.18,.01-.38,.14-.53,.09-1.07-.39-2.12-.82-3.18-1.23,.81-1.03,1.42-2.57,2.47-2.98,1.81-.71,3.9-.72,5.87-1.01,1.74-.26,3.03-.69,4.44-2.29,1.4-1.58,4.45-1.84,6.85-2.33,2.41-.48,5.02,.18,6.65-2.69,.53-.93,2.55-1.17,3.94-1.42,2.49-.44,5.02-.64,7.95-.98,.23-3.8,2.79-4.79,6.22-4.95,3.97-.19,7.92-.72,11.81-1.1,2.34-6.88,8.91-5.04,12.94-6.76Z" />
    <path
        d="M386.09,586.14c1.45,0,2.95-.24,4.32,.09,.85,.2,1.5,1.26,2.24,1.94-.81,.8-1.5,1.8-2.45,2.32-.72,.39-1.79,.09-2.68,.22-5.37,.82-10.9,1.11-16.07,2.62-30.66,8.97-61.65,16.61-92.71,23.99-20.7,4.92-40.43,12.85-60.36,20.13-30,10.95-59.83,22.36-88.57,36.36-9.44,4.6-18.42,10.14-27.61,15.26-1.11,.62-2.15,1.35-3.26,1.97-1.43,.81-3.06,1.84-4.35,.07-1.37-1.87,.24-3,1.57-3.94,2.52-1.78,4.99-3.69,7.7-5.13,11.21-5.96,22.26-12.27,33.79-17.53,40.64-18.56,82.48-34.1,124.95-47.87,14.11-4.58,28.82-7.32,43.21-11.06,20.54-5.34,41.02-10.9,61.57-16.19,6.12-1.58,12.4-2.56,18.6-3.81l.11,.55Z" />
    <path
        d="M1096.06,875.86c-1.1-.93-1.68-1.34-2.17-1.83-35.16-35.39-73.79-66.61-114.28-95.66-31.58-22.65-63.61-44.61-97.31-64.01-11.3-6.5-23.28-11.82-34.91-17.75-1.74-.89-3.42-2.02-4.81-3.36-.55-.53-.62-2.23-.17-2.89,.37-.54,2.02-.73,2.79-.38,35.83,15.84,68.81,36.65,100.98,58.75,35.91,24.67,71.55,49.76,104.41,78.49,14.48,12.66,28.45,25.9,42.59,38.95,3.73,3.45,3.61,3.57,2.9,9.69Z" />
    <path
        d="M1095.97,845.92c-1.09-.97-1.79-1.49-2.37-2.12-20.12-21.68-43.31-39.67-67.28-56.82-32.52-23.26-66.87-43.63-100.88-64.55-21.33-13.12-42.41-26.65-63.43-40.25-5.46-3.53-10.33-7.99-15.36-12.14-1.46-1.21-3.69-2.87-1.86-4.92,1.99-2.23,3.5,.31,4.89,1.51,12.86,11.05,27.11,20.1,41.49,28.95,31.22,19.22,62.66,38.1,93.76,57.51,27.42,17.12,54.03,35.49,78.99,56.08,10.2,8.42,19.51,17.91,29.31,26.82,2.82,2.56,4.17,5.38,2.76,9.93Z" />
    <path
        d="M458.91,488.53c-6.45-.82-12.9-1.63-19.35-2.47-1.61-.21-3.25-.41-4.81-.85-1.79-.51-2.76-1.69-1.9-3.97,3.44-1.09,6.88-1.1,10.72-.51,7.51,1.16,15.16,1.42,22.75,2.05,3.6,.3,7.2,.59,10.88,.35-7.31-1.17-14.63-2.26-21.92-3.56-2.54-.45-5.51-.68-6.35-4.4,3.66-2.48,7.43-3.76,11.93-3.19,12.23,1.57,24.49,2.89,36.72,4.47,1.97,.25,3.84,1.31,5.74,2-.69,3.02-2.32,2.71-3.98,2.46-5.54-.83-11.09-1.64-16.76-1.81,5.23,1.31,10.51,2.45,15.68,3.96,5.35,1.57,5.66,2.13,7.4,8.7-1.19,.12-2.34,.48-3.39,.3-3.74-.63-7.42-3.08-11.18,.31-.66,.6-2.44,.04-3.7-.11-2.51-.29-5.01-.65-7.53-.99-.52,1.51-.97,2.76-1.37,4.02-.41,1.29-.78,2.6-1.29,4.31-4.1-.32-8.21-.8-12.32-.93-17.41-.58-34.82-1.04-52.23-1.59-1.8-.06-3.65-.19-5.34-.74-.69-.23-1.29-1.65-1.32-2.54-.02-.5,1.17-1.35,1.91-1.49,1.02-.19,2.14,.24,3.22,.26,1.26,.02,2.94,.4,3.7-.25,4.2-3.57,9.23-2.79,14.01-2.88,9.97-.2,19.94-.06,29.91-.06l.16-.85Z" />
    <path
        d="M288.59,586.4c-1.92-2.41-4.13-2.62-6.81-1.72-50.29,16.81-102.22,27.81-152.86,43.34-25.84,7.92-51.53,16.35-77.24,24.69-5.68,1.84-11.16,4.31-16.74,6.49-1.01,.39-2.01,1-3.05,1.07-.74,.05-1.87-.44-2.21-1.03-.34-.6-.24-2.01,.23-2.4,1.35-1.16,2.89-2.24,4.53-2.9,6.56-2.63,13.13-5.3,19.82-7.58,52.39-17.92,105.64-32.92,159.17-46.96,19.65-5.15,39.07-11.15,58.6-16.74,4.53-1.3,9.06-2.63,13.65-3.72,2.06-.49,4.64-1.06,5.78,1.48,1.02,2.27-.16,4.17-2.88,5.99Z" />
    <path
        d="M1095.82,804.27c-1.13-.83-2.16-1.5-3.08-2.28-36.29-30.83-76.34-56-118.24-78.37-17.93-9.57-36.17-18.58-53.89-28.52-11.84-6.65-23.07-14.41-34.44-21.88-3-1.97-5.64-4.58-8.16-7.17-.77-.78-1.23-2.85-.73-3.67,.98-1.64,2.52-.69,3.67,.31,19.8,17.2,43.06,28.82,66.12,40.71,37.77,19.48,75.12,39.71,109.76,64.47,12.54,8.97,24.51,18.73,36.68,28.21,3.43,2.67,3.34,2.79,2.31,8.18Z" />
    <path
        d="M258.74,600.86c-.47,3.41-2.65,3.78-4.83,4.2-5.5,1.05-11.05,1.86-16.47,3.23-43.51,10.96-86.1,24.88-128.22,40.26-23.71,8.66-46.87,18.68-69.49,29.89-6.16,3.05-12,6.76-17.96,10.2-1.29,.75-2.8,1.83-3.74,.17-.5-.87-.1-3.06,.67-3.7,2.78-2.29,5.7-4.57,8.93-6.13,14.7-7.11,29.42-14.2,44.31-20.87,30.69-13.76,62.68-23.99,94.51-34.65,27.74-9.29,56.1-16.3,84.33-23.79,1.72-.46,3.61-.66,5.37-.5,.98,.09,1.87,1.19,2.59,1.69Z" />
    <path
        d="M603.69,524.39c1.8-.63,2.8-1.06,3.84-1.33,3.21-.85,3.33-.7,3.79,2.81,.09,.66,.64,1.33,1.12,1.87,2.16,2.41,1.89,3.29-1.33,4.22-2.41,.7-4.8,1.46-7.35,2.23,.34,.86,.49,1.35,.72,1.79,.59,1.15,1.22,2.29,1.84,3.44-1.1,.37-2.17,.85-3.3,1.1-4.94,1.1-9.99,1.82-14.82,3.3-3.75,1.15-6.88,.21-10.26-.92-.48-4.39,4.69-3.91,5.69-7.47,.68-2.42,4.78-3.87,8.43-6.54-5.39,.45-9.73,.48-13.93,1.26-5.07,.94-5.59,2.04-5.24,7.6-9.65,2.59-19.37,5.19-29.36,7.87-.62-1.55-1.11-2.78-1.71-4.28-1.56,.52-3.07,1.03-4.77,1.6,.24,1.59,.45,2.97,.72,4.8-9.35,2.11-18.6,4.21-27.78,6.28-3.7-5.67-2.25-10.52,3.69-12.18,5.23-1.46,10.62-3.77,15.84-3.53,9.46,.43,18.09-2.67,26.16-6.03,13.21-5.5,27.29-6.83,40.72-10.96,.86-.26,1.78-.33,2.67-.5,2.52-.49,4.35,.15,4.59,3.55Z" />
    <path
        d="M442.74,556.77c-2.37,1.13-4.6,2.26-6.89,3.26-1.14,.5-2.39,1.11-3.57,1.07-.88-.03-2.18-.86-2.45-1.63-.26-.73,.29-2.24,.97-2.72,1.29-.92,2.88-1.54,4.43-1.98,10.46-2.96,20.95-5.84,31.43-8.75,1.19-.33,2.37-.72,3.39-1.78-3.09,.64-6.22,1.12-9.25,1.94-22.75,6.2-45.76,11.5-67.85,19.94-2.32,.89-4.42,2.36-6.66,3.5-1.61,.82-3.22,1.86-4.94,2.16-1.17,.21-2.53-.69-3.81-1.09,.48-1.22,.74-2.61,1.52-3.6,.61-.78,1.84-1.1,2.84-1.53,2-.86,4.02-1.67,6.05-2.45,30.89-11.97,62.8-20.28,95.26-26.61,1.59-.31,3.28-.61,4.84-.38,.9,.13,1.65,1.32,3.29,2.73-5.87,1.4-10.64,2.54-15.41,3.68,5.64,1.49,10.89-1.48,16.72-.48-.83,2.88-1.5,5.22-2.31,8.03-11.26,1.01-22.28,4.63-33.35,8.02-3.45,1.06-6.73,2.67-10.19,3.71-1.38,.42-3.01-.03-4.53-.08,.13-1.42,.27-2.84,.46-4.96Z" />
    <path
        d="M807.54,608.17c-1.25-1.83-4.76-2.65-2.61-6.43,5.02,2.5,9.94,4.95,14.85,7.4,.15-.26,.3-.52,.45-.77-4.15-2.6-8.41-5.06-12.43-7.85-3.71-2.58-8.23-4.07-9.41-9.72-.65-3.09-3.91-5.63-5.99-8.42-.32-.43-.9-.89-.89-1.32,.2-6.47-4.35-9.52-8.9-12.61-.89-.61-2.17-1.29-2.38-2.15-.9-3.73-3.77-5.51-6.65-7.35-2.35-1.5-3.04-3.49-1.53-6.07-2.2-1.01-4.23-1.81-6.1-2.89-.63-.37-1.36-1.7-1.14-2.16,.38-.8,1.38-1.52,2.27-1.79,.76-.23,1.82,.02,2.58,.39,6.68,3.22,13.34,6.49,19.97,9.82,1.61,.81,3.27,1.71,4.5,2.96,.62,.64,.34,2.16,.46,3.29-.98-.02-2.11,.29-2.91-.1-4.24-2.05-8.39-4.29-12.59-6.44-.6-.31-1.27-.46-2.38,.12,2.95,1.87,5.94,3.69,8.85,5.63,2.67,1.78,5.73,3.15,6.56,6.87,.22,.97,1.66,1.8,2.7,2.43,2.79,1.69,5.83,3.03,8.48,4.9,3.93,2.77,7.65,5.86,11.38,8.9,.43,.35,.4,1.28,.68,2.28-1.35,.36-2.48,.66-3.42,.91,.37,1.9,.73,3.79,1.11,5.8,2.89,2.29,7.15,3.54,7.04,8.69-.02,.86,2.51,1.78,3.88,2.66,2.96,1.9,6.65,3.29,4.77,8.16-.34,.88,.51,2.21,1.16,4.6-8.5-2.88-15.23-7.03-22.51-9.82l.14,.08Z" />
    <path
        d="M402.53,799.44c-.16-32.02,7.34-67.21,22.64-100.7,1.58-3.45,3.5-6.76,5.47-10.01,.82-1.35,2.03-2.64,3.37-3.44,.84-.5,2.26-.04,3.41-.01-.17,1.11-.02,2.41-.56,3.28-1.5,2.45-3.71,4.53-4.9,7.1-9.06,19.65-16.68,39.89-20.29,61.25-2.38,14.09-3.18,28.46-4.29,42.73-.99,12.83,1.15,25.3,5.52,37.4,.61,1.69,1.05,3.47,1.23,5.25,.07,.66-.67,1.79-1.3,2.04-.64,.25-1.9-.07-2.36-.6-.8-.92-1.34-2.14-1.75-3.32-4.09-11.72-6.98-23.65-6.2-40.97Z" />
    <path
        d="M300.4,569.42c.17,2.02,.26,3.19,.35,4.25-9.48,.98-18.64,1.92-27.8,2.89-2.53,.27-5.04,.82-7.56,.83-.94,0-1.88-1.19-2.82-1.83,.82-.77,1.52-1.95,2.49-2.26,5.5-1.74,11.07-3.26,16.62-4.87,.69-.2,1.88-.43,1.94-.79,.91-5.55,5.75-4.5,9.2-5.61,.97-1.36,1.93-2.62,2.79-3.95,.3-.47,.52-1.12,.47-1.65-.34-3.62-.15-4.31,3.59-4.91,8.42-1.34,16.89-2.35,25.34-3.44,2.87-.37,5.77-.75,8.66-.75,1.01,0,2.71,.93,2.9,1.72,.46,1.93-1.3,2.23-2.79,2.41-9.37,1.11-18.75,2.16-28.11,3.32-1.89,.23-3.73,.86-5.42,2.15,4.87-.26,9.74-.56,14.61-.76,2.53-.11,5.08-.16,7.61,.03,.67,.05,1.91,1.25,1.8,1.56-.29,.86-1.02,1.88-1.81,2.18-1.14,.43-2.5,.27-4.15,.38-1.69,2.43-3.49,5.01-5.69,8.17-3.46,.27-7.75,.6-12.22,.95Z" />
    <path
        d="M289.99,516.7c-3.47,4.45-8.56,2.18-12.03,4.89v3.41c-6.86,1.85-13.6,3.66-20.95,5.64,1.02,.75,1.21,1,1.45,1.05,1.65,.34,4.34-.79,4.58,1.63,.29,2.94-2.62,2.17-4.42,2.51-3.18,.6-6.35,1.22-9.85,1.89,.42,3.66-1.23,4.7-4.45,5.35-4.92,1.01-9.83,2.65-14.33,4.87-2.73,1.35-5.23,.61-7.81,.9-1.66,.19-2.39-1.77-1.2-3.1,.93-1.05,2.17-1.93,3.44-2.55,4.83-2.36,10.19-3.77,13.63-8.46,.68-.92,2.16-1.26,3.29-1.83,6.46-3.27,12.92-6.54,19.5-9.86-.21-1.43-.93-3.01-.45-4,.54-1.1,2.07-2.03,3.35-2.4,8.68-2.5,17.39-4.89,26.13-7.17,1.53-.4,3.25-.31,4.84-.1,.63,.09,1.57,1.11,1.58,1.73,.02,.62-.84,1.68-1.48,1.83-2.29,.51-4.64,.68-6.96,1.04-.89,.14-1.75,.45-2.79,.73,1.53,.62,3.03,1.23,4.94,2Z" />
    <path
        d="M833.68,556.7c2.58,2.24,5.01,4.69,7.77,6.68,4.54,3.27,7.57,7.56,9.7,12.64,.52,1.23,1.32,2.51,2.35,3.33,1.96,1.59,4.32,2.71,4.5,5.73,.03,.56,.77,1.19,1.32,1.58,2.87,2.05,6.39,3.39,7.03,7.65,.14,.91,1.91,1.53,2.86,2.36,.95,.82,2.63,1.78,2.59,2.6-.34,6.33,5.52,7.73,8.68,11.21,1.26,1.39,4.24,2.15,2.83,4.43-1.51,2.44-3.53,.06-5.13-.79-6.67-3.52-11.96-8.72-16.95-14.26-.24-.27-.59-.53-.67-.84-1.87-7.16-7.7-10.9-12.98-15.13-.84-.67-2.02-1.4-2.24-2.3-.98-4.1-4.49-5.9-7.18-8.47-3.66-3.5-6.19-7.76-7.92-12.51-.35-.97-.84-1.98-1.52-2.73-2.18-2.4-4.57-4.48-5.44-7.93-.36-1.45-2.69-2.32-3.72-3.74-.57-.79-.3-2.19-.4-3.32,.97,.11,2.1-.07,2.89,.37,6.16,3.43,12.24,7.01,18.38,10.49,3.94,2.23,5.47,4.12,4.08,5.31-2.27,1.94-3.89-.67-5.77-1.33-1.48-.52-2.87-1.29-4.3-1.94-.25,.31-.5,.62-.75,.93Z" />
    <path
        d="M461.99,565.34c6.33-1.51,12.66-3.04,19.01-4.51,1.23-.28,2.55-.6,3.75-.41,.86,.14,1.6,1.09,2.39,1.68-.65,.73-1.19,1.9-1.98,2.11-3.85,1.02-7.79,1.7-11.65,2.66-2.53,.63-4.99,1.54-7.44,2.51,6.92-.28,13.79-3.52,20.67-.89l.25,1.49c-1.02,.47-2.01,1.3-3.06,1.36-10.24,.6-20.02,3.26-29.7,6.39-1.53,.49-3.36,1.52-4.16-.7-.74-2.07,1.19-2.71,2.65-3.43,.62-.3,1.23-.61,1.87-.93-.82-1.97-1.38-3.54-3.84-4.11-2.13-.5-2.2-2.85-.35-4.18,1.16-.83,2.53-1.46,3.9-1.87,11.98-3.58,23.97-7.14,35.99-10.58,1.77-.51,4.62-1.64,5.23,.81,.82,3.28-2.65,2.59-4.48,3.13-9.89,2.92-19.8,5.75-29.71,8.61l.64,.83Z" />
    <path
        d="M807.4,608.09c4.64,5.14,10.93,7.59,17.03,10.31,2.8,1.25,5.79,2.09,8.67,3.18,2.03,.77,3.99,1.23,3.18,4.52-.48,1.94,.79,4.31,1.35,6.86,2.57,1.69,5.46,3.55,8.32,5.46,2.39,1.59,4.92,2.92,5.98,6.03,.37,1.09,2.08,1.84,3.32,2.48,2.47,1.28,3.87,3.01,3.28,6.59-1.54-.35-3.04-.33-4.1-.99-6.12-3.84-12.15-7.83-18.18-11.82-.73-.48-1.67-1.24-1.78-1.98-.63-4.17-4.48-5.33-6.87-7.87-6.2-6.59-14.09-11.1-20.59-17.29-2.65-2.53-2.59-3.38,.54-5.41l-.14-.08Z" />
    <path
        d="M445.39,622.15c-6.23-.28-12.01,.76-17.38,3.76,.35,.31,.62,.52,.85,.75,.8,.81,1.6,1.62,2.4,2.43-.94,.71-1.79,1.72-2.85,2.08-3.77,1.27-7.69,2.12-11.42,3.5-5.89,2.17-12.32,2.96-17.52,7.01-1.63,1.27-4.24,.41-4.65-1.11-.55-2.07,.94-2.97,2.46-3.64,3.75-1.65,7.18-3.71,10.66-5.96,8.64-5.59,18.04-10.06,28.23-12.36,2.08-.47,4.31-.54,6.45-.43,1.65,.09,3.18,.84,2.75,3.95Z" />
    <path
        d="M532.07,528.85h7.06c-.65,5.28-1.36,5.7-5.64,6.41-5.7,.94-11.33,2.3-16.95,3.62-1.47,.34-3.05,1.13-3.59-.77-.22-.78,.8-2.4,1.68-2.91,2.8-1.62,5.78-2.92,8.72-4.27,1.22-.56,2.53-.93,3.6-2.23-2.46,0-4.96-.32-7.36,.06-7.69,1.21-15.42,2.36-22.42,6.2-.82,.45-2.18-.08-3.28-.16,.32-1.12,.4-2.43,1.04-3.32,.58-.81,1.73-1.32,2.73-1.7,8.88-3.44,18.08-5.31,27.61-5.41,3.04-.03,5.79,.75,6.8,4.5Z" />
    <path
        d="M625.75,527.12c-.63,0-1.31,.14-1.89-.03-.77-.23-1.9-.57-2.09-1.13-.22-.65,.23-1.71,.7-2.37,.51-.7,1.35-1.18,2.1-1.69,5.4-3.64,10.79-7.29,16.23-10.87,1.42-.93,2.85-2.5,5.45-.35-1.02,2.76-2.12,5.76-3.31,9,.73,0,2.05-.14,3.32,.06,.54,.09,1.27,.83,1.37,1.38,.1,.55-.32,1.43-.8,1.78-.69,.52-1.64,.71-2.48,1.03-7.16,2.69-13.82,6.26-19.66,11.26-.55,.47-1.07,1.14-1.7,1.29-.75,.19-1.96,.21-2.35-.24-.44-.5-.52-1.78-.18-2.41,.58-1.08,1.57-1.96,2.46-2.84,1-.98,2.08-1.87,3.12-2.8l-.3-1.08Z" />
    <path
        d="M515.97,473.28c2.51,.32,4.6,.6,7.1,.92-.83-1.58-1.44-2.73-2.27-4.3,1.33-.35,2.3-.88,3.22-.8,5.38,.5,10.74,1.15,16.11,1.73,.72,.08,1.53-.14,2.14,.12,.73,.32,1.71,.93,1.82,1.56,.1,.57-.67,1.52-1.29,1.95-.67,.46-1.62,.52-2.5,.76,1.9,4.02,1.47,4.98-2.08,4.72-6.12-.45-12.23-1.02-18.33-1.67-3.62-.39-4.11-1.1-3.92-4.98Z" />
    <path
        d="M507.01,467.48c-.86-3.19,.93-4.13,3.01-4.23,7.75-.38,15.5-.57,23.26-.79,.69-.02,1.58,.07,2.05,.49,.58,.51,1.05,1.39,1.11,2.14,.03,.38-.9,1.02-1.5,1.22-.65,.22-1.43,.05-2.14,.08-7.39,.36-14.77,.73-22.16,1.08-1.21,.06-2.42,0-3.61,0Z" />
    <path
        d="M362.9,676.12c.11,.16,.3,.27,.57,.33,5.08-1.94,10.12-4.01,15.28-5.75,2.27-.76,4.9-1.69,7.18,1.26-.87,.69-1.56,1.64-2.41,1.82-7.54,1.63-14.47,4.71-21.12,8.51-.47,.27-.94,.68-1.44,.73-.66,.07-1.72,.06-1.93-.31-.38-.66-.65-1.93-.28-2.39,1.22-1.53,2.75-2.82,4.16-4.2Z" />
    <path class="cls-1"
        d="M712.81,430.45c-.3-5.85,2.15-11,4.39-16.12,1.7-3.9,2.08-7.37-.37-11.06-.61-.91-.53-2.38-.49-3.59,.05-1.44,.57-2.87,.55-4.3,0-.73-.74-1.45-1.15-2.18-.84,.49-1.97,.8-2.46,1.53-.56,.84-.6,2.06-.78,3.12-3.66,21.08-7.31,42.17-10.98,63.36-1.5-.49-3.56-1.61-3.93-1.2-.97,1.07-1.46,2.77-1.65,4.28-.36,2.81,.54,5.85-1.86,8.33-2.63-.79-5.33-1.6-7.9-2.37,.77-3.71,1.6-7.68,2.48-11.88-1.73-1.02-3.38-1.99-5.51-3.24-1.57,2.13-3.01,4.08-4.45,6.04l-.98-.42c1.4-3.66,2.8-7.31,4.16-10.88-2.16-2.51-4.27,.06-5.79-.43-1.81-2.04-3.42-3.86-5.2-5.87-.17-1.84-.38-4.08-.6-6.43-2.86-.26-5.27-.48-8.42-.76,2.28-4.68,4.22-8.7,6.2-12.71,3.14-6.35,6.42-12.62,9.42-19.03,4.96-10.57,4.97-21.4,1.1-32.3-1.55-4.36-4.37-7.38-9-8.72-2.95-.85-5.88-1.97-8.62-3.35-5.89-2.96-12.21-3.36-18.57-3.33-1.91,0-3.92,.71-5.69,1.52-2.8,1.27-5.71,2.57-8.07,4.48-2.16,1.75-3.8,4.22-5.36,6.57-1.21,1.82-.85,3.81,.63,5.53,.83,.96,1.69,1.93,2.33,3.01,2.28,3.81,.98,6.57-3.5,6.48-7.8-.15-15.14-2.2-20.94-7.77-4.86-4.67-10.38-7.8-17.08-8.73-1.08-3.01,.05-5.2,2.65-7.06-2.27-3.06-4.39-5.9-6.4-8.61,1.12-3.66,4.41-1.87,7.15-3.25-.5-1.62-.94-3.23-1.5-4.8-.87-2.41-.6-4.32,2.15-5.15,2.93-.89,4.74-2.56,4.06-6.38,1.58,.28,2.73,.48,3.16,.55,2.5-1.44,4.52-2.61,7.56-4.37,.57-1.75,1.85-3.86,5.92-3.64,2.45,.13,5.26-1.95,7.51-3.58,2.55-1.85,6.01-1.98,8.02-5.07,1.27-1.96,3.99-1.75,6.82,1.15-.56-4.86,1.41-6.88,3.83-8.49,1.15-.77,3.07-1.99,3.76-1.57,4.75,2.9,8.34-1.86,12.66-1.66,1.28,.06,2.63-1.55,4.76-2.92,.98,1.55,1.92,3.06,2.84,4.52,3.37-1.1,5.95-1.12,9.1,.03,4.02,1.47,8.61,1.27,12.57,3.65,1.34,.8,3.39,1.79,5.17-.73,1.24-1.76,5.61-.35,7.45,1.86,2.09,2.5,3.61,6.02,7.98,4.41,2.85,2.01,5.8,2.36,9.27,.45,.95,1.71,1.51,4.81,4.68,2.65,2.25,1.6,6.23-1,7.52,3.11,.16,.51,1.24,1.17,1.75,1.06,4.17-.87,6.07,2.13,8.24,5.02,1.77-.83,3.36-1.58,5.31-2.5,1.4,2.3,3.03,3.9,6.17,3.91,9.61,.01,11.16,.82,16.71,8.26,1.18,1.58,2.18,2.7,4.13,3.02,.83,.13,2.03,.55,2.3,1.16,1.08,2.5,3.18,2.57,5.22,2.35,4.72,7.22,5.71,15.17,6.73,23.09,1.22,9.54,2.3,19.09,3.33,28.65,.46,4.26,.86,8.61-3.82,12.28-.21-2.6-.42-4.5-.49-6.4-.29-7.08-3.95-12.36-9.14-16.67-4.52-3.75-13.76-2.21-18.01,3.43-2.67,3.55-4.95,7.7-6.25,11.94-6.26,20.37-11.08,41-9.39,62.6,.31,3.93,.96,4.74-4.03,6.82-1.24-.88-2.62-1.87-4.2-3-2.25,2.02-3.91,5.57-7.65,2.56-2.6,3.46-2.88,9.66-9.59,7.23,.59-1.84,1.13-3.5,1.75-5.42-1.39-.5-2.51-.91-4.1-1.48,1.54-2.53,3.02-4.99,4.53-7.44,1.8-2.93,1.77-3.05-1.96-5.17,.58-4.29,2.71-8.28,2.35-13.03-.21-2.81,2.5-5.88,4.03-8.76,2.41-4.53,2.46-4.5-.93-9.98-1.31,1.26-2.53,2.44-3.76,3.62l.15,.14Z" />
    <path class="cls-1" d="M712.66,430.32c-.62,2.61,1.01,5.65-1.86,8.68-.06-3.57-1.22-6.52,2.02-8.54l-.15-.14Z" />
    <path class="cls-1"
        d="M436.86,637.27c-1.38,.28-3.64,.14-4,.9-1.77,3.75-5.21,3.04-8.22,3.85-6.46,1.73-12.82,3.85-19.23,5.81-1.69,.52-3.38,1.05-5.33,.95,1.31-.66,2.57-1.46,3.94-1.97,8.65-3.21,17.28-6.49,26.03-9.43,2.04-.69,4.51-.1,6.8-.1,0,0,0,0,0,0Z" />
    <path class="cls-1" d="M381.8,657.64q2.33-1.57,4.82-1.27c-1.14,2.47-3.01,1.77-4.83,1.26h0Z" />
    <path class="cls-1"
        d="M180.59,675.32c12.85-9.56,109.39-46.81,133.8-51.14-2.65,1.07-5.32,2.09-7.94,3.23-6.82,2.98-13.67,5.88-20.39,9.06-4.32,2.05-4.23,2.25-3.4,7.54-35.33,5.24-67.45,20.81-101.08,31.63-.27,.09-.65-.2-.98-.32Z" />
    <path class="cls-1" d="M89.79,716.9l-3.36,1.97-.35-.68c1.13-.63,2.26-1.27,3.38-1.9l.33,.62Z" />
    <path class="cls-1"
        d="M535.36,1080.83c1.11-15.47,2.2-30.73,3.33-46.53,2.52,.29,4.59,.63,6.67,.74,2.53,.13,5.19,.57,7.58-.02,7.65-1.91,12.55,2.51,16.33,7.67,2.89,3.95,5.03,8.96,5.87,13.79,1.85,10.59-3.91,17.09-11.47,22.91-1.45,1.11-3.75,1.43-5.69,1.52-6.51,.31-13.02,.36-19.54,.46-.86,.01-1.73-.29-3.09-.53Z" />
    <path class="cls-1"
        d="M539.9,1029.47c1.17-18.41,2.34-36.79,3.55-55.87,.94-.12,2.5-.53,4.03-.44,2.34,.13,4.67,.94,7,.88,6.49-.15,9.87,3.86,12.06,9.04,5.09,12.03,6.3,24.42,2.97,37.21-1.6,6.15-6.16,8.48-11.55,10.05-4.32,1.26-13.43,.8-18.05-.87Z" />
    <path class="cls-1"
        d="M642.32,977.98c1.24-.49,1.72-.8,2.24-.87,9.23-1.22,18.51-1.39,27.64,.34,12.71,2.41,21.07,15.3,19.14,28.1-1.49,9.9-6.04,17.21-15.31,21.55-8.17,3.83-16.72,5.6-25.99,6.31-2.6-18.66-5.15-36.92-7.73-55.43Z" />
    <path class="cls-1"
        d="M427.02,1018.83c13.1-14.68,27.92-25.47,40.6-38.53l1.09,.48c1.39,17.07,2.77,34.13,4.24,52.1-15.42-4.71-30.08-9.2-45.93-14.05Z" />
    <path class="cls-1"
        d="M434.46,453.87c-5.44,1.03-14.3,.53-17.58-1.66,5.81,.59,11.63,1.18,17.47,1.75,.03-.02,.11-.09,.11-.09Z" />
    <path class="cls-1"
        d="M616.85,91.69c2.23,15.74,4.46,31.45,6.81,48-11.61-1.71-22.4-3.3-33.72-4.97,.84-1.9,1.37-3.4,2.13-4.77,6.25-11.24,12.59-22.43,18.8-33.68,1.29-2.34,2.92-4.02,5.98-4.58Z" />
</svg>